<svg width="63" height="72" viewBox="0 0 63 72" fill="none" xmlns="http://www.w3.org/2000/svg">
<rect x="0.296875" y="35.5" width="18" height="1" fill="white"/>
<path d="M30.5752 33.4854L35.8564 40.582C36.1865 40.1673 36.432 39.6426 36.5928 39.0078C36.7536 38.373 36.834 37.6156 36.834 36.7354C36.834 36.4645 36.8213 36.0329 36.7959 35.4404L36.7832 35.3516H38.8652V35.8467C38.8652 37.2093 38.7087 38.4069 38.3955 39.4395C38.0824 40.4635 37.6084 41.348 36.9736 42.0928L39.1318 45H36.4277L35.4375 43.6162C34.735 44.2087 33.9902 44.6488 33.2031 44.9365C32.416 45.2243 31.5739 45.3682 30.6768 45.3682C28.8486 45.3682 27.3379 44.8011 26.1445 43.667C24.9512 42.5244 24.3545 41.0898 24.3545 39.3633C24.3545 38.2038 24.6465 37.1289 25.2305 36.1387C25.8145 35.1484 26.6947 34.2301 27.8711 33.3838C27.4479 32.7744 27.1348 32.1777 26.9316 31.5938C26.7285 31.0098 26.627 30.4173 26.627 29.8164C26.627 28.5469 27.0459 27.5439 27.8838 26.8076C28.7301 26.0713 29.8854 25.7031 31.3496 25.7031C31.8997 25.7031 32.4499 25.7539 33 25.8555C33.5586 25.957 34.1341 26.1051 34.7266 26.2998V28.623C34.2272 28.293 33.7109 28.0518 33.1777 27.8994C32.653 27.7386 32.0986 27.6582 31.5146 27.6582C30.6937 27.6582 30.0462 27.8529 29.5723 28.2422C29.0983 28.623 28.8613 29.1393 28.8613 29.791C28.8613 30.2904 28.984 30.8151 29.2295 31.3652C29.4749 31.9069 29.9235 32.6136 30.5752 33.4854ZM28.9121 34.8057C28.1335 35.4235 27.5495 36.0794 27.1602 36.7734C26.7793 37.459 26.5889 38.1911 26.5889 38.9697C26.5889 40.2477 27.012 41.3099 27.8584 42.1562C28.7048 42.9941 29.7839 43.4131 31.0957 43.4131C31.4512 43.4131 31.8236 43.3623 32.2129 43.2607C32.6022 43.1592 32.9831 43.0111 33.3555 42.8164C33.584 42.6895 33.7702 42.5794 33.9141 42.4863C34.0664 42.3848 34.2103 42.279 34.3457 42.1689L28.9121 34.8057Z" fill="white"/>
<rect x="44.2969" y="35.5" width="18" height="1" fill="white"/>
</svg>
