<svg width="316" height="100" xmlns="http://www.w3.org/2000/svg" xmlns:xlink="http://www.w3.org/1999/xlink" xml:space="preserve" overflow="hidden"><defs><clipPath id="clip0"><rect x="0" y="0" width="316" height="100"/></clipPath></defs><g clip-path="url(#clip0)"><path d="M94.2547 46.9486C94.2447 46.8385 94.2147 46.7284 94.2047 46.6084 94.1047 45.8881 93.9946 45.1677 93.8646 44.4574 93.8446 44.3373 93.8245 44.2072 93.7945 44.0772 93.6344 43.2468 93.4344 42.4364 93.2243 41.626 93.1842 41.466 93.1342 41.3159 93.0942 41.1658 92.9041 40.4955 92.704 39.8252 92.4739 39.1749 92.4139 39.0048 92.3638 38.8347 92.3038 38.6646 92.0237 37.8742 91.7336 37.0939 91.4034 36.3335 91.3934 36.3135 91.3834 36.2935 91.3734 36.2635 91.0632 35.5331 90.7131 34.8128 90.3629 34.1025 90.2829 33.9424 90.2028 33.7823 90.1128 33.6122 89.7626 32.9419 89.4024 32.2816 89.0123 31.6313 88.9822 31.5813 88.9522 31.5212 88.9122 31.4612 88.6421 31.011 88.3619 30.5708 88.0718 30.1406 88.0718 30.1406 88.0718 30.1306 88.0718 30.1306 88.0418 30.0905 88.0118 30.0505 87.9818 30.0105 87.8417 29.8004 87.7016 29.5903 87.5516 29.3802 87.4715 29.2602 87.3815 29.1401 87.3014 29.02 86.8912 28.4398 86.471 27.8795 86.0308 27.3292 85.9708 27.2592 85.9208 27.1792 85.8608 27.0991L85.8608 27.1091C85.6707 26.869 85.4806 26.6289 85.2805 26.3988 85.1804 26.2787 85.0804 26.1587 84.9703 26.0486 84.5802 25.5984 84.19 25.1582 83.7798 24.728 83.6497 24.5879 83.5096 24.4479 83.3796 24.3078 82.9594 23.8776 82.5292 23.4474 82.089 23.0372 81.9889 22.9372 81.8789 22.8371 81.7788 22.7371 81.2186 22.2168 80.6483 21.7166 80.058 21.2363 80.058 21.2363 80.058 21.2363 80.058 21.2363 79.4877 20.7661 78.9075 20.3259 78.3172 19.8957 78.1671 19.7857 78.007 19.6756 77.857 19.5656 77.3967 19.2354 76.9365 18.9253 76.4563 18.6151 76.2862 18.5051 76.1061 18.385 75.926 18.2749 75.4158 17.9548 74.8855 17.6446 74.3653 17.3445 74.2452 17.2745 74.1252 17.2044 74.0051 17.1344 73.3448 16.7742 72.6745 16.4241 71.9942 16.0939 71.8941 16.0439 71.7941 16.0039 71.694 15.9538 71.1238 15.6837 70.5435 15.4336 69.9532 15.1935 69.7531 15.1134 69.543 15.0334 69.3329 14.9534 68.8227 14.7533 68.3124 14.5632 67.7922 14.3931 67.5821 14.3231 67.362 14.243 67.1519 14.173 66.5516 13.9829 65.9513 13.8028 65.341 13.6327 65.221 13.6027 65.1009 13.5627 64.9808 13.5327 64.2405 13.3426 63.5001 13.1725 62.7498 13.0224 62.5797 12.9924 62.3996 12.9624 62.2295 12.9324 61.6493 12.8224 61.059 12.7323 60.4687 12.6423 60.2286 12.6123 59.9785 12.5822 59.7384 12.5522 59.1881 12.4822 58.6378 12.4322 58.0776 12.3921 57.8475 12.3721 57.6073 12.3521 57.3772 12.3421 56.6669 12.3021 55.9566 12.2721 55.2362 12.2721 55.1762 12.2721 55.1162 12.2621 55.0561 12.2621L55.0161 12.2621 54.9661 12.2621C54.9661 12.2621 54.9661 12.2621 54.9661 12.2621 54.9661 12.2621 54.9661 12.2621 54.9661 12.2621 54.9661 12.2621 54.9561 12.2621 54.9561 12.2621 54.1657 12.2621 53.3953 12.2921 52.615 12.3421 52.3749 12.3521 52.1348 12.3821 51.8946 12.3921 51.3444 12.4322 50.8041 12.4822 50.2639 12.5522 50.0037 12.5822 49.7436 12.6123 49.4935 12.6523 48.9332 12.7323 48.383 12.8224 47.8327 12.9224 47.6326 12.9624 47.4225 12.9924 47.2124 13.0325 46.4621 13.1825 45.7217 13.3426 44.9914 13.5327 44.8913 13.5627 44.7913 13.5927 44.6812 13.6227 44.0509 13.7928 43.4306 13.9729 42.8203 14.173 42.6002 14.243 42.3801 14.3231 42.16 14.3931 41.6498 14.5632 41.1495 14.7533 40.6493 14.9434 40.4292 15.0234 40.2191 15.1134 39.999 15.2035 39.4387 15.4336 38.8885 15.6737 38.3382 15.9238 38.2081 15.9839 38.0781 16.0339 37.948 16.1039 37.2677 16.4241 36.5974 16.7742 35.9371 17.1344 35.817 17.1944 35.7069 17.2645 35.5969 17.3345 35.0566 17.6346 34.5364 17.9448 34.0161 18.2749 33.8361 18.385 33.656 18.5051 33.4859 18.6151 33.0157 18.9152 32.5555 19.2354 32.0952 19.5555 31.9352 19.6656 31.7751 19.7757 31.615 19.8957 31.0447 20.3159 30.4845 20.7461 29.9342 21.1963 29.9142 21.2163 29.8942 21.2263 29.8642 21.2464 29.2739 21.7266 28.7036 22.2268 28.1434 22.7471 28.0433 22.8371 27.9433 22.9372 27.8432 23.0372 27.403 23.4574 26.9628 23.8776 26.5426 24.3178 26.4125 24.4579 26.2725 24.5979 26.1424 24.738 25.7322 25.1682 25.342 25.6084 24.9518 26.0586 24.8518 26.1787 24.7417 26.2987 24.6417 26.4188 24.4416 26.6589 24.2515 26.899 24.0514 27.1391L24.0514 27.1291C23.9914 27.1992 23.9414 27.2792 23.8813 27.3593 23.4411 27.9095 23.0209 28.4798 22.6107 29.0501 22.5307 29.1701 22.4407 29.2902 22.3606 29.4102 22.2205 29.6203 22.0705 29.8304 21.9304 30.0405 21.9004 30.0805 21.8704 30.1206 21.8404 30.1606 21.8404 30.1606 21.8404 30.1706 21.8404 30.1706 21.5502 30.6108 21.2701 31.041 21 31.4912 20.97 31.5412 20.9399 31.6013 20.8999 31.6613 20.5097 32.3116 20.1496 32.9719 19.7994 33.6422 19.7194 33.8023 19.6293 33.9624 19.5493 34.1225 19.1891 34.8328 18.8489 35.5531 18.5388 36.2835 18.5288 36.3035 18.5188 36.3235 18.5088 36.3535 18.1786 37.1139 17.8885 37.8943 17.6084 38.6846 17.5483 38.8547 17.4883 39.0248 17.4383 39.1949 17.2182 39.8552 17.0081 40.5155 16.818 41.1858 16.778 41.3359 16.7279 41.496 16.6879 41.646 16.4778 42.4564 16.2777 43.2668 16.1177 44.0972 16.0976 44.2173 16.0776 44.3473 16.0476 44.4774 15.9176 45.1877 15.7975 45.9081 15.7075 46.6284 15.6975 46.7385 15.6674 46.8485 15.6574 46.9686 15.6574 46.9686 15.6674 46.9786 15.6674 46.9886 15.4673 48.5893 15.3573 50.2201 15.3573 51.8709 15.3573 73.7313 33.0857 91.4597 54.9461 91.4597 76.8065 91.4597 94.5349 73.7313 94.5349 51.8709 94.5349 50.2201 94.4248 48.5893 94.2247 46.9886 94.2547 46.9586 94.2547 46.9586 94.2547 46.9486ZM76.1762 54.282C79.9179 51.0105 85.0304 45.6279 87.2214 39.1549 87.2214 39.1649 87.2214 39.1649 87.2314 39.1749 87.9417 47.1186 80.4482 52.101 76.1762 54.282ZM33.766 24.4379C33.9761 24.2778 34.1762 24.1177 34.3863 23.9676 34.6164 23.7976 34.8465 23.6375 35.0666 23.4774 35.3968 23.2473 35.737 23.0172 36.0671 22.7971 36.3272 22.627 36.5874 22.4569 36.8575 22.2868 37.0676 22.1568 37.2877 22.0367 37.4978 21.9067 37.7279 21.7666 37.968 21.6365 38.2081 21.4965 38.4282 21.3764 38.6483 21.2564 38.8785 21.1363 39.1186 21.0062 39.3587 20.8862 39.5988 20.7661 39.8189 20.6561 40.049 20.546 40.2791 20.436 40.5292 20.3159 40.7794 20.2059 41.0395 20.0958 41.2596 19.9958 41.4897 19.8957 41.7098 19.8057 41.9899 19.6856 42.2701 19.5856 42.5502 19.4755 42.7603 19.3955 42.9604 19.3154 43.1705 19.2354 43.6207 19.0753 44.0809 18.9152 44.5511 18.7652 44.7112 18.7151 44.8713 18.6651 45.0414 18.6251 45.4116 18.5151 45.7817 18.405 46.1619 18.305 46.362 18.2549 46.5721 18.2049 46.7822 18.1549 47.1024 18.0748 47.4125 18.0048 47.7327 17.9348 47.9528 17.8848 48.1729 17.8447 48.393 17.8047 48.6731 17.7547 48.9532 17.7047 49.2334 17.6546L35.907 44.4374C37.3777 46.2282 40.8994 49.96 46.4821 52.5712L53.9556 37.0038C53.9556 37.0038 54.1557 36.3535 54.5059 36.3535L54.736 36.3535 54.9761 36.3535 54.9861 36.3535 55.2462 36.3535 55.4563 36.3535C55.8065 36.3535 56.0066 37.0038 56.0066 37.0038L63.4801 52.5712C69.0628 49.97 72.5845 46.2382 74.0552 44.4374L60.7188 17.6747C60.989 17.7247 61.2591 17.7647 61.5292 17.8247 61.7493 17.8647 61.9694 17.9048 62.1895 17.9548 62.5097 18.0248 62.8298 18.0949 63.15 18.1749 63.3501 18.2249 63.5502 18.2649 63.7503 18.325 64.1705 18.435 64.5807 18.5551 64.9909 18.6751 65.1909 18.7352 65.391 18.7952 65.5911 18.8652 65.9713 18.9853 66.3615 19.1153 66.7417 19.2554 66.9518 19.3354 67.1619 19.4155 67.372 19.4955 67.6521 19.6056 67.9323 19.7056 68.2024 19.8257 68.4325 19.9157 68.6526 20.0158 68.8827 20.1158 69.1328 20.2259 69.3929 20.3359 69.6431 20.456 69.8732 20.566 70.1033 20.6761 70.3234 20.7861 70.5635 20.9062 70.8036 21.0262 71.0437 21.1563 71.2638 21.2764 71.4939 21.3964 71.714 21.5165 71.9542 21.6465 72.1843 21.7866 72.4144 21.9167 72.6345 22.0467 72.8446 22.1668 73.0547 22.2969 73.3248 22.4669 73.5949 22.637 73.8651 22.8171 74.2052 23.0372 74.5454 23.2673 74.8755 23.4974 75.0956 23.6575 75.3258 23.8076 75.5459 23.9776 75.756 24.1377 75.9661 24.2978 76.1662 24.4579 76.3162 24.5679 76.4563 24.688 76.6064 24.798 76.7164 25.0582 80.7083 34.1525 78.5873 40.6856 76.4863 47.1887 67.8322 54.4621 60.1285 56.5831 60.0785 56.5031 60.0285 56.413 59.9785 56.333 59.9385 56.273 59.9084 56.2029 59.8684 56.1429 59.7684 55.9728 59.6483 55.8028 59.5383 55.6227 59.5183 55.5927 59.5082 55.5726 59.4882 55.5426 59.3682 55.3525 59.2281 55.1725 59.0981 54.9724 59.048 54.8923 58.988 54.8223 58.928 54.7423 58.8379 54.6122 58.7479 54.4921 58.6478 54.3621 58.5878 54.272 58.5178 54.192 58.4477 54.1019 58.3577 53.9819 58.2677 53.8618 58.1776 53.7418 58.1076 53.6517 58.0476 53.5617 57.9775 53.4817 57.8875 53.3616 57.7974 53.2415 57.6974 53.1315 57.6374 53.0514 57.5673 52.9714 57.5073 52.8914 57.4073 52.7613 57.3072 52.6413 57.2072 52.5212 57.1471 52.4512 57.0971 52.3811 57.0371 52.3111 56.907 52.151 56.787 52.0009 56.6669 51.8609 56.6169 51.8109 56.5769 51.7508 56.5368 51.7008 56.4168 51.5607 56.3067 51.4207 56.1967 51.2906 56.1467 51.2306 56.0966 51.1806 56.0466 51.1205 55.9666 51.0305 55.8865 50.9404 55.8165 50.8504 55.7665 50.7904 55.7265 50.7404 55.6764 50.6903 55.6064 50.6103 55.5464 50.5403 55.4863 50.4702 55.4563 50.4302 55.4163 50.3902 55.3863 50.3602 55.3263 50.3001 55.2862 50.2401 55.2362 50.1901 55.2062 50.1501 55.1762 50.1201 55.1462 50.09 55.1062 50.04 55.0761 50.01 55.0461 49.97 55.0361 49.96 55.0261 49.95 55.0161 49.94 54.9861 49.9 54.9661 49.8799 54.9661 49.8799 54.9661 49.8799 54.9461 49.9 54.9161 49.94 54.9061 49.95 54.8961 49.96 54.8861 49.97 54.856 50 54.826 50.04 54.786 50.09 54.756 50.1201 54.736 50.1501 54.696 50.1901 54.6459 50.2401 54.6059 50.3001 54.5459 50.3602 54.5159 50.4002 54.4859 50.4302 54.4458 50.4702 54.3858 50.5403 54.3258 50.6103 54.2558 50.6903 54.2057 50.7404 54.1657 50.7904 54.1157 50.8504 54.0457 50.9304 53.9656 51.0305 53.8856 51.1205 53.8356 51.1806 53.7955 51.2306 53.7355 51.2906 53.6255 51.4207 53.5154 51.5607 53.3953 51.7008 53.3553 51.7508 53.3053 51.8109 53.2653 51.8609 53.1452 52.011 53.0252 52.161 52.8951 52.3111 52.8451 52.3811 52.7851 52.4512 52.725 52.5212 52.625 52.6413 52.5249 52.7613 52.4249 52.8914 52.3649 52.9714 52.2948 53.0514 52.2348 53.1315 52.1448 53.2515 52.0547 53.3616 51.9547 53.4817 51.8846 53.5717 51.8146 53.6517 51.7546 53.7418 51.6645 53.8618 51.5745 53.9819 51.4844 54.1019 51.4144 54.192 51.3544 54.272 51.2843 54.3621 51.1943 54.4921 51.0943 54.6122 51.0042 54.7423 50.9442 54.8223 50.8942 54.8923 50.8341 54.9724 50.6941 55.1625 50.564 55.3525 50.4439 55.5426 50.4239 55.5726 50.4139 55.5927 50.3939 55.6227 50.2739 55.8028 50.1638 55.9728 50.0638 56.1429 50.0237 56.2129 49.9837 56.273 49.9537 56.333 49.9037 56.4231 49.8437 56.5031 49.8036 56.5831 42.1 54.4621 33.4459 47.1887 31.3249 40.6756 29.2039 34.1425 33.1858 25.0482 33.3058 24.788 33.4759 24.668 33.626 24.5579 33.766 24.4379ZM22.7208 39.1649C22.7208 39.1549 22.7208 39.1549 22.7308 39.1448 24.9218 45.6279 30.0343 51.0005 33.776 54.272 29.494 52.101 22.0104 47.1186 22.7208 39.1649ZM24.2315 67.8785C21.9404 63.4864 20.5698 58.534 20.3497 53.2916 22.3706 55.4726 25.0319 57.7837 28.3535 59.5946L24.2315 67.8785ZM75.0656 80.0943C69.3929 84.1362 62.4597 86.5073 54.9761 86.5073 47.4925 86.5073 40.5492 84.1362 34.8866 80.0943L34.3763 77.7932 41.3196 63.3163C44.301 63.9166 46.372 64.5669 47.8127 65.1972 48.0128 65.4773 48.1028 65.6374 48.1028 65.6374L48.1028 65.6274C48.1829 66.4678 48.373 67.2382 48.7231 67.8585 49.3434 68.919 49.9637 69.8394 50.584 70.6498 50.584 70.6498 50.584 70.6498 50.584 70.6498 50.584 70.6498 50.584 70.6498 50.594 70.6598 50.8441 70.98 51.0843 71.2801 51.3344 71.5602 51.4044 71.6403 51.4644 71.7003 51.5345 71.7803 51.7145 71.9804 51.9046 72.1805 52.0847 72.3706 52.1648 72.4507 52.2448 72.5307 52.3248 72.6107 52.5049 72.7808 52.685 72.9509 52.8551 73.111 52.9251 73.181 53.0052 73.241 53.0752 73.3111 53.3253 73.5312 53.5654 73.7313 53.8155 73.9214 54.2858 74.2915 54.666 74.4516 54.9661 74.5016 55.2662 74.4516 55.6464 74.2815 56.1166 73.9214 56.3668 73.7313 56.6169 73.5212 56.857 73.3111 56.927 73.251 57.0071 73.181 57.0771 73.111 57.2572 72.9509 57.4273 72.7808 57.6073 72.6107 57.6874 72.5307 57.7674 72.4507 57.8475 72.3706 58.0275 72.1805 58.2076 71.9904 58.3977 71.7903 58.4678 71.7203 58.5278 71.6503 58.5978 71.5702 58.8479 71.2901 59.0981 70.99 59.3382 70.6698 59.3382 70.6698 59.3382 70.6698 59.3482 70.6598 59.3482 70.6598 59.3482 70.6598 59.3482 70.6598 59.9785 69.8494 60.5988 68.929 61.2091 67.8685 61.5692 67.2482 61.7593 66.4778 61.8293 65.6374L61.8293 65.6474C61.8293 65.6474 61.9194 65.4874 62.1195 65.2072 63.5602 64.5769 65.6312 63.9266 68.6126 63.3263L75.5559 77.8032 75.0656 80.0943ZM81.5887 59.5946C84.9203 57.7837 87.5716 55.4726 89.5925 53.2916 89.3724 58.534 88.0118 63.4864 85.7107 67.8785L81.5887 59.5946Z" fill="#FFFFFF" fill-rule="nonzero" fill-opacity="1"/><path d="M125.41 31.011 115.435 57.3135 115.435 57.5636 119.207 57.5636 121.958 49.98 133.263 49.98 136.045 57.5636 139.966 57.5636 139.966 57.3135 129.992 31.011 125.41 31.011ZM123.108 46.8685 127.621 34.5827 132.123 46.8685 123.108 46.8685Z" fill="#FFFFFF" fill-rule="nonzero" fill-opacity="1"/><path d="M173.442 57.5636 177.134 57.5636 177.134 31.011 172.952 31.011 166.929 42.7265C166.139 44.2273 165.479 45.5679 164.938 46.7385 164.408 47.909 163.988 48.9595 163.688 49.8899 163.137 48.2792 162.067 45.8881 160.446 42.7165L154.463 31.001 150.161 31.001 150.161 57.5536 153.763 57.5536 153.763 37.1939C153.953 37.6541 154.203 38.2144 154.523 38.8547 154.833 39.495 155.174 40.1553 155.524 40.8457L161.797 53.2615 165.439 53.2615 171.832 40.8457C172.482 39.565 173.022 38.3345 173.432 37.1539L173.432 57.5636Z" fill="#FFFFFF" fill-rule="nonzero" fill-opacity="1"/><path d="M189.99 31.011 193.762 31.011 193.762 57.5636 189.99 57.5636Z" fill="#FFFFFF" fill-rule="nonzero" fill-opacity="1"/><path d="M210.4 45.6379 225.067 45.6379 225.067 57.5636 228.829 57.5636 228.829 31.011 225.067 31.011 225.067 42.4464 210.4 42.4464 210.4 31.011 206.628 31.011 206.628 57.5636 210.4 57.5636Z" fill="#FFFFFF" fill-rule="nonzero" fill-opacity="1"/><path d="M263.575 57.3135 253.6 31.011 249.008 31.011 239.033 57.3135 239.033 57.5636 242.805 57.5636 245.557 49.98 256.862 49.98 259.643 57.5636 263.565 57.5636 263.565 57.3135ZM246.707 46.8685 251.219 34.5827 255.721 46.8685 246.707 46.8685Z" fill="#FFFFFF" fill-rule="nonzero" fill-opacity="1"/><path d="M295.57 31.011 291.969 31.011 291.969 52.191C291.809 51.8109 291.598 51.4107 291.358 50.9805 291.108 50.5603 290.808 50.09 290.458 49.5898 290.108 49.0896 289.868 48.7494 289.758 48.5893L277.752 31.011 273.78 31.011 273.78 57.5636 277.382 57.5636 277.382 36.5836C277.542 36.9438 277.732 37.294 277.932 37.6441 278.132 38.0043 278.382 38.3845 278.672 38.7947 278.962 39.2049 279.133 39.465 279.183 39.5751L279.713 40.3554 291.388 57.5636 295.57 57.5636 295.57 31.011Z" fill="#FFFFFF" fill-rule="nonzero" fill-opacity="1"/><path d="M113.954 72.0605 119.367 72.0605 119.567 70.5097 113.954 70.5097 113.954 66.3678 120.367 66.3678 120.367 64.767 112.073 64.767 112.073 78.0433 120.467 78.0433 120.467 76.4426 113.954 76.4426Z" fill="#FFFFFF" fill-rule="nonzero" fill-opacity="1"/><path d="M135.344 75.362C135.264 75.172 135.164 74.9719 135.034 74.7618 134.914 74.5517 134.764 74.3215 134.584 74.0614 134.404 73.8113 134.294 73.6412 134.234 73.5612L128.231 64.777 126.24 64.777 126.24 78.0533 128.041 78.0533 128.041 67.5583C128.121 67.7384 128.211 67.9085 128.321 68.0886 128.421 68.2687 128.541 68.4588 128.691 68.6589 128.831 68.859 128.921 68.989 128.951 69.049L129.221 69.4392 135.064 78.0433 137.155 78.0433 137.155 64.767 135.354 64.767 135.354 75.362Z" fill="#FFFFFF" fill-rule="nonzero" fill-opacity="1"/><path d="M142.268 66.4078 146.87 66.4078 146.87 78.0433 148.761 78.0433 148.761 66.4078 153.343 66.4078 153.343 64.767 142.268 64.767Z" fill="#FFFFFF" fill-rule="nonzero" fill-opacity="1"/><path d="M160.356 72.0605 165.759 72.0605 165.969 70.5097 160.356 70.5097 160.356 66.3678 166.759 66.3678 166.759 64.767 158.465 64.767 158.465 78.0433 166.869 78.0433 166.869 76.4426 160.356 76.4426Z" fill="#FFFFFF" fill-rule="nonzero" fill-opacity="1"/><path d="M180.326 71.8104C180.806 71.4202 181.166 70.96 181.396 70.4297 181.636 69.8995 181.756 69.3192 181.756 68.6889 181.756 67.9085 181.576 67.2282 181.216 66.6379 180.856 66.0476 180.316 65.5974 179.595 65.2673 178.875 64.9371 178.005 64.777 176.964 64.777L172.642 64.777 172.642 78.0533 174.523 78.0533 174.523 72.8709 176.494 72.8709 180.326 78.0533 182.497 78.0533 182.497 77.9333 178.545 72.6708C179.255 72.4807 179.845 72.1905 180.326 71.8104ZM174.523 71.3001 174.523 66.3678 176.924 66.3678C177.864 66.3678 178.585 66.5679 179.065 66.9781 179.545 67.3883 179.795 67.9785 179.795 68.7589 179.795 69.5693 179.535 70.1896 179.005 70.6298 178.475 71.07 177.704 71.3001 176.684 71.3001L174.523 71.3001Z" fill="#FFFFFF" fill-rule="nonzero" fill-opacity="1"/><path d="M185.798 66.4078 190.4 66.4078 190.4 78.0433 192.291 78.0433 192.291 66.4078 196.873 66.4078 196.873 64.767 185.798 64.767Z" fill="#FFFFFF" fill-rule="nonzero" fill-opacity="1"/><path d="M203.687 64.767 198.694 77.9132 198.694 78.0333 200.585 78.0333 201.956 74.2415 207.609 74.2415 208.999 78.0333 210.96 78.0333 210.96 77.9132 205.968 64.767 203.687 64.767ZM202.536 72.7008 204.797 66.5579 207.048 72.7008 202.536 72.7008Z" fill="#FFFFFF" fill-rule="nonzero" fill-opacity="1"/><path d="M216.073 64.767 217.953 64.767 217.953 78.0433 216.073 78.0433Z" fill="#FFFFFF" fill-rule="nonzero" fill-opacity="1"/><path d="M233.481 75.362C233.401 75.172 233.301 74.9719 233.171 74.7618 233.051 74.5517 232.901 74.3215 232.72 74.0614 232.54 73.8113 232.43 73.6412 232.37 73.5612L226.367 64.777 224.377 64.777 224.377 78.0533 226.177 78.0533 226.177 67.5583C226.257 67.7384 226.347 67.9085 226.458 68.0886 226.558 68.2687 226.678 68.4588 226.828 68.6589 226.968 68.859 227.058 68.989 227.088 69.049L227.358 69.4392 233.201 78.0433 235.292 78.0433 235.292 64.767 233.491 64.767 233.491 75.362Z" fill="#FFFFFF" fill-rule="nonzero" fill-opacity="1"/><path d="M250.089 70.6298C249.689 71.3801 249.358 72.0505 249.098 72.6407 248.828 73.231 248.628 73.7513 248.478 74.2215 248.208 73.4211 247.668 72.2206 246.857 70.6398L243.866 64.777 241.715 64.777 241.715 78.0533 243.516 78.0533 243.516 67.8585C243.616 68.0886 243.736 68.3687 243.896 68.6889 244.056 69.009 244.216 69.3392 244.396 69.6793L247.528 75.8823 249.348 75.8823 252.54 69.6793C252.87 69.039 253.13 68.4187 253.34 67.8385L253.34 78.0433 255.181 78.0433 255.181 64.767 253.09 64.767 250.089 70.6298Z" fill="#FFFFFF" fill-rule="nonzero" fill-opacity="1"/><path d="M263.515 72.0605 268.918 72.0605 269.128 70.5097 263.515 70.5097 263.515 66.3678 269.918 66.3678 269.918 64.767 261.624 64.767 261.624 78.0433 270.028 78.0433 270.028 76.4426 263.515 76.4426Z" fill="#FFFFFF" fill-rule="nonzero" fill-opacity="1"/><path d="M284.895 75.362C284.815 75.172 284.715 74.9719 284.585 74.7618 284.465 74.5517 284.315 74.3215 284.135 74.0614 283.955 73.8113 283.845 73.6412 283.785 73.5612L277.782 64.777 275.791 64.777 275.791 78.0533 277.592 78.0533 277.592 67.5583C277.672 67.7384 277.762 67.9085 277.872 68.0886 277.972 68.2687 278.092 68.4588 278.242 68.6589 278.382 68.859 278.472 68.989 278.502 69.049L278.772 69.4392 284.615 78.0433 286.706 78.0433 286.706 64.767 284.905 64.767 284.905 75.362Z" fill="#FFFFFF" fill-rule="nonzero" fill-opacity="1"/><path d="M291.819 64.767 291.819 66.4078 296.431 66.4078 296.431 78.0433 298.312 78.0433 298.312 66.4078 302.904 66.4078 302.904 64.767Z" fill="#FFFFFF" fill-rule="nonzero" fill-opacity="1"/></g></svg>