<svg width="624" height="209" xmlns="http://www.w3.org/2000/svg" xmlns:xlink="http://www.w3.org/1999/xlink" xml:space="preserve" overflow="hidden"><defs><clipPath id="clip0"><rect x="0" y="0" width="624" height="209"/></clipPath></defs><g clip-path="url(#clip0)"><path d="M46.6187 25.7696C52.9402 51.6686 56.1477 78.312 56.1145 105.134 56.1526 131.573 53.0389 157.839 46.8948 183.39L67.2235 195.127C74.8317 165.811 78.6864 135.572 78.6369 105.134 78.6843 74.315 74.731 43.6992 66.9332 14.041L46.6187 25.7696ZM3.84334 50.466C7.28293 68.4134 9.02061 86.7166 8.99285 105.134 9.02504 123.162 7.36368 141.081 4.0686 158.664L24.6565 170.551C29.2386 149.125 31.5539 127.198 31.5153 105.134 31.5493 82.6831 29.1488 60.3768 24.4054 38.5944L3.84334 50.466Z" fill="#FFFFFF" fill-rule="evenodd" fill-opacity="1" transform="scale(1.00459 1)"/><path d="M133.365 183.367C127.223 157.822 124.093 131.566 124.093 105.134 124.093 78.3182 127.314 51.6831 133.634 25.7883L113.329 14.0654C105.544 43.72 101.574 74.3238 101.574 105.134 101.574 135.562 105.446 165.79 113.042 195.101L133.365 183.367ZM176.18 158.647C172.875 141.069 171.193 123.157 171.193 105.134 171.193 86.72 172.948 68.4217 176.398 50.478L155.851 38.6157C151.104 60.3923 148.686 82.6898 148.686 105.134 148.686 127.19 151.022 149.106 155.608 170.525L176.18 158.647Z" fill="#FFFFFF" fill-rule="evenodd" fill-opacity="1" transform="scale(1.00459 1)"/><path d="M133.634 25.7883 113.329 14.0654C105.544 43.72 101.574 74.3238 101.574 105.134 101.574 135.562 105.446 165.79 113.042 195.101L133.365 183.367C127.223 157.822 124.093 131.566 124.093 105.134 124.093 78.3182 127.314 51.6831 133.634 25.7883ZM67.2235 195.127C74.8317 165.811 78.6864 135.572 78.6369 105.134 78.6843 74.315 74.731 43.6992 66.9332 14.041L46.6187 25.7696C52.9402 51.6686 56.1477 78.312 56.1145 105.134 56.1526 131.573 53.0389 157.839 46.8948 183.39L67.2235 195.127ZM3.84334 50.466 24.4054 38.5944C29.1488 60.3768 31.5493 82.6831 31.5153 105.134 31.5539 127.198 29.2386 149.125 24.6565 170.551L4.0686 158.664C7.36368 141.081 9.02504 123.162 8.99285 105.134 9.02061 86.7166 7.28293 68.4134 3.84334 50.466ZM176.18 158.647 155.608 170.525C151.022 149.106 148.686 127.19 148.686 105.134 148.686 82.6898 151.104 60.3923 155.851 38.6157L176.398 50.478C172.948 68.4217 171.193 86.72 171.193 105.134 171.193 123.157 172.875 141.069 176.18 158.647Z" fill="#FFFFFF" fill-rule="evenodd" fill-opacity="1" transform="scale(1.00459 1)"/><path d="M289.256 151.256 305.15 151.256 305.15 57.4692 289.256 57.4692 289.256 97.3731 243.377 97.3731 243.377 57.4692 227.483 57.4692 227.483 151.256 243.377 151.256 243.377 111.351 289.256 111.351 289.256 151.256Z" fill="#FFFFFF" fill-rule="nonzero" fill-opacity="1" transform="scale(1.00459 1)"/><path d="M313.12 117.1C313.12 138.518 324.957 152.383 349.53 152.383 370.61 152.383 381.657 141.899 383.348 127.584L383.46 126.682 366.665 126.682 366.552 128.373C365.537 134.121 360.803 139.194 349.643 139.194 334.989 139.194 329.014 130.74 329.014 118.114L384.024 118.114 384.024 112.027C384.024 89.2572 371.399 76.8577 349.53 76.8577 324.957 76.8577 313.12 90.7227 313.12 111.914L313.12 117.1ZM329.24 107.067C330.593 96.6968 336.68 90.0464 348.966 90.0464 360.013 90.0464 366.777 95.2321 368.13 105.038L368.13 107.067 329.24 107.067Z" fill="#FFFFFF" fill-rule="nonzero" fill-opacity="1" transform="scale(1.00459 1)"/><path d="M446.431 57.4692 446.431 87.6788C442.71 82.6067 435.384 76.8577 422.871 76.8577 403.032 76.8577 390.633 90.9484 390.633 110.45L390.633 118.453C390.633 138.292 402.919 152.383 423.097 152.383 435.61 152.383 442.936 146.521 446.431 141.336L446.431 151.256 461.648 151.256 461.648 57.4692 446.431 57.4692ZM406.301 118.114 406.301 111.126C406.301 99.6278 412.388 90.0464 426.253 90.0464 440.005 90.0464 446.431 99.4021 446.431 111.013L446.431 118.114C446.431 129.837 439.892 139.194 426.366 139.194 412.501 139.194 406.301 129.387 406.301 118.114Z" fill="#FFFFFF" fill-rule="nonzero" fill-opacity="1" transform="scale(1.00459 1)"/><path d="M526.134 149.452C526.134 159.935 523.879 164.219 513.96 164.219L474.507 164.219 474.507 177.408 516.327 177.408C535.603 177.408 541.352 168.164 541.352 150.917L541.352 77.9849 526.134 77.9849 526.134 87.6788C522.415 82.6067 515.087 76.8577 502.575 76.8577 482.736 76.8577 470.336 90.9484 470.336 110.45L470.336 118.453C470.336 138.292 482.623 152.383 502.8 152.383 515.313 152.383 522.64 146.521 526.134 141.336L526.134 149.452ZM486.004 118.114 486.004 111.126C486.004 99.6278 492.091 90.0464 505.956 90.0464 519.709 90.0464 526.134 99.4021 526.134 111.013L526.134 118.114C526.134 129.837 519.597 139.194 506.069 139.194 492.204 139.194 486.004 129.387 486.004 118.114Z" fill="#FFFFFF" fill-rule="nonzero" fill-opacity="1" transform="scale(1.00459 1)"/><path d="M550.04 117.1C550.04 138.518 561.876 152.383 586.449 152.383 607.529 152.383 618.576 141.899 620.267 127.584L620.379 126.682 603.584 126.682 603.471 128.373C602.456 134.121 597.722 139.194 586.562 139.194 571.908 139.194 565.934 130.74 565.934 118.114L620.943 118.114 620.943 112.027C620.943 89.2572 608.318 76.8577 586.449 76.8577 561.876 76.8577 550.04 90.7227 550.04 111.914L550.04 117.1ZM566.159 107.067C567.512 96.6968 573.599 90.0464 585.886 90.0464 596.932 90.0464 603.697 95.2321 605.049 105.038L605.049 107.067 566.159 107.067Z" fill="#FFFFFF" fill-rule="nonzero" fill-opacity="1" transform="scale(1.00459 1)"/></g></svg>