<svg width="511" height="528" viewBox="0 0 511 528" fill="none" xmlns="http://www.w3.org/2000/svg">
<g clip-path="url(#clip0_1753_5367)">
<g clip-path="url(#clip1_1753_5367)">
<path fill-rule="evenodd" clip-rule="evenodd" d="M255.385 0.0706534L255.261 0L255.137 0.0706534L24.1261 131.839L24 131.911V132.057V132.454V395.455V395.852V395.998L24.1261 396.069L255.137 527.839L255.261 527.91L255.385 527.839L486.396 396.069L486.522 395.998V395.852V395.455V132.454V132.057V131.911L486.396 131.839L255.385 0.0706534ZM486.022 132.309V132.202L428.773 99.5471V164.854L428.869 164.909L486.022 132.309ZM486.022 132.884L429.374 165.197L486.022 197.509V132.884ZM428.773 165.539L428.869 165.484L485.989 198.066L428.773 230.702V165.539ZM428.273 165.249V165.145L371.016 132.485V197.795L371.115 197.852L428.273 165.249ZM371.62 198.139L428.273 165.824V230.455L371.62 198.139ZM371.016 198.484L371.115 198.427L428.235 231.009L371.049 263.628L371.016 263.608V198.484ZM370.516 198.194V198.192V198.085L313.25 165.42V230.659L313.424 230.758L370.516 198.194ZM313.929 231.046L370.516 198.769V263.323L313.929 231.046ZM313.25 231.434L313.368 231.366L370.487 263.948L313.358 296.535L313.25 296.473V231.434ZM312.75 231.143V231.135V231.014L255.516 198.367V263.542L255.733 263.666L312.75 231.143ZM256.238 263.953L312.75 231.719V296.188L256.238 263.953ZM254.789 263.666L255.016 263.536V198.362L197.75 231.027V231.13L254.789 263.666ZM197.75 231.706L254.285 263.953L197.75 296.201V231.706ZM197.155 231.366L197.25 231.421V296.486L197.165 296.535L140.035 263.948L197.155 231.366ZM197.098 230.758L197.25 230.672V165.433L140 198.089V198.19L197.098 230.758ZM140 198.765L196.593 231.046L140 263.327V198.765ZM139.407 198.427L139.5 198.48V263.612L139.473 263.628L82.287 231.009L139.407 198.427ZM139.407 197.852L139.5 197.798V132.489L82.2656 165.135V165.253V165.258L139.407 197.852ZM82.2656 165.834L138.902 198.139L82.2656 230.445V165.834ZM81.6532 165.484L81.7656 165.549V230.711L24.533 198.066L81.6532 165.484ZM81.6532 164.909L81.7656 164.845V99.5374L24.5 132.202V132.309L81.6532 164.909ZM24.5 132.884L81.1486 165.197L24.5 197.509V132.884ZM254.789 264.241L255.016 264.37V329.533L197.75 296.869V296.776L254.789 264.241ZM255.516 264.365L255.733 264.241L312.75 296.764V296.766V296.881L255.516 329.528V264.365ZM371.619 263.953L428.273 231.637V296.268L371.619 263.953ZM371.615 329.765L428.273 297.447V362.083L371.615 329.765ZM371.111 330.053L428.273 362.658V362.76L371.016 395.42V330.107L371.111 330.053ZM371.016 395.996L428.273 363.336V428.647L371.016 461.307V395.996ZM486.022 395.707L428.773 428.362V363.051L428.867 362.997L486.022 395.598V395.707ZM428.867 362.421L428.773 362.368V297.195L485.997 329.835L428.867 362.421ZM428.802 296.57L428.773 296.553V231.352L428.805 231.334L485.988 263.951L428.802 296.57ZM82.2656 296.259V231.647L138.903 263.953L82.2656 296.259ZM138.907 329.765L82.2656 362.073V297.457L138.907 329.765ZM82.2656 362.653V362.649L139.411 330.053L139.5 330.103V395.416L82.2656 362.77V362.653ZM139.5 395.992L82.2656 363.345V428.657L139.5 461.304V395.992ZM140 461.589V396.277L197.25 428.933V494.245L140 461.589ZM197.75 494.53V429.218L255.016 461.882V527.195L197.75 494.53ZM255.516 527.189L312.75 494.543V429.23L255.516 461.877V527.189ZM370.516 461.593L313.25 494.257V428.945L370.516 396.281V461.593ZM370.516 330.392L313.25 363.057V428.37L370.516 395.705V330.392ZM370.516 329.817L313.25 362.481V297.247L313.424 297.148L370.516 329.713V329.817ZM370.516 329.138V264.582L313.928 296.86L370.516 329.138ZM371.016 264.297V329.423L371.111 329.477L428.24 296.89L371.058 264.273L371.016 264.297ZM255.516 395.988L312.75 363.342V428.655L255.516 461.301V395.988ZM255.516 395.413L312.75 362.766V297.532L255.516 330.179V395.413ZM255.016 330.184V395.418L197.75 362.753V297.52L255.016 330.184ZM255.016 395.993V461.306L197.75 428.642V363.329L255.016 395.993ZM197.25 428.357V363.044L140 330.388V395.702L197.25 428.357ZM197.25 362.468V297.234L197.099 297.148L140 329.717V329.813L197.25 362.468ZM140 329.141L196.594 296.86L140 264.579V329.141ZM139.5 264.293L139.464 264.273L82.2819 296.89L139.411 329.477L139.5 329.427V264.293ZM81.7656 297.185V362.358L81.6549 362.421L24.5256 329.835L81.7656 297.185ZM81.7656 231.361V296.544L81.72 296.57L24.5342 263.951L81.7171 231.334L81.7656 231.361ZM81.7656 428.372V363.06L81.6549 362.997L24.5 395.598V395.707L81.7656 428.372ZM81.2125 231.046L24.5 198.697V263.395L81.2125 231.046ZM486.022 198.697L429.31 231.046L486.022 263.395V198.697ZM486.022 264.507L429.307 296.858L486.022 329.208V264.507ZM24.5 264.507L81.2154 296.858L24.5 329.208V264.507ZM81.1503 362.709L24.5 330.396V395.023L81.1503 362.709ZM486.022 330.396L429.372 362.709L486.022 395.023V330.396ZM139.5 131.913L82.2656 164.559V99.2522L139.5 66.6058V131.913ZM140 197.513V132.203L197.25 99.548V164.857L140 197.513ZM140 131.628L197.25 98.9723V33.6651L140 66.3206V131.628ZM255.016 197.722L197.75 230.386V165.148L255.016 132.483V197.722ZM255.016 131.908L197.75 164.572V99.2628L255.016 66.5984V131.908ZM255.016 66.0228L197.75 98.6871V33.3799L255.016 0.715625V66.0228ZM255.516 197.727L312.75 230.374V165.135L255.516 132.488V197.727ZM255.516 131.913L312.75 164.56V99.2501L255.516 66.6036V131.913ZM255.516 66.028L312.75 98.6745V33.3673L255.516 0.720813V66.028ZM370.516 197.509L313.25 164.845V99.5353L370.516 132.2V197.509ZM370.516 131.624L313.25 98.9597V33.6525L370.516 66.3168V131.624ZM371.016 131.909L428.273 164.569V99.2619L371.016 66.602V131.909Z" fill="#4C71F3"/>
<path opacity="0.2" d="M255.5 132L370.248 197.75V329.25L255.5 395L140.752 329.25V197.75L255.5 132Z" fill="url(#paint0_linear_1753_5367)"/>
<path d="M267.551 236.929L243.255 236.874C240.886 236.925 238.861 238.097 237.694 240.118L235.36 244.161L246.648 263.799L243.783 268.883L238.445 259.701L235.712 264.436C238.532 269.256 241.269 274.098 244.089 278.918L252.473 264.396L241.957 246.125C241.707 245.697 241.542 245.247 241.544 244.752C241.573 243.35 242.66 242.205 244.092 242.181L266.575 242.182C267.513 242.155 268.448 242.624 268.947 243.48L273.884 252.004L279.963 252.039L273.137 240.154C271.942 238.046 269.921 236.879 267.551 236.929ZM248.519 247.29L256.865 261.825L278.137 261.836C278.548 261.861 278.982 261.969 279.301 262.154C280.525 262.86 280.982 264.401 280.245 265.678L269.036 285.094C268.597 285.976 267.764 286.558 266.721 286.523L256.839 286.563L253.799 291.829L267.558 291.83C269.897 291.832 271.921 290.661 273.088 288.639L279.169 278.107L285.25 267.574C286.417 265.553 286.42 263.214 285.279 261.137L282.935 257.088L260.231 257.101L257.343 252.03L267.911 252.031L265.197 247.272L248.519 247.29ZM225.563 261.13C224.365 263.204 224.363 265.543 225.535 267.567L231.59 278.085L237.699 288.634C238.871 290.658 240.893 291.825 243.231 291.828L247.909 291.834L259.242 272.205L265.131 272.201L259.818 281.403L265.296 281.374C268.091 276.534 270.855 271.746 273.65 266.905L256.888 266.945L246.301 285.16C246.109 285.616 245.756 285.98 245.359 286.177C244.107 286.872 242.562 286.477 241.867 285.224L230.594 265.807C230.064 265.005 230.046 263.93 230.537 263.079L235.451 254.568L232.412 249.267L225.563 261.13Z" fill="#D0E6FF"/>
<circle cx="255.26" cy="131.619" r="7.12698" fill="url(#paint1_linear_1753_5367)"/>
<circle cx="255.26" cy="395.322" r="7.12698" fill="#4C71F3"/>
<circle cx="141.236" cy="331.174" r="7.12698" fill="url(#paint2_linear_1753_5367)"/>
<circle cx="369.299" cy="331.174" r="7.12698" fill="url(#paint3_linear_1753_5367)"/>
<circle cx="141.236" cy="199.324" r="7.12698" fill="#4C71F3"/>
<circle cx="369.299" cy="199.324" r="7.12698" fill="#4C71F3"/>
</g>
<rect y="239" width="154" height="40" rx="20" fill="black" fill-opacity="0.4"/>
<path d="M27.984 257.952L24.464 252.672H26.896L29.232 256.544L31.536 252.672H33.856L30.4 258L34.464 264H31.92L29.152 259.552L26.496 264H24.064L27.984 257.952ZM38.6206 260.88H34.7806V259.248H38.6206V260.88ZM40.5136 252.672H44.4496C44.983 252.672 45.5003 252.731 46.0016 252.848C46.503 252.955 46.9456 253.136 47.3296 253.392C47.7243 253.648 48.039 253.984 48.2736 254.4C48.5083 254.816 48.6256 255.323 48.6256 255.92C48.6256 256.741 48.391 257.413 47.9216 257.936C47.463 258.448 46.8336 258.795 46.0336 258.976L49.0576 264H46.6256L44.0016 259.2H42.5296V264H40.5136V252.672ZM44.1776 257.552C44.4656 257.552 44.7536 257.531 45.0416 257.488C45.3296 257.445 45.5856 257.365 45.8096 257.248C46.0443 257.131 46.2363 256.965 46.3856 256.752C46.535 256.528 46.6096 256.245 46.6096 255.904C46.6096 255.595 46.5403 255.344 46.4016 255.152C46.263 254.949 46.087 254.789 45.8736 254.672C45.6603 254.555 45.415 254.475 45.1376 254.432C44.871 254.389 44.6096 254.368 44.3536 254.368H42.5296V257.552H44.1776ZM55.0606 263.024H55.0126C54.8206 263.365 54.5113 263.648 54.0846 263.872C53.658 264.085 53.1726 264.192 52.6286 264.192C52.3193 264.192 51.994 264.149 51.6526 264.064C51.322 263.989 51.0126 263.861 50.7246 263.68C50.4473 263.488 50.2126 263.243 50.0206 262.944C49.8393 262.635 49.7486 262.256 49.7486 261.808C49.7486 261.232 49.9086 260.773 50.2286 260.432C50.5593 260.091 50.9806 259.829 51.4926 259.648C52.0046 259.467 52.57 259.349 53.1886 259.296C53.818 259.232 54.4313 259.2 55.0286 259.2V259.008C55.0286 258.528 54.8526 258.176 54.5006 257.952C54.1593 257.717 53.7486 257.6 53.2686 257.6C52.8633 257.6 52.474 257.685 52.1006 257.856C51.7273 258.027 51.418 258.235 51.1726 258.48L50.1806 257.312C50.618 256.907 51.1193 256.603 51.6846 256.4C52.2606 256.197 52.842 256.096 53.4286 256.096C54.1113 256.096 54.6713 256.192 55.1086 256.384C55.5566 256.576 55.9086 256.827 56.1646 257.136C56.4206 257.445 56.5966 257.792 56.6926 258.176C56.7993 258.56 56.8526 258.944 56.8526 259.328V264H55.0606V263.024ZM55.0286 260.496H54.5966C54.2873 260.496 53.962 260.512 53.6206 260.544C53.2793 260.565 52.9646 260.624 52.6766 260.72C52.3886 260.805 52.1486 260.933 51.9566 261.104C51.7646 261.264 51.6686 261.488 51.6686 261.776C51.6686 261.957 51.706 262.112 51.7806 262.24C51.866 262.357 51.9726 262.453 52.1006 262.528C52.2286 262.603 52.3726 262.656 52.5326 262.688C52.6926 262.72 52.8526 262.736 53.0126 262.736C53.674 262.736 54.1753 262.56 54.5166 262.208C54.858 261.856 55.0286 261.376 55.0286 260.768V260.496ZM57.9375 256.32H60.0655L62.2095 261.904H62.2415L64.1455 256.32H66.1455L62.5135 265.648C62.3748 266 62.2255 266.309 62.0655 266.576C61.9055 266.853 61.7135 267.083 61.4895 267.264C61.2655 267.456 60.9988 267.6 60.6895 267.696C60.3908 267.792 60.0282 267.84 59.6015 267.84C59.4415 267.84 59.2762 267.829 59.1055 267.808C58.9455 267.797 58.7802 267.771 58.6095 267.728L58.7695 266.064C58.8975 266.107 59.0202 266.133 59.1375 266.144C59.2655 266.165 59.3828 266.176 59.4895 266.176C59.6922 266.176 59.8628 266.149 60.0015 266.096C60.1402 266.053 60.2575 265.979 60.3535 265.872C60.4495 265.776 60.5348 265.653 60.6095 265.504C60.6842 265.355 60.7642 265.179 60.8495 264.976L61.2335 264L57.9375 256.32ZM77.1646 255.04C76.9513 254.763 76.6473 254.533 76.2526 254.352C75.8686 254.16 75.4793 254.064 75.0846 254.064C74.85 254.064 74.6153 254.096 74.3806 254.16C74.146 254.213 73.9326 254.304 73.7406 254.432C73.5486 254.549 73.3886 254.709 73.2606 254.912C73.1433 255.104 73.0846 255.339 73.0846 255.616C73.0846 255.872 73.138 256.091 73.2446 256.272C73.3513 256.453 73.4953 256.608 73.6766 256.736C73.8686 256.864 74.098 256.976 74.3646 257.072C74.6313 257.168 74.9246 257.264 75.2446 257.36C75.6073 257.477 75.9806 257.611 76.3646 257.76C76.7593 257.909 77.1166 258.107 77.4366 258.352C77.7673 258.597 78.034 258.907 78.2366 259.28C78.45 259.653 78.5566 260.117 78.5566 260.672C78.5566 261.28 78.4446 261.813 78.2206 262.272C77.9966 262.72 77.698 263.093 77.3246 263.392C76.9513 263.691 76.514 263.915 76.0126 264.064C75.5113 264.213 74.9833 264.288 74.4286 264.288C73.6926 264.288 72.9726 264.155 72.2686 263.888C71.5646 263.611 70.9886 263.205 70.5406 262.672L71.9806 261.328C72.258 261.712 72.626 262.016 73.0846 262.24C73.554 262.464 74.0126 262.576 74.4606 262.576C74.6953 262.576 74.9353 262.549 75.1806 262.496C75.426 262.432 75.6446 262.331 75.8366 262.192C76.0393 262.053 76.1993 261.883 76.3166 261.68C76.4446 261.467 76.5086 261.205 76.5086 260.896C76.5086 260.597 76.4393 260.352 76.3006 260.16C76.162 259.957 75.9753 259.787 75.7406 259.648C75.506 259.499 75.2286 259.371 74.9086 259.264C74.5886 259.157 74.2526 259.045 73.9006 258.928C73.5593 258.821 73.218 258.693 72.8766 258.544C72.5353 258.395 72.226 258.197 71.9486 257.952C71.682 257.707 71.4633 257.408 71.2926 257.056C71.122 256.693 71.0366 256.245 71.0366 255.712C71.0366 255.136 71.154 254.64 71.3886 254.224C71.634 253.808 71.9486 253.467 72.3326 253.2C72.7273 252.923 73.17 252.72 73.6606 252.592C74.162 252.453 74.6686 252.384 75.1806 252.384C75.7566 252.384 76.338 252.485 76.9246 252.688C77.522 252.891 78.0393 253.195 78.4766 253.6L77.1646 255.04ZM85.7281 258.448C85.5788 258.235 85.3548 258.059 85.0561 257.92C84.7575 257.771 84.4535 257.696 84.1441 257.696C83.7921 257.696 83.4828 257.771 83.2161 257.92C82.9495 258.059 82.7255 258.245 82.5441 258.48C82.3735 258.715 82.2455 258.981 82.1601 259.28C82.0748 259.568 82.0321 259.861 82.0321 260.16C82.0321 260.459 82.0748 260.757 82.1601 261.056C82.2561 261.344 82.3948 261.605 82.5761 261.84C82.7575 262.075 82.9815 262.267 83.2481 262.416C83.5255 262.555 83.8455 262.624 84.2081 262.624C84.5068 262.624 84.8055 262.565 85.1041 262.448C85.4028 262.331 85.6428 262.16 85.8241 261.936L87.0241 263.152C86.7041 263.493 86.2935 263.76 85.7921 263.952C85.3015 264.133 84.7681 264.224 84.1921 264.224C83.6268 264.224 83.0881 264.133 82.5761 263.952C82.0748 263.771 81.6321 263.504 81.2481 263.152C80.8748 262.8 80.5761 262.373 80.3521 261.872C80.1388 261.371 80.0321 260.8 80.0321 260.16C80.0321 259.541 80.1388 258.981 80.3521 258.48C80.5761 257.979 80.8748 257.552 81.2481 257.2C81.6215 256.848 82.0535 256.576 82.5441 256.384C83.0455 256.192 83.5788 256.096 84.1441 256.096C84.7095 256.096 85.2535 256.203 85.7761 256.416C86.3095 256.629 86.7308 256.923 87.0401 257.296L85.7281 258.448ZM93.0606 263.024H93.0126C92.8206 263.365 92.5113 263.648 92.0846 263.872C91.658 264.085 91.1726 264.192 90.6286 264.192C90.3193 264.192 89.994 264.149 89.6526 264.064C89.322 263.989 89.0126 263.861 88.7246 263.68C88.4473 263.488 88.2126 263.243 88.0206 262.944C87.8393 262.635 87.7486 262.256 87.7486 261.808C87.7486 261.232 87.9086 260.773 88.2286 260.432C88.5593 260.091 88.9806 259.829 89.4926 259.648C90.0046 259.467 90.57 259.349 91.1886 259.296C91.818 259.232 92.4313 259.2 93.0286 259.2V259.008C93.0286 258.528 92.8526 258.176 92.5006 257.952C92.1593 257.717 91.7486 257.6 91.2686 257.6C90.8633 257.6 90.474 257.685 90.1006 257.856C89.7273 258.027 89.418 258.235 89.1726 258.48L88.1806 257.312C88.618 256.907 89.1193 256.603 89.6846 256.4C90.2606 256.197 90.842 256.096 91.4286 256.096C92.1113 256.096 92.6713 256.192 93.1086 256.384C93.5566 256.576 93.9086 256.827 94.1646 257.136C94.4206 257.445 94.5966 257.792 94.6926 258.176C94.7993 258.56 94.8526 258.944 94.8526 259.328V264H93.0606V263.024ZM93.0286 260.496H92.5966C92.2873 260.496 91.962 260.512 91.6206 260.544C91.2793 260.565 90.9646 260.624 90.6766 260.72C90.3886 260.805 90.1486 260.933 89.9566 261.104C89.7646 261.264 89.6686 261.488 89.6686 261.776C89.6686 261.957 89.706 262.112 89.7806 262.24C89.866 262.357 89.9726 262.453 90.1006 262.528C90.2286 262.603 90.3726 262.656 90.5326 262.688C90.6926 262.72 90.8526 262.736 91.0126 262.736C91.674 262.736 92.1753 262.56 92.5166 262.208C92.858 261.856 93.0286 261.376 93.0286 260.768V260.496ZM97.0895 256.32H98.9135V257.552H98.9455C99.1162 257.168 99.4095 256.832 99.8255 256.544C100.252 256.245 100.754 256.096 101.33 256.096C101.831 256.096 102.258 256.187 102.61 256.368C102.972 256.539 103.266 256.768 103.49 257.056C103.724 257.344 103.895 257.675 104.002 258.048C104.108 258.421 104.161 258.805 104.161 259.2V264H102.242V259.744C102.242 259.52 102.226 259.285 102.194 259.04C102.162 258.795 102.092 258.576 101.986 258.384C101.879 258.181 101.73 258.016 101.538 257.888C101.356 257.76 101.111 257.696 100.802 257.696C100.492 257.696 100.226 257.76 100.002 257.888C99.7775 258.005 99.5908 258.16 99.4415 258.352C99.3028 258.544 99.1962 258.768 99.1215 259.024C99.0468 259.269 99.0095 259.52 99.0095 259.776V264H97.0895V256.32ZM106.402 256.32H108.226V257.552H108.258C108.429 257.168 108.722 256.832 109.138 256.544C109.565 256.245 110.066 256.096 110.642 256.096C111.143 256.096 111.57 256.187 111.922 256.368C112.285 256.539 112.578 256.768 112.802 257.056C113.037 257.344 113.207 257.675 113.314 258.048C113.421 258.421 113.474 258.805 113.474 259.2V264H111.554V259.744C111.554 259.52 111.538 259.285 111.506 259.04C111.474 258.795 111.405 258.576 111.298 258.384C111.191 258.181 111.042 258.016 110.85 257.888C110.669 257.76 110.423 257.696 110.114 257.696C109.805 257.696 109.538 257.76 109.314 257.888C109.09 258.005 108.903 258.16 108.754 258.352C108.615 258.544 108.509 258.768 108.434 259.024C108.359 259.269 108.322 259.52 108.322 259.776V264H106.402V256.32ZM121.123 259.392C121.123 259.147 121.085 258.912 121.011 258.688C120.947 258.464 120.84 258.267 120.691 258.096C120.541 257.925 120.349 257.792 120.115 257.696C119.891 257.589 119.624 257.536 119.315 257.536C118.739 257.536 118.248 257.712 117.843 258.064C117.448 258.405 117.229 258.848 117.187 259.392H121.123ZM123.043 260.256C123.043 260.341 123.043 260.427 123.043 260.512C123.043 260.597 123.037 260.683 123.027 260.768H117.187C117.208 261.045 117.277 261.301 117.395 261.536C117.523 261.76 117.688 261.957 117.891 262.128C118.093 262.288 118.323 262.416 118.579 262.512C118.835 262.608 119.101 262.656 119.379 262.656C119.859 262.656 120.264 262.571 120.595 262.4C120.925 262.219 121.197 261.973 121.411 261.664L122.691 262.688C121.933 263.712 120.835 264.224 119.395 264.224C118.797 264.224 118.248 264.133 117.747 263.952C117.245 263.76 116.808 263.493 116.435 263.152C116.072 262.811 115.784 262.395 115.571 261.904C115.368 261.403 115.267 260.837 115.267 260.208C115.267 259.589 115.368 259.029 115.571 258.528C115.784 258.016 116.072 257.584 116.435 257.232C116.797 256.869 117.224 256.592 117.715 256.4C118.216 256.197 118.755 256.096 119.331 256.096C119.864 256.096 120.355 256.187 120.803 256.368C121.261 256.539 121.656 256.8 121.987 257.152C122.317 257.493 122.573 257.925 122.755 258.448C122.947 258.96 123.043 259.563 123.043 260.256ZM124.902 256.32H126.742V257.6H126.774C126.987 257.152 127.286 256.789 127.67 256.512C128.054 256.235 128.502 256.096 129.014 256.096C129.089 256.096 129.169 256.101 129.254 256.112C129.339 256.112 129.414 256.123 129.478 256.144V257.904C129.35 257.872 129.238 257.851 129.142 257.84C129.057 257.829 128.971 257.824 128.886 257.824C128.449 257.824 128.097 257.904 127.83 258.064C127.563 258.224 127.355 258.416 127.206 258.64C127.057 258.864 126.955 259.093 126.902 259.328C126.849 259.563 126.822 259.749 126.822 259.888V264H124.902V256.32Z" fill="white"/>
<rect x="326" y="111" width="145" height="40" rx="20" fill="black" fill-opacity="0.4"/>
<path d="M351.248 124.672H353.264V134.208H358.08V136H351.248V124.672ZM364.092 135.024H364.044C363.852 135.365 363.543 135.648 363.116 135.872C362.689 136.085 362.204 136.192 361.66 136.192C361.351 136.192 361.025 136.149 360.684 136.064C360.353 135.989 360.044 135.861 359.756 135.68C359.479 135.488 359.244 135.243 359.052 134.944C358.871 134.635 358.78 134.256 358.78 133.808C358.78 133.232 358.94 132.773 359.26 132.432C359.591 132.091 360.012 131.829 360.524 131.648C361.036 131.467 361.601 131.349 362.22 131.296C362.849 131.232 363.463 131.2 364.06 131.2V131.008C364.06 130.528 363.884 130.176 363.532 129.952C363.191 129.717 362.78 129.6 362.3 129.6C361.895 129.6 361.505 129.685 361.132 129.856C360.759 130.027 360.449 130.235 360.204 130.48L359.212 129.312C359.649 128.907 360.151 128.603 360.716 128.4C361.292 128.197 361.873 128.096 362.46 128.096C363.143 128.096 363.703 128.192 364.14 128.384C364.588 128.576 364.94 128.827 365.196 129.136C365.452 129.445 365.628 129.792 365.724 130.176C365.831 130.56 365.884 130.944 365.884 131.328V136H364.092V135.024ZM364.06 132.496H363.628C363.319 132.496 362.993 132.512 362.652 132.544C362.311 132.565 361.996 132.624 361.708 132.72C361.42 132.805 361.18 132.933 360.988 133.104C360.796 133.264 360.7 133.488 360.7 133.776C360.7 133.957 360.737 134.112 360.812 134.24C360.897 134.357 361.004 134.453 361.132 134.528C361.26 134.603 361.404 134.656 361.564 134.688C361.724 134.72 361.884 134.736 362.044 134.736C362.705 134.736 363.207 134.56 363.548 134.208C363.889 133.856 364.06 133.376 364.06 132.768V132.496ZM375.129 136H373.305V134.768H373.273C373.102 135.152 372.803 135.493 372.377 135.792C371.961 136.08 371.465 136.224 370.889 136.224C370.387 136.224 369.955 136.139 369.593 135.968C369.241 135.787 368.947 135.552 368.713 135.264C368.489 134.976 368.323 134.645 368.217 134.272C368.11 133.899 368.057 133.515 368.057 133.12V128.32H369.977V132.576C369.977 132.8 369.993 133.035 370.025 133.28C370.057 133.525 370.126 133.749 370.233 133.952C370.339 134.144 370.483 134.304 370.665 134.432C370.857 134.56 371.107 134.624 371.417 134.624C371.715 134.624 371.977 134.565 372.201 134.448C372.435 134.32 372.622 134.16 372.761 133.968C372.91 133.776 373.022 133.557 373.097 133.312C373.171 133.056 373.209 132.8 373.209 132.544V128.32H375.129V136ZM377.433 128.32H379.257V129.552H379.289C379.46 129.168 379.753 128.832 380.169 128.544C380.596 128.245 381.097 128.096 381.673 128.096C382.175 128.096 382.601 128.187 382.953 128.368C383.316 128.539 383.609 128.768 383.833 129.056C384.068 129.344 384.239 129.675 384.345 130.048C384.452 130.421 384.505 130.805 384.505 131.2V136H382.585V131.744C382.585 131.52 382.569 131.285 382.537 131.04C382.505 130.795 382.436 130.576 382.329 130.384C382.223 130.181 382.073 130.016 381.881 129.888C381.7 129.76 381.455 129.696 381.145 129.696C380.836 129.696 380.569 129.76 380.345 129.888C380.121 130.005 379.935 130.16 379.785 130.352C379.647 130.544 379.54 130.768 379.465 131.024C379.391 131.269 379.353 131.52 379.353 131.776V136H377.433V128.32ZM391.994 130.448C391.844 130.235 391.62 130.059 391.322 129.92C391.023 129.771 390.719 129.696 390.41 129.696C390.058 129.696 389.748 129.771 389.482 129.92C389.215 130.059 388.991 130.245 388.81 130.48C388.639 130.715 388.511 130.981 388.426 131.28C388.34 131.568 388.298 131.861 388.298 132.16C388.298 132.459 388.34 132.757 388.426 133.056C388.522 133.344 388.66 133.605 388.842 133.84C389.023 134.075 389.247 134.267 389.514 134.416C389.791 134.555 390.111 134.624 390.474 134.624C390.772 134.624 391.071 134.565 391.37 134.448C391.668 134.331 391.908 134.16 392.09 133.936L393.29 135.152C392.97 135.493 392.559 135.76 392.058 135.952C391.567 136.133 391.034 136.224 390.458 136.224C389.892 136.224 389.354 136.133 388.842 135.952C388.34 135.771 387.898 135.504 387.514 135.152C387.14 134.8 386.842 134.373 386.618 133.872C386.404 133.371 386.298 132.8 386.298 132.16C386.298 131.541 386.404 130.981 386.618 130.48C386.842 129.979 387.14 129.552 387.514 129.2C387.887 128.848 388.319 128.576 388.81 128.384C389.311 128.192 389.844 128.096 390.41 128.096C390.975 128.096 391.519 128.203 392.042 128.416C392.575 128.629 392.996 128.923 393.306 129.296L391.994 130.448ZM398.83 128.096C399.332 128.096 399.758 128.187 400.11 128.368C400.473 128.539 400.766 128.768 400.99 129.056C401.225 129.344 401.396 129.675 401.502 130.048C401.609 130.421 401.662 130.805 401.662 131.2V136H399.742V131.776C399.742 131.552 399.726 131.323 399.694 131.088C399.662 130.843 399.593 130.624 399.486 130.432C399.39 130.229 399.246 130.064 399.054 129.936C398.873 129.808 398.628 129.744 398.318 129.744C398.009 129.744 397.742 129.803 397.518 129.92C397.294 130.037 397.108 130.197 396.958 130.4C396.809 130.592 396.697 130.811 396.622 131.056C396.548 131.301 396.51 131.552 396.51 131.808V136H394.59V123.904H396.51V129.392H396.542C396.617 129.232 396.724 129.077 396.862 128.928C397.012 128.768 397.182 128.629 397.374 128.512C397.566 128.384 397.785 128.283 398.03 128.208C398.276 128.133 398.542 128.096 398.83 128.096ZM411.269 124.672H413.013L417.893 136H415.589L414.533 133.408H409.621L408.597 136H406.341L411.269 124.672ZM413.829 131.68L412.085 127.072L410.309 131.68H413.829ZM425.926 136H424.102V134.768H424.07C423.899 135.152 423.6 135.493 423.174 135.792C422.758 136.08 422.262 136.224 421.686 136.224C421.184 136.224 420.752 136.139 420.39 135.968C420.038 135.787 419.744 135.552 419.51 135.264C419.286 134.976 419.12 134.645 419.014 134.272C418.907 133.899 418.854 133.515 418.854 133.12V128.32H420.774V132.576C420.774 132.8 420.79 133.035 420.822 133.28C420.854 133.525 420.923 133.749 421.03 133.952C421.136 134.144 421.28 134.304 421.462 134.432C421.654 134.56 421.904 134.624 422.214 134.624C422.512 134.624 422.774 134.565 422.998 134.448C423.232 134.32 423.419 134.16 423.558 133.968C423.707 133.776 423.819 133.557 423.894 133.312C423.968 133.056 424.006 132.8 424.006 132.544V128.32H425.926V136ZM436.038 136H434.214V134.848H434.182C433.915 135.296 433.542 135.637 433.062 135.872C432.593 136.107 432.086 136.224 431.542 136.224C430.955 136.224 430.427 136.117 429.958 135.904C429.499 135.68 429.105 135.387 428.774 135.024C428.454 134.651 428.203 134.219 428.022 133.728C427.851 133.227 427.766 132.693 427.766 132.128C427.766 131.563 427.857 131.035 428.038 130.544C428.219 130.053 428.475 129.627 428.806 129.264C429.137 128.901 429.531 128.619 429.99 128.416C430.449 128.203 430.95 128.096 431.494 128.096C431.846 128.096 432.161 128.139 432.438 128.224C432.715 128.299 432.955 128.395 433.158 128.512C433.371 128.629 433.553 128.757 433.702 128.896C433.851 129.035 433.974 129.168 434.07 129.296H434.118V123.904H436.038V136ZM429.718 132.128C429.718 132.427 429.761 132.725 429.846 133.024C429.942 133.323 430.081 133.589 430.262 133.824C430.443 134.059 430.673 134.251 430.95 134.4C431.227 134.549 431.553 134.624 431.926 134.624C432.278 134.624 432.593 134.555 432.87 134.416C433.147 134.267 433.382 134.075 433.574 133.84C433.777 133.605 433.926 133.344 434.022 133.056C434.129 132.757 434.182 132.459 434.182 132.16C434.182 131.861 434.129 131.563 434.022 131.264C433.926 130.965 433.777 130.699 433.574 130.464C433.382 130.229 433.147 130.037 432.87 129.888C432.593 129.739 432.278 129.664 431.926 129.664C431.553 129.664 431.227 129.739 430.95 129.888C430.673 130.027 430.443 130.213 430.262 130.448C430.081 130.683 429.942 130.949 429.846 131.248C429.761 131.536 429.718 131.829 429.718 132.128ZM438.403 128.32H440.323V136H438.403V128.32ZM438.131 125.712C438.131 125.403 438.243 125.136 438.467 124.912C438.701 124.677 438.995 124.56 439.347 124.56C439.699 124.56 439.992 124.672 440.227 124.896C440.472 125.109 440.595 125.381 440.595 125.712C440.595 126.043 440.472 126.32 440.227 126.544C439.992 126.757 439.699 126.864 439.347 126.864C438.995 126.864 438.701 126.752 438.467 126.528C438.243 126.293 438.131 126.021 438.131 125.712ZM441.548 129.856V128.32H442.892V126.096H444.78V128.32H446.7V129.856H444.78V133.424C444.78 133.765 444.839 134.048 444.956 134.272C445.084 134.496 445.361 134.608 445.788 134.608C445.916 134.608 446.055 134.597 446.204 134.576C446.353 134.544 446.487 134.501 446.604 134.448L446.668 135.952C446.497 136.016 446.295 136.064 446.06 136.096C445.825 136.139 445.601 136.16 445.388 136.16C444.876 136.16 444.46 136.091 444.14 135.952C443.82 135.803 443.564 135.605 443.372 135.36C443.191 135.104 443.063 134.816 442.988 134.496C442.924 134.165 442.892 133.813 442.892 133.44V129.856H441.548Z" fill="white"/>
<rect x="239" y="442" width="204" height="40" rx="20" fill="black" fill-opacity="0.4"/>
<path d="M263.096 455.672H265.304L267.496 463.992H267.528L270.024 455.672H272.104L274.552 463.992H274.584L276.824 455.672H278.968L275.656 467H273.704L271.048 458.504H271.016L268.36 467H266.408L263.096 455.672ZM284.404 466.024H284.356C284.164 466.365 283.855 466.648 283.428 466.872C283.002 467.085 282.516 467.192 281.972 467.192C281.663 467.192 281.338 467.149 280.996 467.064C280.666 466.989 280.356 466.861 280.068 466.68C279.791 466.488 279.556 466.243 279.364 465.944C279.183 465.635 279.092 465.256 279.092 464.808C279.092 464.232 279.252 463.773 279.572 463.432C279.903 463.091 280.324 462.829 280.836 462.648C281.348 462.467 281.914 462.349 282.532 462.296C283.162 462.232 283.775 462.2 284.372 462.2V462.008C284.372 461.528 284.196 461.176 283.844 460.952C283.503 460.717 283.092 460.6 282.612 460.6C282.207 460.6 281.818 460.685 281.444 460.856C281.071 461.027 280.762 461.235 280.516 461.48L279.524 460.312C279.962 459.907 280.463 459.603 281.028 459.4C281.604 459.197 282.186 459.096 282.772 459.096C283.455 459.096 284.015 459.192 284.452 459.384C284.9 459.576 285.252 459.827 285.508 460.136C285.764 460.445 285.94 460.792 286.036 461.176C286.143 461.56 286.196 461.944 286.196 462.328V467H284.404V466.024ZM284.372 463.496H283.94C283.631 463.496 283.306 463.512 282.964 463.544C282.623 463.565 282.308 463.624 282.02 463.72C281.732 463.805 281.492 463.933 281.3 464.104C281.108 464.264 281.012 464.488 281.012 464.776C281.012 464.957 281.05 465.112 281.124 465.24C281.21 465.357 281.316 465.453 281.444 465.528C281.572 465.603 281.716 465.656 281.876 465.688C282.036 465.72 282.196 465.736 282.356 465.736C283.018 465.736 283.519 465.56 283.86 465.208C284.202 464.856 284.372 464.376 284.372 463.768V463.496ZM287.173 460.856V459.32H288.517V457.096H290.405V459.32H292.325V460.856H290.405V464.424C290.405 464.765 290.464 465.048 290.581 465.272C290.709 465.496 290.986 465.608 291.413 465.608C291.541 465.608 291.68 465.597 291.829 465.576C291.978 465.544 292.112 465.501 292.229 465.448L292.293 466.952C292.122 467.016 291.92 467.064 291.685 467.096C291.45 467.139 291.226 467.16 291.013 467.16C290.501 467.16 290.085 467.091 289.765 466.952C289.445 466.803 289.189 466.605 288.997 466.36C288.816 466.104 288.688 465.816 288.613 465.496C288.549 465.165 288.517 464.813 288.517 464.44V460.856H287.173ZM298.963 461.448C298.813 461.235 298.589 461.059 298.291 460.92C297.992 460.771 297.688 460.696 297.379 460.696C297.027 460.696 296.717 460.771 296.451 460.92C296.184 461.059 295.96 461.245 295.779 461.48C295.608 461.715 295.48 461.981 295.395 462.28C295.309 462.568 295.267 462.861 295.267 463.16C295.267 463.459 295.309 463.757 295.395 464.056C295.491 464.344 295.629 464.605 295.811 464.84C295.992 465.075 296.216 465.267 296.483 465.416C296.76 465.555 297.08 465.624 297.443 465.624C297.741 465.624 298.04 465.565 298.339 465.448C298.637 465.331 298.877 465.16 299.059 464.936L300.259 466.152C299.939 466.493 299.528 466.76 299.027 466.952C298.536 467.133 298.003 467.224 297.427 467.224C296.861 467.224 296.323 467.133 295.811 466.952C295.309 466.771 294.867 466.504 294.483 466.152C294.109 465.8 293.811 465.373 293.587 464.872C293.373 464.371 293.267 463.8 293.267 463.16C293.267 462.541 293.373 461.981 293.587 461.48C293.811 460.979 294.109 460.552 294.483 460.2C294.856 459.848 295.288 459.576 295.779 459.384C296.28 459.192 296.813 459.096 297.379 459.096C297.944 459.096 298.488 459.203 299.011 459.416C299.544 459.629 299.965 459.923 300.275 460.296L298.963 461.448ZM305.799 459.096C306.3 459.096 306.727 459.187 307.079 459.368C307.442 459.539 307.735 459.768 307.959 460.056C308.194 460.344 308.364 460.675 308.471 461.048C308.578 461.421 308.631 461.805 308.631 462.2V467H306.711V462.776C306.711 462.552 306.695 462.323 306.663 462.088C306.631 461.843 306.562 461.624 306.455 461.432C306.359 461.229 306.215 461.064 306.023 460.936C305.842 460.808 305.596 460.744 305.287 460.744C304.978 460.744 304.711 460.803 304.487 460.92C304.263 461.037 304.076 461.197 303.927 461.4C303.778 461.592 303.666 461.811 303.591 462.056C303.516 462.301 303.479 462.552 303.479 462.808V467H301.559V454.904H303.479V460.392H303.511C303.586 460.232 303.692 460.077 303.831 459.928C303.98 459.768 304.151 459.629 304.343 459.512C304.535 459.384 304.754 459.283 304.999 459.208C305.244 459.133 305.511 459.096 305.799 459.096ZM313.255 457.432H309.783V455.672H318.743V457.432H315.271V467H313.255V457.432ZM317.985 463.128C317.985 462.52 318.092 461.971 318.305 461.48C318.529 460.979 318.828 460.552 319.201 460.2C319.575 459.848 320.017 459.576 320.529 459.384C321.041 459.192 321.585 459.096 322.161 459.096C322.737 459.096 323.281 459.192 323.793 459.384C324.305 459.576 324.748 459.848 325.121 460.2C325.495 460.552 325.788 460.979 326.001 461.48C326.225 461.971 326.337 462.52 326.337 463.128C326.337 463.736 326.225 464.291 326.001 464.792C325.788 465.293 325.495 465.725 325.121 466.088C324.748 466.44 324.305 466.717 323.793 466.92C323.281 467.123 322.737 467.224 322.161 467.224C321.585 467.224 321.041 467.123 320.529 466.92C320.017 466.717 319.575 466.44 319.201 466.088C318.828 465.725 318.529 465.293 318.305 464.792C318.092 464.291 317.985 463.736 317.985 463.128ZM319.937 463.128C319.937 463.427 319.98 463.725 320.065 464.024C320.161 464.323 320.3 464.589 320.481 464.824C320.663 465.059 320.892 465.251 321.169 465.4C321.447 465.549 321.777 465.624 322.161 465.624C322.545 465.624 322.876 465.549 323.153 465.4C323.431 465.251 323.66 465.059 323.841 464.824C324.023 464.589 324.156 464.323 324.241 464.024C324.337 463.725 324.385 463.427 324.385 463.128C324.385 462.829 324.337 462.536 324.241 462.248C324.156 461.949 324.023 461.683 323.841 461.448C323.66 461.213 323.431 461.027 323.153 460.888C322.876 460.739 322.545 460.664 322.161 460.664C321.777 460.664 321.447 460.739 321.169 460.888C320.892 461.027 320.663 461.213 320.481 461.448C320.3 461.683 320.161 461.949 320.065 462.248C319.98 462.536 319.937 462.829 319.937 463.128ZM327.111 459.32H329.191L330.791 464.824H330.823L332.471 459.32H334.519L336.183 464.824H336.215L337.847 459.32H339.847L337.191 467H335.239L333.495 461.624H333.463L331.735 467H329.783L327.111 459.32ZM346.466 462.392C346.466 462.147 346.429 461.912 346.354 461.688C346.29 461.464 346.184 461.267 346.034 461.096C345.885 460.925 345.693 460.792 345.458 460.696C345.234 460.589 344.968 460.536 344.658 460.536C344.082 460.536 343.592 460.712 343.186 461.064C342.792 461.405 342.573 461.848 342.53 462.392H346.466ZM348.386 463.256C348.386 463.341 348.386 463.427 348.386 463.512C348.386 463.597 348.381 463.683 348.37 463.768H342.53C342.552 464.045 342.621 464.301 342.738 464.536C342.866 464.76 343.032 464.957 343.234 465.128C343.437 465.288 343.666 465.416 343.922 465.512C344.178 465.608 344.445 465.656 344.722 465.656C345.202 465.656 345.608 465.571 345.938 465.4C346.269 465.219 346.541 464.973 346.754 464.664L348.034 465.688C347.277 466.712 346.178 467.224 344.738 467.224C344.141 467.224 343.592 467.133 343.09 466.952C342.589 466.76 342.152 466.493 341.778 466.152C341.416 465.811 341.128 465.395 340.914 464.904C340.712 464.403 340.61 463.837 340.61 463.208C340.61 462.589 340.712 462.029 340.914 461.528C341.128 461.016 341.416 460.584 341.778 460.232C342.141 459.869 342.568 459.592 343.058 459.4C343.56 459.197 344.098 459.096 344.674 459.096C345.208 459.096 345.698 459.187 346.146 459.368C346.605 459.539 347 459.8 347.33 460.152C347.661 460.493 347.917 460.925 348.098 461.448C348.29 461.96 348.386 462.563 348.386 463.256ZM350.246 459.32H352.086V460.6H352.118C352.331 460.152 352.63 459.789 353.014 459.512C353.398 459.235 353.846 459.096 354.358 459.096C354.432 459.096 354.512 459.101 354.598 459.112C354.683 459.112 354.758 459.123 354.822 459.144V460.904C354.694 460.872 354.582 460.851 354.486 460.84C354.4 460.829 354.315 460.824 354.23 460.824C353.792 460.824 353.44 460.904 353.174 461.064C352.907 461.224 352.699 461.416 352.55 461.64C352.4 461.864 352.299 462.093 352.246 462.328C352.192 462.563 352.166 462.749 352.166 462.888V467H350.246V459.32ZM360.17 455.672H363.322L366.266 463.72H366.314L369.226 455.672H372.394V467H370.394V457.896H370.362L366.922 467H365.514L362.122 457.896H362.09V467H360.17V455.672ZM374.345 463.128C374.345 462.52 374.451 461.971 374.665 461.48C374.889 460.979 375.187 460.552 375.561 460.2C375.934 459.848 376.377 459.576 376.889 459.384C377.401 459.192 377.945 459.096 378.521 459.096C379.097 459.096 379.641 459.192 380.153 459.384C380.665 459.576 381.107 459.848 381.481 460.2C381.854 460.552 382.147 460.979 382.361 461.48C382.585 461.971 382.697 462.52 382.697 463.128C382.697 463.736 382.585 464.291 382.361 464.792C382.147 465.293 381.854 465.725 381.481 466.088C381.107 466.44 380.665 466.717 380.153 466.92C379.641 467.123 379.097 467.224 378.521 467.224C377.945 467.224 377.401 467.123 376.889 466.92C376.377 466.717 375.934 466.44 375.561 466.088C375.187 465.725 374.889 465.293 374.665 464.792C374.451 464.291 374.345 463.736 374.345 463.128ZM376.297 463.128C376.297 463.427 376.339 463.725 376.425 464.024C376.521 464.323 376.659 464.589 376.841 464.824C377.022 465.059 377.251 465.251 377.529 465.4C377.806 465.549 378.137 465.624 378.521 465.624C378.905 465.624 379.235 465.549 379.513 465.4C379.79 465.251 380.019 465.059 380.201 464.824C380.382 464.589 380.515 464.323 380.601 464.024C380.697 463.725 380.745 463.427 380.745 463.128C380.745 462.829 380.697 462.536 380.601 462.248C380.515 461.949 380.382 461.683 380.201 461.448C380.019 461.213 379.79 461.027 379.513 460.888C379.235 460.739 378.905 460.664 378.521 460.664C378.137 460.664 377.806 460.739 377.529 460.888C377.251 461.027 377.022 461.213 376.841 461.448C376.659 461.683 376.521 461.949 376.425 462.248C376.339 462.536 376.297 462.829 376.297 463.128ZM384.558 459.32H386.382V460.552H386.414C386.585 460.168 386.878 459.832 387.294 459.544C387.721 459.245 388.222 459.096 388.798 459.096C389.3 459.096 389.726 459.187 390.078 459.368C390.441 459.539 390.734 459.768 390.958 460.056C391.193 460.344 391.364 460.675 391.47 461.048C391.577 461.421 391.63 461.805 391.63 462.2V467H389.71V462.744C389.71 462.52 389.694 462.285 389.662 462.04C389.63 461.795 389.561 461.576 389.454 461.384C389.348 461.181 389.198 461.016 389.006 460.888C388.825 460.76 388.58 460.696 388.27 460.696C387.961 460.696 387.694 460.76 387.47 460.888C387.246 461.005 387.06 461.16 386.91 461.352C386.772 461.544 386.665 461.768 386.59 462.024C386.516 462.269 386.478 462.52 386.478 462.776V467H384.558V459.32ZM393.903 459.32H395.823V467H393.903V459.32ZM393.631 456.712C393.631 456.403 393.743 456.136 393.967 455.912C394.201 455.677 394.495 455.56 394.847 455.56C395.199 455.56 395.492 455.672 395.727 455.896C395.972 456.109 396.095 456.381 396.095 456.712C396.095 457.043 395.972 457.32 395.727 457.544C395.492 457.757 395.199 457.864 394.847 457.864C394.495 457.864 394.201 457.752 393.967 457.528C393.743 457.293 393.631 457.021 393.631 456.712ZM397.048 460.856V459.32H398.392V457.096H400.28V459.32H402.2V460.856H400.28V464.424C400.28 464.765 400.339 465.048 400.456 465.272C400.584 465.496 400.861 465.608 401.288 465.608C401.416 465.608 401.555 465.597 401.704 465.576C401.853 465.544 401.987 465.501 402.104 465.448L402.168 466.952C401.997 467.016 401.795 467.064 401.56 467.096C401.325 467.139 401.101 467.16 400.888 467.16C400.376 467.16 399.96 467.091 399.64 466.952C399.32 466.803 399.064 466.605 398.872 466.36C398.691 466.104 398.563 465.816 398.488 465.496C398.424 465.165 398.392 464.813 398.392 464.44V460.856H397.048ZM403.142 463.128C403.142 462.52 403.248 461.971 403.462 461.48C403.686 460.979 403.984 460.552 404.358 460.2C404.731 459.848 405.174 459.576 405.686 459.384C406.198 459.192 406.742 459.096 407.318 459.096C407.894 459.096 408.438 459.192 408.95 459.384C409.462 459.576 409.904 459.848 410.278 460.2C410.651 460.552 410.944 460.979 411.158 461.48C411.382 461.971 411.494 462.52 411.494 463.128C411.494 463.736 411.382 464.291 411.158 464.792C410.944 465.293 410.651 465.725 410.278 466.088C409.904 466.44 409.462 466.717 408.95 466.92C408.438 467.123 407.894 467.224 407.318 467.224C406.742 467.224 406.198 467.123 405.686 466.92C405.174 466.717 404.731 466.44 404.358 466.088C403.984 465.725 403.686 465.293 403.462 464.792C403.248 464.291 403.142 463.736 403.142 463.128ZM405.094 463.128C405.094 463.427 405.136 463.725 405.222 464.024C405.318 464.323 405.456 464.589 405.638 464.824C405.819 465.059 406.048 465.251 406.326 465.4C406.603 465.549 406.934 465.624 407.318 465.624C407.702 465.624 408.032 465.549 408.31 465.4C408.587 465.251 408.816 465.059 408.998 464.824C409.179 464.589 409.312 464.323 409.398 464.024C409.494 463.725 409.542 463.427 409.542 463.128C409.542 462.829 409.494 462.536 409.398 462.248C409.312 461.949 409.179 461.683 408.998 461.448C408.816 461.213 408.587 461.027 408.31 460.888C408.032 460.739 407.702 460.664 407.318 460.664C406.934 460.664 406.603 460.739 406.326 460.888C406.048 461.027 405.819 461.213 405.638 461.448C405.456 461.683 405.318 461.949 405.222 462.248C405.136 462.536 405.094 462.829 405.094 463.128ZM413.355 459.32H415.195V460.6H415.227C415.44 460.152 415.739 459.789 416.123 459.512C416.507 459.235 416.955 459.096 417.467 459.096C417.542 459.096 417.622 459.101 417.707 459.112C417.792 459.112 417.867 459.123 417.931 459.144V460.904C417.803 460.872 417.691 460.851 417.595 460.84C417.51 460.829 417.424 460.824 417.339 460.824C416.902 460.824 416.55 460.904 416.283 461.064C416.016 461.224 415.808 461.416 415.659 461.64C415.51 461.864 415.408 462.093 415.355 462.328C415.302 462.563 415.275 462.749 415.275 462.888V467H413.355V459.32Z" fill="white"/>
<path fill-rule="evenodd" clip-rule="evenodd" d="M172 198C172 212.912 159.912 225 145 225C130.088 225 118 212.912 118 198C118 183.088 130.088 171 145 171C159.912 171 172 183.088 172 198ZM282 390C282 404.912 269.912 417 255 417C240.088 417 228 404.912 228 390C228 375.088 240.088 363 255 363C269.912 363 282 375.088 282 390ZM365 225C379.912 225 392 212.912 392 198C392 183.088 379.912 171 365 171C350.088 171 338 183.088 338 198C338 212.912 350.088 225 365 225Z" fill="url(#paint4_linear_1753_5367)"/>
<path d="M373 198.5V192.8C373 191.12 373 190.28 372.673 189.638C372.385 189.074 371.926 188.615 371.362 188.327C370.72 188 369.88 188 368.2 188H361.8C360.12 188 359.28 188 358.638 188.327C358.074 188.615 357.615 189.074 357.327 189.638C357 190.28 357 191.12 357 192.8V203.2C357 204.88 357 205.72 357.327 206.362C357.615 206.926 358.074 207.385 358.638 207.673C359.28 208 360.12 208 361.8 208H365M367 197H361M363 201H361M369 193H361M367.5 205L369.5 207L374 202.5" stroke="white" stroke-width="1.5" stroke-linecap="round" stroke-linejoin="round"/>
<path d="M245.42 390.713C245.284 390.498 245.216 390.39 245.178 390.223C245.149 390.098 245.149 389.902 245.178 389.777C245.216 389.61 245.284 389.502 245.42 389.287C246.546 387.505 249.895 383 255 383C260.105 383 263.455 387.505 264.581 389.287C264.717 389.502 264.785 389.61 264.823 389.777C264.852 389.902 264.852 390.098 264.823 390.223C264.785 390.39 264.717 390.498 264.581 390.713C263.455 392.495 260.105 397 255 397C249.895 397 246.546 392.495 245.42 390.713Z" stroke="white" stroke-width="1.5" stroke-linecap="round" stroke-linejoin="round"/>
<path d="M255 393C256.657 393 258 391.657 258 390C258 388.343 256.657 387 255 387C253.344 387 252 388.343 252 390C252 391.657 253.344 393 255 393Z" stroke="white" stroke-width="1.5" stroke-linecap="round" stroke-linejoin="round"/>
<path d="M142.75 206.751L144.223 207.569C144.507 207.726 144.648 207.805 144.799 207.836C144.931 207.863 145.069 207.863 145.201 207.836C145.352 207.805 145.493 207.726 145.777 207.569L147.25 206.751M138.25 204.251L136.823 203.458C136.523 203.291 136.374 203.208 136.265 203.09C136.168 202.985 136.095 202.861 136.05 202.726C136 202.573 136 202.402 136 202.059V200.501M136 195.501V193.942C136 193.599 136 193.428 136.05 193.275C136.095 193.14 136.168 193.016 136.265 192.911C136.374 192.793 136.523 192.71 136.823 192.543L138.25 191.751M142.75 189.251L144.223 188.432C144.507 188.275 144.648 188.196 144.799 188.165C144.931 188.138 145.069 188.138 145.201 188.165C145.352 188.196 145.493 188.275 145.777 188.432L147.25 189.251M151.75 191.751L153.177 192.543C153.477 192.71 153.626 192.793 153.735 192.911C153.832 193.016 153.905 193.14 153.95 193.275C154 193.428 154 193.599 154 193.942V195.501M154 200.501V202.059C154 202.402 154 202.573 153.95 202.726C153.905 202.861 153.832 202.985 153.735 203.09C153.626 203.208 153.477 203.291 153.177 203.458L151.75 204.251M142.75 196.751L145 198.001M145 198.001L147.25 196.751M145 198.001V200.501M136 193.001L138.25 194.251M151.75 194.251L154 193.001M145 205.501V208.001" stroke="white" stroke-width="1.5" stroke-linecap="round" stroke-linejoin="round"/>
</g>
<defs>
<linearGradient id="paint0_linear_1753_5367" x1="205.501" y1="418.31" x2="370.466" y2="161.397" gradientUnits="userSpaceOnUse">
<stop stop-color="#5C12D5"/>
<stop offset="1" stop-color="#35FFE7"/>
</linearGradient>
<linearGradient id="paint1_linear_1753_5367" x1="255.26" y1="124.492" x2="255.26" y2="138.746" gradientUnits="userSpaceOnUse">
<stop stop-color="#4C71F3"/>
<stop offset="1" stop-color="#8AA4FF"/>
</linearGradient>
<linearGradient id="paint2_linear_1753_5367" x1="141.236" y1="324.047" x2="141.236" y2="338.301" gradientUnits="userSpaceOnUse">
<stop stop-color="#4C71F3"/>
<stop offset="1" stop-color="#8AA4FF"/>
</linearGradient>
<linearGradient id="paint3_linear_1753_5367" x1="369.299" y1="324.047" x2="369.299" y2="338.301" gradientUnits="userSpaceOnUse">
<stop stop-color="#4C71F3"/>
<stop offset="1" stop-color="#8AA4FF"/>
</linearGradient>
<linearGradient id="paint4_linear_1753_5367" x1="185" y1="374.5" x2="328.874" y2="111.251" gradientUnits="userSpaceOnUse">
<stop stop-color="#5C12D5"/>
<stop offset="1" stop-color="#32FFE6"/>
</linearGradient>
<clipPath id="clip0_1753_5367">
<rect width="511" height="528" fill="white"/>
</clipPath>
<clipPath id="clip1_1753_5367">
<rect width="511" height="528" fill="white"/>
</clipPath>
</defs>
</svg>
