<svg width="665" height="690" viewBox="0 0 665 690" fill="none" xmlns="http://www.w3.org/2000/svg">
<path fill-rule="evenodd" clip-rule="evenodd" d="M200.428 116.363L200.286 116.364L200.214 116.487L66.0367 346.107L65.9635 346.233L66.0361 346.358L66.234 346.701L197.735 574.468L197.933 574.811L198.006 574.937L198.151 574.936L464.098 573.547L464.24 573.546L464.312 573.423L598.489 343.801L598.562 343.676L598.489 343.55L598.291 343.207L466.79 115.44L466.592 115.097L466.519 114.972L466.374 114.972L200.428 116.363ZM466.284 115.564L466.232 115.473L400.327 115.818L432.981 172.375L433.088 172.375L466.284 115.564ZM466.572 116.063L433.668 172.372L498.885 172.031L466.572 116.063ZM433.322 172.965L433.375 172.873L499.135 172.53L465.904 229.399L433.322 172.965ZM432.743 172.964L432.693 172.877L366.771 173.222L399.426 229.782L399.543 229.781L432.743 172.964ZM400.124 229.778L433.031 173.462L465.348 229.437L400.124 229.778ZM399.772 230.38L399.831 230.279L465.59 229.936L432.375 286.778L432.333 286.778L399.772 230.38ZM399.194 230.378L399.193 230.377L399.139 230.283L333.217 230.627L365.836 287.126L366.034 287.125L399.194 230.378ZM366.615 287.122L399.481 230.877L431.758 286.781L366.615 287.122ZM366.222 287.794L366.289 287.679L432.049 287.336L398.866 344.122L398.743 344.123L366.222 287.794ZM365.644 287.793L365.641 287.788L365.58 287.683L299.688 288.027L332.276 344.47L332.526 344.469L365.644 287.793ZM333.107 344.466L365.932 288.291L398.168 344.126L333.107 344.466ZM331.711 344.939L331.841 344.717L299.253 288.274L265.994 345.192L266.047 345.283L331.711 344.939ZM266.335 345.781L331.418 345.441L298.581 401.635L266.335 345.781ZM265.648 345.785L265.759 345.784L298.291 402.132L298.24 402.219L232.47 402.562L265.648 345.785ZM265.295 345.287L265.384 345.134L232.765 288.636L199.51 345.545L199.559 345.63L265.295 345.287ZM199.847 346.129L265.002 345.788L232.13 402.043L199.847 346.129ZM199.167 346.132L199.272 346.132L231.839 402.54L231.824 402.566L165.99 402.91L199.167 346.132ZM198.88 345.634L198.932 345.544L166.277 288.984L133.033 345.876L133.091 345.976L133.092 345.978L198.88 345.634ZM133.379 346.476L198.587 346.135L165.688 402.436L133.379 346.476ZM132.68 346.48L132.804 346.479L165.386 402.913L99.5022 403.258L132.68 346.48ZM132.392 345.981L132.455 345.874L99.801 289.317L66.5417 346.234L66.5944 346.325L132.392 345.981ZM66.8822 346.824L132.099 346.483L99.1953 402.792L66.8822 346.824ZM331.999 345.438L332.256 345.437L364.838 401.87L298.917 402.215L298.869 402.133L331.999 345.438ZM332.687 345.183L332.813 344.967L398.456 344.624L398.456 344.625L398.514 344.725L365.269 401.617L332.687 345.183ZM433.03 286.774L465.937 230.458L498.255 286.433L433.03 286.774ZM465.934 343.771L498.843 287.453L531.162 343.43L465.934 343.771ZM465.641 344.273L531.45 343.929L531.499 344.014L498.24 400.932L465.584 344.37L465.641 344.273ZM498.528 401.43L531.787 344.513L564.443 401.074L531.184 457.992L498.528 401.43ZM597.984 343.674L564.733 400.577L532.077 344.016L532.13 343.925L597.93 343.581L597.984 343.674ZM531.842 343.427L531.738 343.427L499.151 286.985L565.025 286.641L531.842 343.427ZM498.862 286.43L498.831 286.43L466.228 229.961L466.244 229.933L532.077 229.589L498.862 286.43ZM198.595 459.432L166.286 403.472L231.494 403.131L198.595 459.432ZM231.502 516.429L199.192 460.467L264.403 460.126L231.502 516.429ZM231.791 516.929L231.79 516.928L264.984 460.123L265.084 460.122L297.74 516.684L231.847 517.028L231.791 516.929ZM298.027 517.182L232.135 517.527L264.791 574.088L330.683 573.744L298.027 517.182ZM331.259 573.741L298.603 517.179L364.515 516.834L397.171 573.396L331.259 573.741ZM397.746 573.393L365.09 516.831L431.012 516.487L463.668 573.049L397.746 573.393ZM464.099 572.796L497.344 515.903L464.688 459.342L431.443 516.234L464.099 572.796ZM530.893 458.489L497.634 515.406L464.978 458.845L498.237 401.927L530.893 458.489ZM465.294 344.867L432.035 401.785L464.69 458.346L497.95 401.429L465.294 344.867ZM465.006 344.369L431.747 401.286L399.129 344.79L399.228 344.62L464.953 344.277L465.006 344.369ZM464.665 343.778L432.388 287.873L399.521 344.119L464.665 343.778ZM432.678 287.376L465.241 343.775L465.353 343.775L498.536 286.988L432.704 287.332L432.678 287.376ZM398.5 459.174L431.744 402.282L464.4 458.843L431.155 515.735L398.5 459.174ZM398.212 458.675L431.456 401.783L398.838 345.287L365.594 402.18L398.212 458.675ZM365.163 402.433L397.781 458.928L331.859 459.273L299.241 402.777L365.163 402.433ZM398.069 459.427L430.724 515.988L364.803 516.333L332.147 459.772L398.069 459.427ZM364.227 516.336L331.571 459.775L265.66 460.119L298.315 516.681L364.227 516.336ZM331.283 459.276L298.666 402.78L298.491 402.781L265.325 459.539L265.372 459.621L331.283 459.276ZM265.037 459.041L297.91 402.784L232.754 403.125L265.037 459.041ZM232.178 403.128L232.14 403.128L198.926 459.968L264.696 459.624L264.746 459.537L232.178 403.128ZM198.625 460.484L231.212 516.926L231.15 517.032L165.381 517.376L198.625 460.484ZM165.71 403.475L198.304 459.929L198.28 459.971L132.446 460.316L165.66 403.475L165.71 403.475ZM264.215 574.091L231.56 517.53L231.438 517.53L198.24 574.342L198.294 574.435L264.215 574.091ZM165.079 403.478L99.7884 403.819L132.138 459.851L165.079 403.478ZM499.478 173.058L466.538 229.431L531.828 229.09L499.478 173.058ZM532.384 230.053L499.443 286.427L564.735 286.086L532.384 230.053ZM132.695 460.814L197.987 460.473L165.045 516.847L132.695 460.814ZM230.857 517.533L165.638 517.874L197.952 573.844L230.857 517.533ZM565.328 287.113L532.423 343.424L597.642 343.083L565.328 287.113ZM165.989 288.485L132.745 345.377L100.091 288.82L133.336 231.928L165.989 288.485ZM199.223 345.047L166.568 288.487L199.822 231.578L232.477 288.138L199.223 345.047ZM166.28 287.988L199.534 231.079L166.881 174.522L133.626 231.431L166.28 287.988ZM298.934 287.72L265.674 344.638L233.055 288.139L266.314 231.222L298.934 287.72ZM266.026 230.723L232.767 287.641L200.112 231.081L233.372 174.164L266.026 230.723ZM233.084 173.665L199.825 230.582L167.171 174.025L200.43 117.107L233.084 173.665ZM299.368 287.473L365.261 287.129L332.641 230.631L266.749 230.975L299.368 287.473ZM266.461 230.476L332.353 230.132L299.699 173.572L233.807 173.917L266.461 230.476ZM233.519 173.418L299.411 173.074L266.757 116.516L200.865 116.861L233.519 173.418ZM398.851 229.785L332.929 230.129L300.274 173.569L366.196 173.225L398.851 229.785ZM365.908 172.726L299.986 173.071L267.333 116.513L333.254 116.168L365.908 172.726ZM366.484 172.723L432.405 172.378L399.752 115.821L333.83 116.165L366.484 172.723Z" fill="#4C71F3"/>
<path opacity="0.2" d="M266.491 230.559L398.741 230.126L464.491 344.008L397.991 458.323L265.741 458.756L199.991 344.874L266.491 230.559Z" fill="url(#paint0_linear_208_6575)"/>
<path d="M344.739 317.804L320.443 317.749C318.073 317.8 316.049 318.972 314.882 320.993L312.548 325.036L323.835 344.674L320.971 349.758L315.633 340.576L312.899 345.311C315.72 350.131 318.456 354.973 321.276 359.793L329.661 345.271L319.144 327C318.895 326.572 318.729 326.122 318.732 325.627C318.761 324.225 319.848 323.08 321.28 323.056L343.763 323.057C344.7 323.03 345.635 323.499 346.134 324.355L351.071 332.879L357.151 332.914L350.324 321.029C349.13 318.921 347.108 317.754 344.739 317.804ZM325.707 328.165L334.053 342.7L355.324 342.711C355.736 342.736 356.169 342.844 356.489 343.029C357.712 343.735 358.17 345.276 357.433 346.553L346.223 365.969C345.785 366.851 344.952 367.433 343.908 367.398L334.027 367.438L330.986 372.704L344.746 372.705C347.084 372.707 349.109 371.536 350.276 369.514L356.357 358.982L362.438 348.449C363.605 346.428 363.607 344.089 362.466 342.012L360.122 337.963L337.419 337.976L334.531 332.905L345.098 332.906L342.384 328.147L325.707 328.165ZM302.751 342.005C301.553 344.079 301.55 346.418 302.722 348.442L308.778 358.96L314.887 369.509C316.059 371.533 318.08 372.7 320.419 372.703L325.097 372.709L336.429 353.08L342.319 353.076L337.006 362.278L342.484 362.249C345.278 357.409 348.042 352.621 350.837 347.78L334.076 347.82L323.489 366.035C323.296 366.491 322.944 366.855 322.547 367.052C321.294 367.747 319.749 367.352 319.054 366.099L307.781 346.682C307.251 345.88 307.233 344.805 307.725 343.954L312.639 335.443L309.599 330.142L302.751 342.005Z" fill="#D0E6FF"/>
<circle cx="266.095" cy="230.351" r="7.12698" transform="rotate(-30 266.095 230.351)" fill="url(#paint1_linear_208_6575)"/>
<circle cx="397.947" cy="458.724" r="7.12698" transform="rotate(-30 397.947 458.724)" fill="#4C71F3"/>
<circle cx="267.126" cy="460.181" r="7.12698" transform="rotate(-30 267.126 460.181)" fill="url(#paint2_linear_208_6575)"/>
<circle cx="464.634" cy="346.15" r="7.12698" transform="rotate(-30 464.634 346.15)" fill="url(#paint3_linear_208_6575)"/>
<circle cx="201.197" cy="345.995" r="7.12698" transform="rotate(-30 201.197 345.995)" fill="#4C71F3"/>
<circle cx="398.704" cy="231.966" r="7.12698" transform="rotate(-30 398.704 231.966)" fill="#4C71F3"/>
<g filter="url(#filter0_b_208_6575)">
<rect x="19" y="313" width="215" height="64" rx="32" fill="black" fill-opacity="0.4"/>
<path d="M55.984 343.952L52.464 338.672H54.896L57.232 342.544L59.536 338.672H61.856L58.4 344L62.464 350H59.92L57.152 345.552L54.496 350H52.064L55.984 343.952ZM66.6206 346.88H62.7806V345.248H66.6206V346.88ZM68.5136 338.672H72.4496C72.983 338.672 73.5003 338.731 74.0016 338.848C74.503 338.955 74.9456 339.136 75.3296 339.392C75.7243 339.648 76.039 339.984 76.2736 340.4C76.5083 340.816 76.6256 341.323 76.6256 341.92C76.6256 342.741 76.391 343.413 75.9216 343.936C75.463 344.448 74.8336 344.795 74.0336 344.976L77.0576 350H74.6256L72.0016 345.2H70.5296V350H68.5136V338.672ZM72.1776 343.552C72.4656 343.552 72.7536 343.531 73.0416 343.488C73.3296 343.445 73.5856 343.365 73.8096 343.248C74.0443 343.131 74.2363 342.965 74.3856 342.752C74.535 342.528 74.6096 342.245 74.6096 341.904C74.6096 341.595 74.5403 341.344 74.4016 341.152C74.263 340.949 74.087 340.789 73.8736 340.672C73.6603 340.555 73.415 340.475 73.1376 340.432C72.871 340.389 72.6096 340.368 72.3536 340.368H70.5296V343.552H72.1776ZM83.0606 349.024H83.0126C82.8206 349.365 82.5113 349.648 82.0846 349.872C81.658 350.085 81.1726 350.192 80.6286 350.192C80.3193 350.192 79.994 350.149 79.6526 350.064C79.322 349.989 79.0126 349.861 78.7246 349.68C78.4473 349.488 78.2126 349.243 78.0206 348.944C77.8393 348.635 77.7486 348.256 77.7486 347.808C77.7486 347.232 77.9086 346.773 78.2286 346.432C78.5593 346.091 78.9806 345.829 79.4926 345.648C80.0046 345.467 80.57 345.349 81.1886 345.296C81.818 345.232 82.4313 345.2 83.0286 345.2V345.008C83.0286 344.528 82.8526 344.176 82.5006 343.952C82.1593 343.717 81.7486 343.6 81.2686 343.6C80.8633 343.6 80.474 343.685 80.1006 343.856C79.7273 344.027 79.418 344.235 79.1726 344.48L78.1806 343.312C78.618 342.907 79.1193 342.603 79.6846 342.4C80.2606 342.197 80.842 342.096 81.4286 342.096C82.1113 342.096 82.6713 342.192 83.1086 342.384C83.5566 342.576 83.9086 342.827 84.1646 343.136C84.4206 343.445 84.5966 343.792 84.6926 344.176C84.7993 344.56 84.8526 344.944 84.8526 345.328V350H83.0606V349.024ZM83.0286 346.496H82.5966C82.2873 346.496 81.962 346.512 81.6206 346.544C81.2793 346.565 80.9646 346.624 80.6766 346.72C80.3886 346.805 80.1486 346.933 79.9566 347.104C79.7646 347.264 79.6686 347.488 79.6686 347.776C79.6686 347.957 79.706 348.112 79.7806 348.24C79.866 348.357 79.9726 348.453 80.1006 348.528C80.2286 348.603 80.3726 348.656 80.5326 348.688C80.6926 348.72 80.8526 348.736 81.0126 348.736C81.674 348.736 82.1753 348.56 82.5166 348.208C82.858 347.856 83.0286 347.376 83.0286 346.768V346.496ZM85.9375 342.32H88.0655L90.2095 347.904H90.2415L92.1455 342.32H94.1455L90.5135 351.648C90.3748 352 90.2255 352.309 90.0655 352.576C89.9055 352.853 89.7135 353.083 89.4895 353.264C89.2655 353.456 88.9988 353.6 88.6895 353.696C88.3908 353.792 88.0282 353.84 87.6015 353.84C87.4415 353.84 87.2762 353.829 87.1055 353.808C86.9455 353.797 86.7802 353.771 86.6095 353.728L86.7695 352.064C86.8975 352.107 87.0202 352.133 87.1375 352.144C87.2655 352.165 87.3828 352.176 87.4895 352.176C87.6922 352.176 87.8628 352.149 88.0015 352.096C88.1402 352.053 88.2575 351.979 88.3535 351.872C88.4495 351.776 88.5348 351.653 88.6095 351.504C88.6842 351.355 88.7642 351.179 88.8495 350.976L89.2335 350L85.9375 342.32ZM105.165 341.04C104.951 340.763 104.647 340.533 104.253 340.352C103.869 340.16 103.479 340.064 103.085 340.064C102.85 340.064 102.615 340.096 102.381 340.16C102.146 340.213 101.933 340.304 101.741 340.432C101.549 340.549 101.389 340.709 101.261 340.912C101.143 341.104 101.085 341.339 101.085 341.616C101.085 341.872 101.138 342.091 101.245 342.272C101.351 342.453 101.495 342.608 101.677 342.736C101.869 342.864 102.098 342.976 102.365 343.072C102.631 343.168 102.925 343.264 103.245 343.36C103.607 343.477 103.981 343.611 104.365 343.76C104.759 343.909 105.117 344.107 105.437 344.352C105.767 344.597 106.034 344.907 106.237 345.28C106.45 345.653 106.557 346.117 106.557 346.672C106.557 347.28 106.445 347.813 106.221 348.272C105.997 348.72 105.698 349.093 105.325 349.392C104.951 349.691 104.514 349.915 104.013 350.064C103.511 350.213 102.983 350.288 102.429 350.288C101.693 350.288 100.973 350.155 100.269 349.888C99.5646 349.611 98.9886 349.205 98.5406 348.672L99.9806 347.328C100.258 347.712 100.626 348.016 101.085 348.24C101.554 348.464 102.013 348.576 102.461 348.576C102.695 348.576 102.935 348.549 103.181 348.496C103.426 348.432 103.645 348.331 103.837 348.192C104.039 348.053 104.199 347.883 104.317 347.68C104.445 347.467 104.509 347.205 104.509 346.896C104.509 346.597 104.439 346.352 104.301 346.16C104.162 345.957 103.975 345.787 103.741 345.648C103.506 345.499 103.229 345.371 102.909 345.264C102.589 345.157 102.253 345.045 101.901 344.928C101.559 344.821 101.218 344.693 100.877 344.544C100.535 344.395 100.226 344.197 99.9486 343.952C99.682 343.707 99.4633 343.408 99.2926 343.056C99.122 342.693 99.0366 342.245 99.0366 341.712C99.0366 341.136 99.154 340.64 99.3886 340.224C99.634 339.808 99.9486 339.467 100.333 339.2C100.727 338.923 101.17 338.72 101.661 338.592C102.162 338.453 102.669 338.384 103.181 338.384C103.757 338.384 104.338 338.485 104.925 338.688C105.522 338.891 106.039 339.195 106.477 339.6L105.165 341.04ZM113.728 344.448C113.579 344.235 113.355 344.059 113.056 343.92C112.757 343.771 112.453 343.696 112.144 343.696C111.792 343.696 111.483 343.771 111.216 343.92C110.949 344.059 110.725 344.245 110.544 344.48C110.373 344.715 110.245 344.981 110.16 345.28C110.075 345.568 110.032 345.861 110.032 346.16C110.032 346.459 110.075 346.757 110.16 347.056C110.256 347.344 110.395 347.605 110.576 347.84C110.757 348.075 110.981 348.267 111.248 348.416C111.525 348.555 111.845 348.624 112.208 348.624C112.507 348.624 112.805 348.565 113.104 348.448C113.403 348.331 113.643 348.16 113.824 347.936L115.024 349.152C114.704 349.493 114.293 349.76 113.792 349.952C113.301 350.133 112.768 350.224 112.192 350.224C111.627 350.224 111.088 350.133 110.576 349.952C110.075 349.771 109.632 349.504 109.248 349.152C108.875 348.8 108.576 348.373 108.352 347.872C108.139 347.371 108.032 346.8 108.032 346.16C108.032 345.541 108.139 344.981 108.352 344.48C108.576 343.979 108.875 343.552 109.248 343.2C109.621 342.848 110.053 342.576 110.544 342.384C111.045 342.192 111.579 342.096 112.144 342.096C112.709 342.096 113.253 342.203 113.776 342.416C114.309 342.629 114.731 342.923 115.04 343.296L113.728 344.448ZM121.061 349.024H121.013C120.821 349.365 120.511 349.648 120.085 349.872C119.658 350.085 119.173 350.192 118.629 350.192C118.319 350.192 117.994 350.149 117.653 350.064C117.322 349.989 117.013 349.861 116.725 349.68C116.447 349.488 116.213 349.243 116.021 348.944C115.839 348.635 115.749 348.256 115.749 347.808C115.749 347.232 115.909 346.773 116.229 346.432C116.559 346.091 116.981 345.829 117.493 345.648C118.005 345.467 118.57 345.349 119.189 345.296C119.818 345.232 120.431 345.2 121.029 345.2V345.008C121.029 344.528 120.853 344.176 120.501 343.952C120.159 343.717 119.749 343.6 119.269 343.6C118.863 343.6 118.474 343.685 118.101 343.856C117.727 344.027 117.418 344.235 117.173 344.48L116.181 343.312C116.618 342.907 117.119 342.603 117.685 342.4C118.261 342.197 118.842 342.096 119.429 342.096C120.111 342.096 120.671 342.192 121.109 342.384C121.557 342.576 121.909 342.827 122.165 343.136C122.421 343.445 122.597 343.792 122.693 344.176C122.799 344.56 122.853 344.944 122.853 345.328V350H121.061V349.024ZM121.029 346.496H120.597C120.287 346.496 119.962 346.512 119.621 346.544C119.279 346.565 118.965 346.624 118.677 346.72C118.389 346.805 118.149 346.933 117.957 347.104C117.765 347.264 117.669 347.488 117.669 347.776C117.669 347.957 117.706 348.112 117.781 348.24C117.866 348.357 117.973 348.453 118.101 348.528C118.229 348.603 118.373 348.656 118.533 348.688C118.693 348.72 118.853 348.736 119.013 348.736C119.674 348.736 120.175 348.56 120.517 348.208C120.858 347.856 121.029 347.376 121.029 346.768V346.496ZM125.09 342.32H126.914V343.552H126.946C127.116 343.168 127.41 342.832 127.826 342.544C128.252 342.245 128.754 342.096 129.33 342.096C129.831 342.096 130.258 342.187 130.61 342.368C130.972 342.539 131.266 342.768 131.49 343.056C131.724 343.344 131.895 343.675 132.002 344.048C132.108 344.421 132.161 344.805 132.161 345.2V350H130.242V345.744C130.242 345.52 130.226 345.285 130.194 345.04C130.162 344.795 130.092 344.576 129.986 344.384C129.879 344.181 129.73 344.016 129.538 343.888C129.356 343.76 129.111 343.696 128.802 343.696C128.492 343.696 128.226 343.76 128.002 343.888C127.778 344.005 127.591 344.16 127.442 344.352C127.303 344.544 127.196 344.768 127.122 345.024C127.047 345.269 127.01 345.52 127.01 345.776V350H125.09V342.32ZM134.402 342.32H136.226V343.552H136.258C136.429 343.168 136.722 342.832 137.138 342.544C137.565 342.245 138.066 342.096 138.642 342.096C139.143 342.096 139.57 342.187 139.922 342.368C140.285 342.539 140.578 342.768 140.802 343.056C141.037 343.344 141.207 343.675 141.314 344.048C141.421 344.421 141.474 344.805 141.474 345.2V350H139.554V345.744C139.554 345.52 139.538 345.285 139.506 345.04C139.474 344.795 139.405 344.576 139.298 344.384C139.191 344.181 139.042 344.016 138.85 343.888C138.669 343.76 138.423 343.696 138.114 343.696C137.805 343.696 137.538 343.76 137.314 343.888C137.09 344.005 136.903 344.16 136.754 344.352C136.615 344.544 136.509 344.768 136.434 345.024C136.359 345.269 136.322 345.52 136.322 345.776V350H134.402V342.32ZM149.123 345.392C149.123 345.147 149.085 344.912 149.011 344.688C148.947 344.464 148.84 344.267 148.691 344.096C148.541 343.925 148.349 343.792 148.115 343.696C147.891 343.589 147.624 343.536 147.315 343.536C146.739 343.536 146.248 343.712 145.843 344.064C145.448 344.405 145.229 344.848 145.187 345.392H149.123ZM151.043 346.256C151.043 346.341 151.043 346.427 151.043 346.512C151.043 346.597 151.037 346.683 151.027 346.768H145.187C145.208 347.045 145.277 347.301 145.395 347.536C145.523 347.76 145.688 347.957 145.891 348.128C146.093 348.288 146.323 348.416 146.579 348.512C146.835 348.608 147.101 348.656 147.379 348.656C147.859 348.656 148.264 348.571 148.595 348.4C148.925 348.219 149.197 347.973 149.411 347.664L150.691 348.688C149.933 349.712 148.835 350.224 147.395 350.224C146.797 350.224 146.248 350.133 145.747 349.952C145.245 349.76 144.808 349.493 144.435 349.152C144.072 348.811 143.784 348.395 143.571 347.904C143.368 347.403 143.267 346.837 143.267 346.208C143.267 345.589 143.368 345.029 143.571 344.528C143.784 344.016 144.072 343.584 144.435 343.232C144.797 342.869 145.224 342.592 145.715 342.4C146.216 342.197 146.755 342.096 147.331 342.096C147.864 342.096 148.355 342.187 148.803 342.368C149.261 342.539 149.656 342.8 149.987 343.152C150.317 343.493 150.573 343.925 150.755 344.448C150.947 344.96 151.043 345.563 151.043 346.256ZM152.902 342.32H154.742V343.6H154.774C154.987 343.152 155.286 342.789 155.67 342.512C156.054 342.235 156.502 342.096 157.014 342.096C157.089 342.096 157.169 342.101 157.254 342.112C157.339 342.112 157.414 342.123 157.478 342.144V343.904C157.35 343.872 157.238 343.851 157.142 343.84C157.057 343.829 156.971 343.824 156.886 343.824C156.449 343.824 156.097 343.904 155.83 344.064C155.563 344.224 155.355 344.416 155.206 344.64C155.057 344.864 154.955 345.093 154.902 345.328C154.849 345.563 154.822 345.749 154.822 345.888V350H152.902V342.32Z" fill="white"/>
</g>
<g filter="url(#filter1_b_208_6575)">
<rect x="365.094" y="427" width="205" height="64" rx="32" fill="black" fill-opacity="0.4"/>
<path d="M449.518 455.328L451.054 454.112C450.83 453.824 450.558 453.568 450.238 453.344C449.918 453.136 449.566 452.96 449.214 452.816C448.846 452.672 448.462 452.56 448.078 452.496C447.678 452.432 447.294 452.384 446.942 452.384C446.062 452.384 445.246 452.528 444.51 452.8C443.758 453.088 443.102 453.472 442.558 453.984C442.014 454.496 441.582 455.12 441.262 455.856C440.942 456.592 440.798 457.408 440.798 458.304C440.798 459.2 440.942 460 441.246 460.736C441.534 461.472 441.95 462.096 442.494 462.624C443.022 463.152 443.662 463.568 444.398 463.856C445.134 464.144 445.95 464.288 446.846 464.288C447.806 464.288 448.654 464.128 449.39 463.776C450.11 463.424 450.718 462.944 451.23 462.304L449.614 461.168C449.326 461.568 448.942 461.888 448.478 462.128C447.998 462.368 447.47 462.48 446.862 462.48C446.27 462.48 445.742 462.384 445.278 462.176C444.798 461.984 444.398 461.696 444.062 461.328C443.726 460.96 443.47 460.512 443.294 460C443.102 459.488 443.022 458.928 443.022 458.304C443.022 457.728 443.102 457.184 443.294 456.672C443.486 456.176 443.742 455.744 444.094 455.36C444.446 454.992 444.862 454.704 445.342 454.48C445.822 454.272 446.35 454.16 446.942 454.16C447.39 454.16 447.87 454.256 448.35 454.448C448.83 454.64 449.214 454.928 449.518 455.328ZM452.418 456.32V464H454.338V456.32H452.418ZM452.146 453.712C452.146 454.032 452.258 454.304 452.482 454.528C452.706 454.752 453.01 454.864 453.362 454.864C453.714 454.864 454.002 454.768 454.242 454.544C454.482 454.32 454.61 454.048 454.61 453.712C454.61 453.392 454.482 453.12 454.242 452.896C454.002 452.672 453.714 452.56 453.362 452.56C453.01 452.56 452.706 452.688 452.482 452.912C452.258 453.136 452.146 453.408 452.146 453.712ZM456.668 456.32V464H458.588V459.888C458.588 459.76 458.604 459.568 458.668 459.328C458.716 459.104 458.812 458.864 458.972 458.64C459.116 458.416 459.324 458.224 459.596 458.064C459.852 457.904 460.204 457.824 460.652 457.824C460.732 457.824 460.812 457.84 460.908 457.84C461.004 457.856 461.116 457.872 461.244 457.904V456.144C461.18 456.128 461.1 456.112 461.02 456.112C460.924 456.112 460.844 456.096 460.78 456.096C460.268 456.096 459.82 456.24 459.436 456.512C459.052 456.8 458.748 457.152 458.54 457.6H458.508V456.32H456.668ZM467.463 458.448L468.775 457.296C468.455 456.928 468.039 456.64 467.511 456.416C466.983 456.208 466.439 456.096 465.879 456.096C465.303 456.096 464.775 456.192 464.279 456.384C463.783 456.576 463.351 456.848 462.983 457.2C462.599 457.552 462.311 457.984 462.087 458.48C461.863 458.992 461.767 459.552 461.767 460.16C461.767 460.8 461.863 461.376 462.087 461.872C462.311 462.384 462.599 462.8 462.983 463.152C463.367 463.504 463.799 463.776 464.311 463.952C464.823 464.144 465.351 464.224 465.927 464.224C466.503 464.224 467.031 464.144 467.527 463.952C468.023 463.76 468.439 463.504 468.759 463.152L467.559 461.936C467.367 462.16 467.127 462.336 466.839 462.448C466.535 462.576 466.231 462.624 465.943 462.624C465.575 462.624 465.255 462.56 464.983 462.416C464.711 462.272 464.487 462.08 464.311 461.84C464.119 461.616 463.991 461.344 463.895 461.056C463.799 460.768 463.767 460.464 463.767 460.16C463.767 459.872 463.799 459.568 463.895 459.28C463.975 458.992 464.103 458.72 464.279 458.48C464.455 458.256 464.679 458.064 464.951 457.92C465.207 457.776 465.527 457.696 465.879 457.696C466.183 457.696 466.487 457.776 466.791 457.92C467.079 458.064 467.303 458.24 467.463 458.448ZM477.035 464V456.32H475.115V460.544C475.115 460.8 475.067 461.056 475.003 461.312C474.923 461.568 474.811 461.776 474.667 461.968C474.523 462.16 474.331 462.32 474.107 462.448C473.883 462.576 473.611 462.624 473.323 462.624C473.003 462.624 472.763 462.56 472.571 462.432C472.379 462.304 472.235 462.144 472.139 461.952C472.027 461.76 471.963 461.536 471.931 461.28C471.899 461.04 471.883 460.8 471.883 460.576V456.32H469.963V461.12C469.963 461.52 470.011 461.904 470.123 462.272C470.219 462.656 470.395 462.976 470.619 463.264C470.843 463.552 471.147 463.792 471.499 463.968C471.851 464.144 472.283 464.224 472.795 464.224C473.371 464.224 473.867 464.08 474.283 463.792C474.699 463.504 475.003 463.152 475.179 462.768H475.211V464H477.035ZM479.372 456.32V464H481.292V456.32H479.372ZM479.1 453.712C479.1 454.032 479.212 454.304 479.436 454.528C479.66 454.752 479.964 454.864 480.316 454.864C480.668 454.864 480.956 454.768 481.196 454.544C481.436 454.32 481.564 454.048 481.564 453.712C481.564 453.392 481.436 453.12 481.196 452.896C480.956 452.672 480.668 452.56 480.316 452.56C479.964 452.56 479.66 452.688 479.436 452.912C479.212 453.136 479.1 453.408 479.1 453.712ZM482.517 457.856H483.861V461.44C483.861 461.824 483.893 462.176 483.957 462.496C484.021 462.816 484.149 463.104 484.341 463.36C484.533 463.616 484.789 463.808 485.109 463.952C485.429 464.096 485.845 464.16 486.357 464.16C486.565 464.16 486.789 464.144 487.029 464.112C487.253 464.08 487.461 464.016 487.637 463.952L487.573 462.448C487.445 462.512 487.317 462.544 487.173 462.576C487.013 462.608 486.885 462.608 486.757 462.608C486.325 462.608 486.053 462.496 485.925 462.272C485.797 462.048 485.749 461.776 485.749 461.424V457.856H487.669V456.32H485.749V454.096H483.861V456.32H482.517V457.856ZM489.154 452.672V464H493.234C493.762 464 494.29 463.952 494.802 463.84C495.314 463.728 495.778 463.536 496.178 463.28C496.578 463.024 496.898 462.688 497.154 462.272C497.394 461.856 497.522 461.328 497.522 460.704C497.522 459.936 497.282 459.328 496.834 458.864C496.37 458.416 495.778 458.128 495.074 458.032V458C495.65 457.824 496.13 457.52 496.498 457.104C496.85 456.688 497.042 456.16 497.042 455.52C497.042 455.008 496.93 454.576 496.738 454.208C496.53 453.856 496.258 453.552 495.938 453.328C495.618 453.104 495.25 452.928 494.834 452.832C494.418 452.736 493.986 452.672 493.57 452.672H489.154ZM491.17 457.28V454.336H492.786C493.554 454.336 494.114 454.448 494.482 454.656C494.834 454.88 495.026 455.232 495.026 455.744C495.026 456.24 494.85 456.624 494.498 456.88C494.146 457.152 493.634 457.28 492.962 457.28H491.17ZM491.17 462.304V459.008H493.058C493.874 459.008 494.482 459.136 494.898 459.36C495.298 459.6 495.506 460.016 495.506 460.608C495.506 460.992 495.41 461.28 495.25 461.504C495.09 461.728 494.882 461.904 494.626 462.016C494.37 462.144 494.098 462.224 493.81 462.256C493.506 462.288 493.234 462.304 492.978 462.304H491.17ZM499.418 456.32V464H501.338V459.888C501.338 459.76 501.354 459.568 501.418 459.328C501.466 459.104 501.562 458.864 501.722 458.64C501.866 458.416 502.074 458.224 502.346 458.064C502.602 457.904 502.954 457.824 503.402 457.824C503.482 457.824 503.562 457.84 503.658 457.84C503.754 457.856 503.866 457.872 503.994 457.904V456.144C503.93 456.128 503.85 456.112 503.77 456.112C503.674 456.112 503.594 456.096 503.53 456.096C503.018 456.096 502.57 456.24 502.186 456.512C501.802 456.8 501.498 457.152 501.29 457.6H501.258V456.32H499.418ZM510.373 459.392H506.437C506.469 458.848 506.693 458.416 507.093 458.064C507.493 457.712 507.989 457.536 508.565 457.536C508.869 457.536 509.141 457.6 509.365 457.696C509.589 457.792 509.781 457.936 509.941 458.096C510.085 458.272 510.197 458.464 510.261 458.688C510.325 458.912 510.373 459.152 510.373 459.392ZM512.293 460.256C512.293 459.568 512.197 458.96 512.005 458.448C511.812 457.936 511.557 457.504 511.237 457.152C510.901 456.8 510.501 456.544 510.053 456.368C509.605 456.192 509.109 456.096 508.581 456.096C508.005 456.096 507.461 456.208 506.965 456.4C506.469 456.592 506.037 456.88 505.685 457.232C505.317 457.584 505.029 458.016 504.821 458.528C504.613 459.04 504.517 459.6 504.517 460.208C504.517 460.848 504.613 461.408 504.821 461.904C505.029 462.4 505.317 462.816 505.685 463.152C506.053 463.504 506.485 463.76 506.997 463.952C507.493 464.144 508.036 464.224 508.645 464.224C510.085 464.224 511.173 463.712 511.941 462.688L510.661 461.664C510.437 461.984 510.165 462.224 509.845 462.4C509.509 462.576 509.109 462.656 508.629 462.656C508.341 462.656 508.085 462.608 507.829 462.512C507.573 462.416 507.333 462.288 507.141 462.128C506.933 461.968 506.773 461.76 506.645 461.536C506.517 461.312 506.453 461.056 506.437 460.768H512.277C512.277 460.688 512.293 460.608 512.293 460.512V460.256ZM518.826 463.024V464H520.618V459.328C520.618 458.944 520.554 458.56 520.458 458.176C520.362 457.792 520.186 457.456 519.93 457.136C519.674 456.832 519.322 456.576 518.874 456.384C518.426 456.192 517.866 456.096 517.194 456.096C516.602 456.096 516.026 456.208 515.45 456.4C514.874 456.608 514.378 456.912 513.946 457.312L514.938 458.48C515.178 458.24 515.482 458.032 515.866 457.856C516.234 457.696 516.618 457.6 517.034 457.6C517.514 457.6 517.914 457.728 518.266 457.952C518.618 458.176 518.794 458.528 518.794 459.008V459.2C518.186 459.2 517.578 459.232 516.954 459.296C516.33 459.36 515.77 459.472 515.258 459.648C514.746 459.84 514.314 460.096 513.994 460.432C513.674 460.784 513.514 461.232 513.514 461.808C513.514 462.256 513.594 462.64 513.786 462.944C513.978 463.248 514.202 463.488 514.49 463.68C514.778 463.872 515.082 464 515.418 464.08C515.754 464.16 516.074 464.192 516.394 464.192C516.938 464.192 517.418 464.096 517.85 463.872C518.266 463.648 518.586 463.376 518.778 463.024H518.826ZM518.794 460.496V460.768C518.794 461.376 518.618 461.856 518.282 462.208C517.93 462.56 517.434 462.736 516.778 462.736C516.618 462.736 516.458 462.72 516.298 462.688C516.138 462.656 515.994 462.608 515.866 462.528C515.738 462.464 515.626 462.368 515.546 462.24C515.466 462.112 515.434 461.968 515.434 461.776C515.434 461.488 515.53 461.264 515.722 461.104C515.914 460.944 516.154 460.816 516.442 460.72C516.73 460.624 517.034 460.576 517.386 460.544C517.722 460.512 518.042 460.496 518.362 460.496H518.794ZM522.887 451.904V464H524.807V460.064H524.855L527.895 464H530.439L526.903 459.792L530.231 456.32H527.767L524.855 459.552H524.807V451.904H522.887ZM536.669 459.392H532.733C532.765 458.848 532.989 458.416 533.389 458.064C533.789 457.712 534.285 457.536 534.861 457.536C535.165 457.536 535.437 457.6 535.661 457.696C535.885 457.792 536.077 457.936 536.237 458.096C536.381 458.272 536.493 458.464 536.557 458.688C536.621 458.912 536.669 459.152 536.669 459.392ZM538.589 460.256C538.589 459.568 538.493 458.96 538.301 458.448C538.109 457.936 537.853 457.504 537.533 457.152C537.197 456.8 536.797 456.544 536.349 456.368C535.901 456.192 535.405 456.096 534.877 456.096C534.301 456.096 533.757 456.208 533.261 456.4C532.765 456.592 532.333 456.88 531.981 457.232C531.613 457.584 531.325 458.016 531.117 458.528C530.909 459.04 530.813 459.6 530.813 460.208C530.813 460.848 530.909 461.408 531.117 461.904C531.325 462.4 531.613 462.816 531.981 463.152C532.349 463.504 532.781 463.76 533.293 463.952C533.789 464.144 534.333 464.224 534.941 464.224C536.381 464.224 537.469 463.712 538.237 462.688L536.957 461.664C536.733 461.984 536.461 462.224 536.141 462.4C535.805 462.576 535.405 462.656 534.925 462.656C534.637 462.656 534.381 462.608 534.125 462.512C533.869 462.416 533.629 462.288 533.437 462.128C533.229 461.968 533.069 461.76 532.941 461.536C532.813 461.312 532.749 461.056 532.733 460.768H538.573C538.573 460.688 538.589 460.608 538.589 460.512V460.256ZM540.449 456.32V464H542.369V459.888C542.369 459.76 542.385 459.568 542.449 459.328C542.497 459.104 542.593 458.864 542.753 458.64C542.897 458.416 543.105 458.224 543.377 458.064C543.633 457.904 543.985 457.824 544.433 457.824C544.513 457.824 544.593 457.84 544.689 457.84C544.785 457.856 544.897 457.872 545.025 457.904V456.144C544.961 456.128 544.881 456.112 544.801 456.112C544.705 456.112 544.625 456.096 544.561 456.096C544.049 456.096 543.601 456.24 543.217 456.512C542.833 456.8 542.529 457.152 542.321 457.6H542.289V456.32H540.449Z" fill="white"/>
</g>
<g filter="url(#filter2_b_208_6575)">
<rect x="51.2656" y="199" width="252" height="64" rx="32" fill="black" fill-opacity="0.4"/>
<path d="M75.3616 224.672H77.5696L79.7616 232.992H79.7936L82.2896 224.672H84.3696L86.8176 232.992H86.8496L89.0896 224.672H91.2336L87.9216 236H85.9696L83.3136 227.504H83.2816L80.6256 236H78.6736L75.3616 224.672ZM96.67 235.024H96.622C96.43 235.365 96.1207 235.648 95.694 235.872C95.2673 236.085 94.782 236.192 94.238 236.192C93.9287 236.192 93.6033 236.149 93.262 236.064C92.9313 235.989 92.622 235.861 92.334 235.68C92.0567 235.488 91.822 235.243 91.63 234.944C91.4487 234.635 91.358 234.256 91.358 233.808C91.358 233.232 91.518 232.773 91.838 232.432C92.1687 232.091 92.59 231.829 93.102 231.648C93.614 231.467 94.1793 231.349 94.798 231.296C95.4273 231.232 96.0407 231.2 96.638 231.2V231.008C96.638 230.528 96.462 230.176 96.11 229.952C95.7687 229.717 95.358 229.6 94.878 229.6C94.4727 229.6 94.0833 229.685 93.71 229.856C93.3367 230.027 93.0273 230.235 92.782 230.48L91.79 229.312C92.2273 228.907 92.7287 228.603 93.294 228.4C93.87 228.197 94.4513 228.096 95.038 228.096C95.7207 228.096 96.2807 228.192 96.718 228.384C97.166 228.576 97.518 228.827 97.774 229.136C98.03 229.445 98.206 229.792 98.302 230.176C98.4087 230.56 98.462 230.944 98.462 231.328V236H96.67V235.024ZM96.638 232.496H96.206C95.8967 232.496 95.5713 232.512 95.23 232.544C94.8887 232.565 94.574 232.624 94.286 232.72C93.998 232.805 93.758 232.933 93.566 233.104C93.374 233.264 93.278 233.488 93.278 233.776C93.278 233.957 93.3153 234.112 93.39 234.24C93.4753 234.357 93.582 234.453 93.71 234.528C93.838 234.603 93.982 234.656 94.142 234.688C94.302 234.72 94.462 234.736 94.622 234.736C95.2833 234.736 95.7847 234.56 96.126 234.208C96.4673 233.856 96.638 233.376 96.638 232.768V232.496ZM99.4386 229.856V228.32H100.783V226.096H102.671V228.32H104.591V229.856H102.671V233.424C102.671 233.765 102.729 234.048 102.847 234.272C102.975 234.496 103.252 234.608 103.679 234.608C103.807 234.608 103.945 234.597 104.095 234.576C104.244 234.544 104.377 234.501 104.495 234.448L104.559 235.952C104.388 236.016 104.185 236.064 103.951 236.096C103.716 236.139 103.492 236.16 103.279 236.16C102.767 236.16 102.351 236.091 102.031 235.952C101.711 235.803 101.455 235.605 101.263 235.36C101.081 235.104 100.953 234.816 100.879 234.496C100.815 234.165 100.783 233.813 100.783 233.44V229.856H99.4386ZM111.228 230.448C111.079 230.235 110.855 230.059 110.556 229.92C110.257 229.771 109.953 229.696 109.644 229.696C109.292 229.696 108.983 229.771 108.716 229.92C108.449 230.059 108.225 230.245 108.044 230.48C107.873 230.715 107.745 230.981 107.66 231.28C107.575 231.568 107.532 231.861 107.532 232.16C107.532 232.459 107.575 232.757 107.66 233.056C107.756 233.344 107.895 233.605 108.076 233.84C108.257 234.075 108.481 234.267 108.748 234.416C109.025 234.555 109.345 234.624 109.708 234.624C110.007 234.624 110.305 234.565 110.604 234.448C110.903 234.331 111.143 234.16 111.324 233.936L112.524 235.152C112.204 235.493 111.793 235.76 111.292 235.952C110.801 236.133 110.268 236.224 109.692 236.224C109.127 236.224 108.588 236.133 108.076 235.952C107.575 235.771 107.132 235.504 106.748 235.152C106.375 234.8 106.076 234.373 105.852 233.872C105.639 233.371 105.532 232.8 105.532 232.16C105.532 231.541 105.639 230.981 105.852 230.48C106.076 229.979 106.375 229.552 106.748 229.2C107.121 228.848 107.553 228.576 108.044 228.384C108.545 228.192 109.079 228.096 109.644 228.096C110.209 228.096 110.753 228.203 111.276 228.416C111.809 228.629 112.231 228.923 112.54 229.296L111.228 230.448ZM118.065 228.096C118.566 228.096 118.993 228.187 119.345 228.368C119.707 228.539 120.001 228.768 120.225 229.056C120.459 229.344 120.63 229.675 120.737 230.048C120.843 230.421 120.897 230.805 120.897 231.2V236H118.977V231.776C118.977 231.552 118.961 231.323 118.929 231.088C118.897 230.843 118.827 230.624 118.721 230.432C118.625 230.229 118.481 230.064 118.289 229.936C118.107 229.808 117.862 229.744 117.553 229.744C117.243 229.744 116.977 229.803 116.753 229.92C116.529 230.037 116.342 230.197 116.193 230.4C116.043 230.592 115.931 230.811 115.857 231.056C115.782 231.301 115.745 231.552 115.745 231.808V236H113.825V223.904H115.745V229.392H115.777C115.851 229.232 115.958 229.077 116.097 228.928C116.246 228.768 116.417 228.629 116.609 228.512C116.801 228.384 117.019 228.283 117.265 228.208C117.51 228.133 117.777 228.096 118.065 228.096ZM125.52 226.432H122.048V224.672H131.008V226.432H127.536V236H125.52V226.432ZM130.251 232.128C130.251 231.52 130.358 230.971 130.571 230.48C130.795 229.979 131.094 229.552 131.467 229.2C131.84 228.848 132.283 228.576 132.795 228.384C133.307 228.192 133.851 228.096 134.427 228.096C135.003 228.096 135.547 228.192 136.059 228.384C136.571 228.576 137.014 228.848 137.387 229.2C137.76 229.552 138.054 229.979 138.267 230.48C138.491 230.971 138.603 231.52 138.603 232.128C138.603 232.736 138.491 233.291 138.267 233.792C138.054 234.293 137.76 234.725 137.387 235.088C137.014 235.44 136.571 235.717 136.059 235.92C135.547 236.123 135.003 236.224 134.427 236.224C133.851 236.224 133.307 236.123 132.795 235.92C132.283 235.717 131.84 235.44 131.467 235.088C131.094 234.725 130.795 234.293 130.571 233.792C130.358 233.291 130.251 232.736 130.251 232.128ZM132.203 232.128C132.203 232.427 132.246 232.725 132.331 233.024C132.427 233.323 132.566 233.589 132.747 233.824C132.928 234.059 133.158 234.251 133.435 234.4C133.712 234.549 134.043 234.624 134.427 234.624C134.811 234.624 135.142 234.549 135.419 234.4C135.696 234.251 135.926 234.059 136.107 233.824C136.288 233.589 136.422 233.323 136.507 233.024C136.603 232.725 136.651 232.427 136.651 232.128C136.651 231.829 136.603 231.536 136.507 231.248C136.422 230.949 136.288 230.683 136.107 230.448C135.926 230.213 135.696 230.027 135.419 229.888C135.142 229.739 134.811 229.664 134.427 229.664C134.043 229.664 133.712 229.739 133.435 229.888C133.158 230.027 132.928 230.213 132.747 230.448C132.566 230.683 132.427 230.949 132.331 231.248C132.246 231.536 132.203 231.829 132.203 232.128ZM139.377 228.32H141.457L143.057 233.824H143.089L144.737 228.32H146.785L148.449 233.824H148.481L150.113 228.32H152.113L149.457 236H147.505L145.761 230.624H145.729L144.001 236H142.049L139.377 228.32ZM158.732 231.392C158.732 231.147 158.695 230.912 158.62 230.688C158.556 230.464 158.449 230.267 158.3 230.096C158.151 229.925 157.959 229.792 157.724 229.696C157.5 229.589 157.233 229.536 156.924 229.536C156.348 229.536 155.857 229.712 155.452 230.064C155.057 230.405 154.839 230.848 154.796 231.392H158.732ZM160.652 232.256C160.652 232.341 160.652 232.427 160.652 232.512C160.652 232.597 160.647 232.683 160.636 232.768H154.796C154.817 233.045 154.887 233.301 155.004 233.536C155.132 233.76 155.297 233.957 155.5 234.128C155.703 234.288 155.932 234.416 156.188 234.512C156.444 234.608 156.711 234.656 156.988 234.656C157.468 234.656 157.873 234.571 158.204 234.4C158.535 234.219 158.807 233.973 159.02 233.664L160.3 234.688C159.543 235.712 158.444 236.224 157.004 236.224C156.407 236.224 155.857 236.133 155.356 235.952C154.855 235.76 154.417 235.493 154.044 235.152C153.681 234.811 153.393 234.395 153.18 233.904C152.977 233.403 152.876 232.837 152.876 232.208C152.876 231.589 152.977 231.029 153.18 230.528C153.393 230.016 153.681 229.584 154.044 229.232C154.407 228.869 154.833 228.592 155.324 228.4C155.825 228.197 156.364 228.096 156.94 228.096C157.473 228.096 157.964 228.187 158.412 228.368C158.871 228.539 159.265 228.8 159.596 229.152C159.927 229.493 160.183 229.925 160.364 230.448C160.556 230.96 160.652 231.563 160.652 232.256ZM162.511 228.32H164.351V229.6H164.383C164.597 229.152 164.895 228.789 165.279 228.512C165.663 228.235 166.111 228.096 166.623 228.096C166.698 228.096 166.778 228.101 166.863 228.112C166.949 228.112 167.023 228.123 167.087 228.144V229.904C166.959 229.872 166.847 229.851 166.751 229.84C166.666 229.829 166.581 229.824 166.495 229.824C166.058 229.824 165.706 229.904 165.439 230.064C165.173 230.224 164.965 230.416 164.815 230.64C164.666 230.864 164.565 231.093 164.511 231.328C164.458 231.563 164.431 231.749 164.431 231.888V236H162.511V228.32ZM172.436 224.672H175.588L178.532 232.72H178.58L181.492 224.672H184.66V236H182.66V226.896H182.628L179.188 236H177.78L174.388 226.896H174.356V236H172.436V224.672ZM186.61 232.128C186.61 231.52 186.717 230.971 186.93 230.48C187.154 229.979 187.453 229.552 187.826 229.2C188.2 228.848 188.642 228.576 189.154 228.384C189.666 228.192 190.21 228.096 190.786 228.096C191.362 228.096 191.906 228.192 192.418 228.384C192.93 228.576 193.373 228.848 193.746 229.2C194.12 229.552 194.413 229.979 194.626 230.48C194.85 230.971 194.962 231.52 194.962 232.128C194.962 232.736 194.85 233.291 194.626 233.792C194.413 234.293 194.12 234.725 193.746 235.088C193.373 235.44 192.93 235.717 192.418 235.92C191.906 236.123 191.362 236.224 190.786 236.224C190.21 236.224 189.666 236.123 189.154 235.92C188.642 235.717 188.2 235.44 187.826 235.088C187.453 234.725 187.154 234.293 186.93 233.792C186.717 233.291 186.61 232.736 186.61 232.128ZM188.562 232.128C188.562 232.427 188.605 232.725 188.69 233.024C188.786 233.323 188.925 233.589 189.106 233.824C189.288 234.059 189.517 234.251 189.794 234.4C190.072 234.549 190.402 234.624 190.786 234.624C191.17 234.624 191.501 234.549 191.778 234.4C192.056 234.251 192.285 234.059 192.466 233.824C192.648 233.589 192.781 233.323 192.866 233.024C192.962 232.725 193.01 232.427 193.01 232.128C193.01 231.829 192.962 231.536 192.866 231.248C192.781 230.949 192.648 230.683 192.466 230.448C192.285 230.213 192.056 230.027 191.778 229.888C191.501 229.739 191.17 229.664 190.786 229.664C190.402 229.664 190.072 229.739 189.794 229.888C189.517 230.027 189.288 230.213 189.106 230.448C188.925 230.683 188.786 230.949 188.69 231.248C188.605 231.536 188.562 231.829 188.562 232.128ZM196.824 228.32H198.648V229.552H198.68C198.851 229.168 199.144 228.832 199.56 228.544C199.987 228.245 200.488 228.096 201.064 228.096C201.565 228.096 201.992 228.187 202.344 228.368C202.707 228.539 203 228.768 203.224 229.056C203.459 229.344 203.629 229.675 203.736 230.048C203.843 230.421 203.896 230.805 203.896 231.2V236H201.976V231.744C201.976 231.52 201.96 231.285 201.928 231.04C201.896 230.795 201.827 230.576 201.72 230.384C201.613 230.181 201.464 230.016 201.272 229.888C201.091 229.76 200.845 229.696 200.536 229.696C200.227 229.696 199.96 229.76 199.736 229.888C199.512 230.005 199.325 230.16 199.176 230.352C199.037 230.544 198.931 230.768 198.856 231.024C198.781 231.269 198.744 231.52 198.744 231.776V236H196.824V228.32ZM206.168 228.32H208.088V236H206.168V228.32ZM205.896 225.712C205.896 225.403 206.008 225.136 206.232 224.912C206.467 224.677 206.76 224.56 207.112 224.56C207.464 224.56 207.758 224.672 207.992 224.896C208.238 225.109 208.36 225.381 208.36 225.712C208.36 226.043 208.238 226.32 207.992 226.544C207.758 226.757 207.464 226.864 207.112 226.864C206.76 226.864 206.467 226.752 206.232 226.528C206.008 226.293 205.896 226.021 205.896 225.712ZM209.314 229.856V228.32H210.658V226.096H212.546V228.32H214.466V229.856H212.546V233.424C212.546 233.765 212.604 234.048 212.722 234.272C212.85 234.496 213.127 234.608 213.554 234.608C213.682 234.608 213.82 234.597 213.97 234.576C214.119 234.544 214.252 234.501 214.37 234.448L214.434 235.952C214.263 236.016 214.06 236.064 213.826 236.096C213.591 236.139 213.367 236.16 213.154 236.16C212.642 236.16 212.226 236.091 211.906 235.952C211.586 235.803 211.33 235.605 211.138 235.36C210.956 235.104 210.828 234.816 210.754 234.496C210.69 234.165 210.658 233.813 210.658 233.44V229.856H209.314ZM215.407 232.128C215.407 231.52 215.514 230.971 215.727 230.48C215.951 229.979 216.25 229.552 216.623 229.2C216.996 228.848 217.439 228.576 217.951 228.384C218.463 228.192 219.007 228.096 219.583 228.096C220.159 228.096 220.703 228.192 221.215 228.384C221.727 228.576 222.17 228.848 222.543 229.2C222.916 229.552 223.21 229.979 223.423 230.48C223.647 230.971 223.759 231.52 223.759 232.128C223.759 232.736 223.647 233.291 223.423 233.792C223.21 234.293 222.916 234.725 222.543 235.088C222.17 235.44 221.727 235.717 221.215 235.92C220.703 236.123 220.159 236.224 219.583 236.224C219.007 236.224 218.463 236.123 217.951 235.92C217.439 235.717 216.996 235.44 216.623 235.088C216.25 234.725 215.951 234.293 215.727 233.792C215.514 233.291 215.407 232.736 215.407 232.128ZM217.359 232.128C217.359 232.427 217.402 232.725 217.487 233.024C217.583 233.323 217.722 233.589 217.903 233.824C218.084 234.059 218.314 234.251 218.591 234.4C218.868 234.549 219.199 234.624 219.583 234.624C219.967 234.624 220.298 234.549 220.575 234.4C220.852 234.251 221.082 234.059 221.263 233.824C221.444 233.589 221.578 233.323 221.663 233.024C221.759 232.725 221.807 232.427 221.807 232.128C221.807 231.829 221.759 231.536 221.663 231.248C221.578 230.949 221.444 230.683 221.263 230.448C221.082 230.213 220.852 230.027 220.575 229.888C220.298 229.739 219.967 229.664 219.583 229.664C219.199 229.664 218.868 229.739 218.591 229.888C218.314 230.027 218.084 230.213 217.903 230.448C217.722 230.683 217.583 230.949 217.487 231.248C217.402 231.536 217.359 231.829 217.359 232.128ZM225.621 228.32H227.461V229.6H227.493C227.706 229.152 228.005 228.789 228.389 228.512C228.773 228.235 229.221 228.096 229.733 228.096C229.807 228.096 229.887 228.101 229.973 228.112C230.058 228.112 230.133 228.123 230.197 228.144V229.904C230.069 229.872 229.957 229.851 229.861 229.84C229.775 229.829 229.69 229.824 229.605 229.824C229.167 229.824 228.815 229.904 228.549 230.064C228.282 230.224 228.074 230.416 227.925 230.64C227.775 230.864 227.674 231.093 227.621 231.328C227.567 231.563 227.541 231.749 227.541 231.888V236H225.621V228.32Z" fill="white"/>
</g>
<g filter="url(#filter3_b_208_6575)">
<rect x="433.766" y="313.967" width="195" height="64" rx="32" fill="black" fill-opacity="0.4"/>
<path d="M509.014 339.639V350.967H515.846V349.175H511.03V339.639H509.014ZM521.858 349.991V350.967H523.65V346.295C523.65 345.911 523.586 345.527 523.49 345.143C523.394 344.759 523.218 344.423 522.962 344.103C522.706 343.799 522.354 343.543 521.906 343.351C521.458 343.159 520.898 343.063 520.226 343.063C519.634 343.063 519.058 343.175 518.482 343.367C517.906 343.575 517.41 343.879 516.978 344.279L517.97 345.447C518.21 345.207 518.514 344.999 518.898 344.823C519.266 344.663 519.65 344.567 520.066 344.567C520.546 344.567 520.946 344.695 521.298 344.919C521.65 345.143 521.826 345.495 521.826 345.975V346.167C521.218 346.167 520.61 346.199 519.986 346.263C519.362 346.327 518.802 346.439 518.289 346.615C517.778 346.807 517.346 347.063 517.026 347.399C516.706 347.751 516.546 348.199 516.546 348.775C516.546 349.223 516.626 349.607 516.818 349.911C517.01 350.215 517.234 350.455 517.522 350.647C517.81 350.839 518.114 350.967 518.45 351.047C518.786 351.127 519.106 351.159 519.426 351.159C519.97 351.159 520.45 351.063 520.882 350.839C521.298 350.615 521.618 350.343 521.81 349.991H521.858ZM521.826 347.463V347.735C521.826 348.343 521.65 348.823 521.314 349.175C520.962 349.527 520.466 349.703 519.81 349.703C519.65 349.703 519.49 349.687 519.33 349.655C519.17 349.623 519.026 349.575 518.898 349.495C518.77 349.431 518.658 349.335 518.578 349.207C518.498 349.079 518.466 348.935 518.466 348.743C518.466 348.455 518.562 348.231 518.754 348.071C518.946 347.911 519.186 347.783 519.474 347.687C519.762 347.591 520.066 347.543 520.418 347.511C520.754 347.479 521.074 347.463 521.394 347.463H521.826ZM532.894 350.967V343.287H530.974V347.511C530.974 347.767 530.926 348.023 530.862 348.279C530.782 348.535 530.67 348.743 530.526 348.935C530.382 349.127 530.19 349.287 529.966 349.415C529.742 349.543 529.47 349.591 529.182 349.591C528.862 349.591 528.622 349.527 528.43 349.399C528.238 349.271 528.094 349.111 527.998 348.919C527.886 348.727 527.822 348.503 527.79 348.247C527.758 348.007 527.742 347.767 527.742 347.543V343.287H525.822V348.087C525.822 348.487 525.87 348.871 525.982 349.239C526.078 349.623 526.254 349.943 526.478 350.231C526.702 350.519 527.006 350.759 527.358 350.935C527.71 351.111 528.142 351.191 528.654 351.191C529.23 351.191 529.726 351.047 530.142 350.759C530.558 350.471 530.862 350.119 531.038 349.735H531.07V350.967H532.894ZM535.199 343.287V350.967H537.119V346.743C537.119 346.487 537.151 346.247 537.231 345.991C537.295 345.735 537.407 345.511 537.551 345.319C537.695 345.127 537.887 344.983 538.111 344.855C538.335 344.727 538.591 344.663 538.911 344.663C539.215 344.663 539.455 344.727 539.647 344.855C539.839 344.983 539.983 345.159 540.095 345.351C540.191 345.543 540.271 345.767 540.303 346.007C540.335 346.263 540.351 346.487 540.351 346.711V350.967H542.271V346.167C542.271 345.783 542.207 345.399 542.111 345.015C541.999 344.647 541.823 344.311 541.599 344.023C541.375 343.735 541.071 343.511 540.719 343.335C540.367 343.159 539.935 343.063 539.439 343.063C538.863 343.063 538.351 343.223 537.935 343.511C537.519 343.799 537.215 344.135 537.055 344.519H537.023V343.287H535.199ZM549.759 345.415L551.071 344.263C550.751 343.895 550.335 343.607 549.807 343.383C549.279 343.175 548.735 343.063 548.175 343.063C547.599 343.063 547.071 343.159 546.575 343.351C546.079 343.543 545.647 343.815 545.279 344.167C544.895 344.519 544.607 344.951 544.383 345.447C544.159 345.959 544.063 346.519 544.063 347.127C544.063 347.767 544.159 348.343 544.383 348.839C544.607 349.351 544.895 349.767 545.279 350.119C545.663 350.471 546.095 350.743 546.607 350.919C547.119 351.111 547.647 351.191 548.223 351.191C548.799 351.191 549.327 351.111 549.823 350.919C550.319 350.727 550.735 350.471 551.055 350.119L549.855 348.903C549.663 349.127 549.423 349.303 549.135 349.415C548.831 349.543 548.527 349.591 548.239 349.591C547.871 349.591 547.551 349.527 547.279 349.383C547.007 349.239 546.783 349.047 546.607 348.807C546.415 348.583 546.287 348.311 546.191 348.023C546.095 347.735 546.063 347.431 546.063 347.127C546.063 346.839 546.095 346.535 546.191 346.247C546.271 345.959 546.399 345.687 546.575 345.447C546.751 345.223 546.975 345.031 547.247 344.887C547.503 344.743 547.823 344.663 548.175 344.663C548.479 344.663 548.783 344.743 549.087 344.887C549.375 345.031 549.599 345.207 549.759 345.415ZM556.596 343.063C556.308 343.063 556.036 343.111 555.796 343.175C555.54 343.255 555.332 343.351 555.14 343.479C554.948 343.607 554.772 343.735 554.628 343.895C554.484 344.055 554.372 344.199 554.308 344.359H554.276V338.871H552.356V350.967H554.276V346.775C554.276 346.519 554.308 346.279 554.388 346.023C554.452 345.783 554.564 345.559 554.724 345.367C554.868 345.175 555.06 345.015 555.284 344.887C555.508 344.775 555.764 344.711 556.084 344.711C556.388 344.711 556.628 344.775 556.82 344.903C557.012 345.031 557.156 345.207 557.252 345.399C557.348 345.591 557.428 345.815 557.46 346.055C557.492 346.295 557.508 346.519 557.508 346.743V350.967H559.428V346.167C559.428 345.783 559.364 345.399 559.268 345.015C559.156 344.647 558.98 344.311 558.756 344.023C558.532 343.735 558.228 343.511 557.876 343.335C557.524 343.159 557.092 343.063 556.596 343.063ZM569.034 339.639L564.106 350.967H566.362L567.386 348.375H572.298L573.354 350.967H575.658L570.778 339.639H569.034ZM571.594 346.647H568.074L569.85 342.039L571.594 346.647ZM583.691 350.967V343.287H581.771V347.511C581.771 347.767 581.723 348.023 581.659 348.279C581.579 348.535 581.467 348.743 581.323 348.935C581.179 349.127 580.987 349.287 580.763 349.415C580.539 349.543 580.267 349.591 579.979 349.591C579.659 349.591 579.419 349.527 579.227 349.399C579.035 349.271 578.891 349.111 578.795 348.919C578.683 348.727 578.619 348.503 578.587 348.247C578.555 348.007 578.539 347.767 578.539 347.543V343.287H576.619V348.087C576.619 348.487 576.667 348.871 576.779 349.239C576.875 349.623 577.051 349.943 577.275 350.231C577.499 350.519 577.803 350.759 578.155 350.935C578.507 351.111 578.939 351.191 579.451 351.191C580.027 351.191 580.523 351.047 580.939 350.759C581.355 350.471 581.659 350.119 581.835 349.735H581.867V350.967H583.691ZM593.804 350.967V338.871H591.884V344.263H591.836C591.74 344.135 591.612 344.007 591.468 343.863C591.308 343.735 591.132 343.607 590.924 343.479C590.716 343.367 590.476 343.271 590.204 343.191C589.916 343.111 589.612 343.063 589.26 343.063C588.716 343.063 588.204 343.175 587.756 343.383C587.292 343.591 586.892 343.879 586.572 344.231C586.236 344.599 585.98 345.031 585.804 345.511C585.612 346.007 585.532 346.535 585.532 347.095C585.532 347.671 585.612 348.199 585.788 348.695C585.964 349.191 586.22 349.623 586.54 349.991C586.86 350.359 587.26 350.647 587.724 350.871C588.188 351.095 588.716 351.191 589.308 351.191C589.852 351.191 590.348 351.079 590.828 350.839C591.308 350.615 591.676 350.263 591.948 349.815H591.98V350.967H593.804ZM587.484 347.095C587.484 346.807 587.516 346.503 587.612 346.215C587.708 345.927 587.836 345.655 588.028 345.415C588.204 345.191 588.428 344.999 588.716 344.855C588.988 344.711 589.308 344.631 589.692 344.631C590.044 344.631 590.348 344.711 590.636 344.855C590.908 345.015 591.148 345.207 591.34 345.431C591.532 345.671 591.692 345.943 591.788 346.231C591.884 346.535 591.948 346.839 591.948 347.127C591.948 347.431 591.884 347.735 591.788 348.023C591.692 348.311 591.532 348.583 591.34 348.807C591.148 349.047 590.908 349.239 590.636 349.383C590.348 349.527 590.044 349.591 589.692 349.591C589.308 349.591 588.988 349.527 588.716 349.367C588.428 349.223 588.204 349.031 588.028 348.791C587.836 348.567 587.708 348.295 587.612 347.991C587.516 347.703 587.484 347.399 587.484 347.095ZM596.168 343.287V350.967H598.088V343.287H596.168ZM595.896 340.679C595.896 340.999 596.008 341.271 596.232 341.495C596.456 341.719 596.76 341.831 597.112 341.831C597.464 341.831 597.752 341.735 597.992 341.511C598.232 341.287 598.36 341.015 598.36 340.679C598.36 340.359 598.232 340.087 597.992 339.863C597.752 339.639 597.464 339.527 597.112 339.527C596.76 339.527 596.456 339.655 596.232 339.879C596.008 340.103 595.896 340.375 595.896 340.679ZM599.314 344.823H600.658V348.407C600.658 348.791 600.69 349.143 600.754 349.463C600.818 349.783 600.946 350.071 601.138 350.327C601.33 350.583 601.586 350.775 601.906 350.919C602.226 351.063 602.642 351.127 603.154 351.127C603.362 351.127 603.586 351.111 603.826 351.079C604.05 351.047 604.258 350.983 604.434 350.919L604.37 349.415C604.242 349.479 604.114 349.511 603.97 349.543C603.81 349.575 603.682 349.575 603.554 349.575C603.122 349.575 602.85 349.463 602.722 349.239C602.594 349.015 602.546 348.743 602.546 348.391V344.823H604.466V343.287H602.546V341.063H600.658V343.287H599.314V344.823Z" fill="white"/>
</g>
<path fill-rule="evenodd" clip-rule="evenodd" d="M272 258C286.912 258 299 245.912 299 231C299 216.088 286.912 204 272 204C257.088 204 245 216.088 245 231C245 245.912 257.088 258 272 258ZM202 372C216.912 372 229 359.912 229 345C229 330.088 216.912 318 202 318C187.088 318 175 330.088 175 345C175 359.912 187.088 372 202 372ZM424 459C424 473.912 411.912 486 397 486C382.088 486 370 473.912 370 459C370 444.088 382.088 432 397 432C411.912 432 424 444.088 424 459ZM466 373C480.912 373 493 360.912 493 346C493 331.088 480.912 319 466 319C451.088 319 439 331.088 439 346C439 360.912 451.088 373 466 373Z" fill="url(#paint4_linear_208_6575)"/>
<path d="M474 346.5V340.8C474 339.12 474 338.28 473.673 337.638C473.385 337.074 472.926 336.615 472.362 336.327C471.72 336 470.88 336 469.2 336H462.8C461.12 336 460.28 336 459.638 336.327C459.074 336.615 458.615 337.074 458.327 337.638C458 338.28 458 339.12 458 340.8V351.2C458 352.88 458 353.72 458.327 354.362C458.615 354.926 459.074 355.385 459.638 355.673C460.28 356 461.12 356 462.8 356H466M468 345H462M464 349H462M470 341H462M468.5 353L470.5 355L475 350.5" stroke="white" stroke-width="1.5" stroke-linecap="round" stroke-linejoin="round"/>
<path d="M262.42 231.713C262.284 231.498 262.216 231.39 262.178 231.223C262.149 231.098 262.149 230.902 262.178 230.777C262.216 230.61 262.284 230.502 262.42 230.287C263.546 228.505 266.895 224 272 224C277.105 224 280.455 228.505 281.581 230.287C281.717 230.502 281.785 230.61 281.823 230.777C281.852 230.902 281.852 231.098 281.823 231.223C281.785 231.39 281.717 231.498 281.581 231.713C280.455 233.495 277.105 238 272 238C266.895 238 263.546 233.495 262.42 231.713Z" stroke="white" stroke-width="1.5" stroke-linecap="round" stroke-linejoin="round"/>
<path d="M272 234C273.657 234 275 232.657 275 231C275 229.343 273.657 228 272 228C270.344 228 269 229.343 269 231C269 232.657 270.344 234 272 234Z" stroke="white" stroke-width="1.5" stroke-linecap="round" stroke-linejoin="round"/>
<g clip-path="url(#clip0_208_6575)">
<path fill-rule="evenodd" clip-rule="evenodd" d="M207.869 335.971C207.861 335.972 207.855 335.975 207.851 335.978C207.848 335.98 207.843 335.984 207.839 335.992L205.023 340.868C204.653 340.531 204.229 340.252 203.766 340.045L206.54 335.242C207.037 334.381 208.207 334.208 208.931 334.889C211.403 337.214 213.136 340.215 213.913 343.518C214.14 344.486 213.406 345.413 212.412 345.413L206.46 345.413C206.535 345.079 206.574 344.731 206.574 344.375C206.574 344.219 206.567 344.065 206.552 343.913L212.412 343.913C212.421 343.913 212.426 343.911 212.43 343.909C212.435 343.907 212.44 343.903 212.445 343.897C212.449 343.891 212.452 343.885 212.453 343.88C212.454 343.876 212.455 343.871 212.453 343.861C211.743 340.845 210.161 338.105 207.904 335.982C207.897 335.976 207.892 335.974 207.888 335.972C207.883 335.971 207.876 335.97 207.869 335.971ZM197.415 335.25L200.128 339.951C199.655 340.133 199.218 340.39 198.832 340.706L196.116 336C196.111 335.992 196.107 335.988 196.103 335.986C196.099 335.983 196.093 335.981 196.085 335.98C196.078 335.979 196.071 335.979 196.067 335.981C196.063 335.982 196.058 335.984 196.051 335.991C193.793 338.113 192.211 340.854 191.502 343.87C191.5 343.879 191.5 343.884 191.501 343.888C191.502 343.893 191.505 343.899 191.51 343.905C191.514 343.911 191.52 343.915 191.524 343.917C191.528 343.919 191.533 343.921 191.542 343.921L197.115 343.921C197.101 344.07 197.094 344.222 197.094 344.375C197.094 344.734 197.134 345.084 197.209 345.421L191.542 345.421C190.548 345.421 189.814 344.494 190.042 343.526C190.819 340.223 192.551 337.222 195.023 334.898C195.748 334.217 196.918 334.389 197.415 335.25ZM196.083 353.19L198.985 348.164C199.383 348.464 199.83 348.702 200.311 348.865L197.382 353.94C197.377 353.948 197.376 353.953 197.376 353.957C197.376 353.962 197.376 353.969 197.379 353.976C197.382 353.983 197.386 353.989 197.39 353.992C197.392 353.995 197.397 353.998 197.406 354.001C200.373 354.894 203.537 354.894 206.504 354.001C206.513 353.998 206.517 353.995 206.52 353.992C206.524 353.989 206.528 353.983 206.531 353.976C206.533 353.969 206.534 353.962 206.534 353.957C206.534 353.953 206.533 353.948 206.528 353.94L203.556 348.793C204.029 348.608 204.465 348.35 204.849 348.033L207.827 353.19C208.324 354.051 207.888 355.15 206.937 355.437C203.688 356.416 200.222 356.416 196.973 355.437C196.021 355.15 195.586 354.051 196.083 353.19ZM204.213 344.375C204.213 345.689 203.148 346.753 201.835 346.753C200.521 346.753 199.456 345.689 199.456 344.375C199.456 343.061 200.521 341.996 201.835 341.996C203.148 341.996 204.213 343.061 204.213 344.375ZM205.713 344.375C205.713 346.517 203.977 348.253 201.835 348.253C199.693 348.253 197.956 346.517 197.956 344.375C197.956 342.233 199.693 340.496 201.835 340.496C203.977 340.496 205.713 342.233 205.713 344.375Z" fill="white"/>
</g>
<path fill-rule="evenodd" clip-rule="evenodd" d="M394.75 459.5C394.75 459.149 394.694 458.811 394.591 458.494L398.45 455.6C398.781 455.352 398.849 454.881 398.6 454.55C398.351 454.219 397.881 454.152 397.55 454.4L393.805 457.209C393.216 456.617 392.401 456.25 391.5 456.25C389.938 456.25 388.633 457.352 388.321 458.822C388.224 458.776 388.115 458.75 388 458.75H383C382.586 458.75 382.25 459.086 382.25 459.5C382.25 459.914 382.586 460.25 383 460.25H388C388.115 460.25 388.224 460.224 388.321 460.178C388.633 461.648 389.938 462.75 391.5 462.75C393.295 462.75 394.75 461.295 394.75 459.5ZM405.663 460.25C405.324 461.683 404.037 462.75 402.5 462.75C400.705 462.75 399.25 461.295 399.25 459.5C399.25 457.705 400.705 456.25 402.5 456.25C404.037 456.25 405.324 457.317 405.663 458.75H411C411.414 458.75 411.75 459.086 411.75 459.5C411.75 459.914 411.414 460.25 411 460.25H405.663ZM391.5 457.75C390.534 457.75 389.75 458.534 389.75 459.5C389.75 460.467 390.534 461.25 391.5 461.25C392.466 461.25 393.25 460.467 393.25 459.5C393.25 458.534 392.466 457.75 391.5 457.75ZM400.75 459.5C400.75 458.534 401.534 457.75 402.5 457.75C403.466 457.75 404.25 458.534 404.25 459.5C404.25 460.467 403.466 461.25 402.5 461.25C401.534 461.25 400.75 460.467 400.75 459.5Z" fill="white"/>
<defs>
<filter id="filter0_b_208_6575" x="7" y="301" width="239" height="88" filterUnits="userSpaceOnUse" color-interpolation-filters="sRGB">
<feFlood flood-opacity="0" result="BackgroundImageFix"/>
<feGaussianBlur in="BackgroundImageFix" stdDeviation="6"/>
<feComposite in2="SourceAlpha" operator="in" result="effect1_backgroundBlur_208_6575"/>
<feBlend mode="normal" in="SourceGraphic" in2="effect1_backgroundBlur_208_6575" result="shape"/>
</filter>
<filter id="filter1_b_208_6575" x="353.094" y="415" width="229" height="88" filterUnits="userSpaceOnUse" color-interpolation-filters="sRGB">
<feFlood flood-opacity="0" result="BackgroundImageFix"/>
<feGaussianBlur in="BackgroundImageFix" stdDeviation="6"/>
<feComposite in2="SourceAlpha" operator="in" result="effect1_backgroundBlur_208_6575"/>
<feBlend mode="normal" in="SourceGraphic" in2="effect1_backgroundBlur_208_6575" result="shape"/>
</filter>
<filter id="filter2_b_208_6575" x="39.2656" y="187" width="276" height="88" filterUnits="userSpaceOnUse" color-interpolation-filters="sRGB">
<feFlood flood-opacity="0" result="BackgroundImageFix"/>
<feGaussianBlur in="BackgroundImageFix" stdDeviation="6"/>
<feComposite in2="SourceAlpha" operator="in" result="effect1_backgroundBlur_208_6575"/>
<feBlend mode="normal" in="SourceGraphic" in2="effect1_backgroundBlur_208_6575" result="shape"/>
</filter>
<filter id="filter3_b_208_6575" x="421.766" y="301.967" width="219" height="88" filterUnits="userSpaceOnUse" color-interpolation-filters="sRGB">
<feFlood flood-opacity="0" result="BackgroundImageFix"/>
<feGaussianBlur in="BackgroundImageFix" stdDeviation="6"/>
<feComposite in2="SourceAlpha" operator="in" result="effect1_backgroundBlur_208_6575"/>
<feBlend mode="normal" in="SourceGraphic" in2="effect1_backgroundBlur_208_6575" result="shape"/>
</filter>
<linearGradient id="paint0_linear_208_6575" x1="366.345" y1="503.51" x2="380.753" y2="198.534" gradientUnits="userSpaceOnUse">
<stop stop-color="#5C12D5"/>
<stop offset="1" stop-color="#35FFE7"/>
</linearGradient>
<linearGradient id="paint1_linear_208_6575" x1="266.095" y1="223.224" x2="266.095" y2="237.478" gradientUnits="userSpaceOnUse">
<stop stop-color="#4C71F3"/>
<stop offset="1" stop-color="#8AA4FF"/>
</linearGradient>
<linearGradient id="paint2_linear_208_6575" x1="267.126" y1="453.054" x2="267.126" y2="467.308" gradientUnits="userSpaceOnUse">
<stop stop-color="#4C71F3"/>
<stop offset="1" stop-color="#8AA4FF"/>
</linearGradient>
<linearGradient id="paint3_linear_208_6575" x1="464.634" y1="339.023" x2="464.634" y2="353.277" gradientUnits="userSpaceOnUse">
<stop stop-color="#4C71F3"/>
<stop offset="1" stop-color="#8AA4FF"/>
</linearGradient>
<linearGradient id="paint4_linear_208_6575" x1="262" y1="456.5" x2="405.874" y2="193.251" gradientUnits="userSpaceOnUse">
<stop stop-color="#5C12D5"/>
<stop offset="1" stop-color="#32FFE6"/>
</linearGradient>
<clipPath id="clip0_208_6575">
<rect width="24" height="24" fill="white" transform="translate(190 333)"/>
</clipPath>
</defs>
</svg>
