<svg width="94" height="20" viewBox="0 0 94 20" fill="none" xmlns="http://www.w3.org/2000/svg">
<path d="M4.93504 0.0436536C4.526 -0.0145512 4.11091 -0.0145512 3.70188 0.0436536C2.77896 0.181344 1.92454 0.61636 1.26543 1.28413C0.606323 1.9519 0.177667 2.81684 0.043089 3.75054C0.0143065 3.95715 -0.000116492 4.16554 -7.2387e-05 4.37418V15.6233C-0.000116492 15.832 0.0143065 16.0404 0.043089 16.247C0.177179 17.1811 0.605618 18.0466 1.26477 18.7149C1.92391 19.3831 2.7786 19.8185 3.70188 19.9563C4.11091 20.0146 4.526 20.0146 4.93504 19.9563C5.85907 19.8199 6.71488 19.3854 7.3752 18.7175C8.03552 18.0497 8.46508 17.1841 8.59999 16.2495C8.62877 16.0429 8.64319 15.8345 8.64315 15.6258V4.37418C8.64319 4.16554 8.62877 3.95715 8.59999 3.75054C8.46508 2.81594 8.03552 1.95033 7.3752 1.28246C6.71488 0.61458 5.85907 0.180109 4.93504 0.0436536V0.0436536ZM4.93504 1.30963C5.52916 1.43334 6.0744 1.73049 6.50332 2.16432C6.93224 2.59814 7.22602 3.14962 7.34833 3.75054H4.93504V1.30963ZM3.70188 1.30963V3.75054H1.28981C1.41174 3.14965 1.70524 2.59813 2.13398 2.16427C2.56271 1.7304 3.10784 1.43326 3.70188 1.30963V1.30963ZM1.22816 4.99782H3.70188V7.49984H1.22816V4.99782ZM1.22816 8.74711H3.70188V11.2504H1.22816V8.74711ZM1.22816 12.4977H3.70188V14.9997H1.22816V12.4977ZM3.70188 18.6879C3.10784 18.5642 2.56271 18.2671 2.13398 17.8332C1.70524 17.3994 1.41174 16.8479 1.28981 16.247H3.70188V18.6879ZM4.93504 18.6879V16.247H7.34833C7.22602 16.8479 6.93224 17.3994 6.50332 17.8332C6.0744 18.267 5.52916 18.5642 4.93504 18.6879V18.6879ZM7.40999 14.9997H4.93504V12.4977H7.40999V14.9997ZM7.40999 11.2504H4.93504V8.74711H7.40999V11.2504ZM7.40999 7.49984H4.93504V4.99782H7.40999V7.49984ZM25.8963 3.75054C25.7614 2.81594 25.3318 1.95033 24.6715 1.28246C24.0112 0.61458 23.1554 0.180109 22.2313 0.0436536C21.8223 -0.0145512 21.4072 -0.0145512 20.9982 0.0436536C20.0744 0.180356 19.2188 0.614936 18.5588 1.28279C17.8987 1.95065 17.4693 2.81612 17.3345 3.75054C17.3057 3.95715 17.2913 4.16554 17.2913 4.37418V15.6233C17.2913 15.832 17.3057 16.0404 17.3345 16.247C17.4688 17.1818 17.898 18.0479 18.5581 18.7162C19.2182 19.3846 20.074 19.8195 20.9982 19.9563C21.4072 20.0146 21.8223 20.0146 22.2313 19.9563C23.1557 19.8198 24.0118 19.3849 24.6722 18.7166C25.3325 18.0482 25.7619 17.182 25.8963 16.247C25.9251 16.0404 25.9395 15.832 25.9395 15.6233V4.37418C25.9395 4.16554 25.9251 3.95715 25.8963 3.75054V3.75054ZM22.2313 1.30963C22.8255 1.43334 23.3707 1.73049 23.7996 2.16432C24.2285 2.59814 24.5223 3.14962 24.6446 3.75054H22.2313V1.30963ZM20.9982 1.30963V3.75054H18.5861C18.708 3.14965 19.0015 2.59813 19.4303 2.16427C19.859 1.7304 20.4041 1.43326 20.9982 1.30963V1.30963ZM18.5245 4.99782H20.9982V7.49984H18.5245V4.99782ZM18.5245 8.74711H20.9982V11.2504H18.5245V8.74711ZM18.5245 12.4977H20.9982V14.9997H18.5245V12.4977ZM20.9982 18.6879C20.4041 18.5642 19.859 18.2671 19.4303 17.8332C19.0015 17.3994 18.708 16.8479 18.5861 16.247H20.9982V18.6879ZM22.2313 18.6879V16.247H24.6446C24.5223 16.8479 24.2285 17.3994 23.7996 17.8332C23.3707 18.267 22.8255 18.5642 22.2313 18.6879V18.6879ZM24.7063 14.9997H22.2313V12.4977H24.7063V14.9997ZM24.7063 11.2504H22.2313V8.74711H24.7063V11.2504ZM24.7063 7.49984H22.2313V4.99782H24.7063V7.49984ZM9.87877 6.87621H12.3451V9.37075H9.87877V6.87621ZM13.5869 6.87621H16.0532V9.37075H13.5869V6.87621ZM9.87877 10.6268H12.3451V13.1213H9.87877V10.6268ZM13.5869 10.6268H16.0532V13.1213H13.5869V10.6268Z" fill="url(#paint0_linear_1268_18451)"/>
<path d="M40.1236 8.65193H33.387V2.76172H30.9277V16.9884H33.387V11.0773H40.1236V16.9884H42.585V2.76172H40.1236V8.65193Z" fill="white"/>
<path d="M51.7516 12.2612C51.7595 12.5978 51.6996 12.9326 51.5754 13.2455C51.4513 13.5584 51.2655 13.843 51.0291 14.0823C50.7927 14.3215 50.5106 14.5106 50.1997 14.6381C49.8888 14.7656 49.5554 14.8289 49.2195 14.8243C48.9092 14.8367 48.6 14.7821 48.3126 14.6644C48.0252 14.5466 47.7663 14.3684 47.5535 14.1418C47.11 13.6764 46.8955 13.069 46.8955 12.28V6.01825H44.4424V12.3196C44.4111 13.2393 44.6268 14.1505 45.0672 14.9579C45.4622 15.6577 46.047 16.2309 46.7539 16.611C47.4195 16.9702 48.1637 17.1581 48.9196 17.1579C49.7123 17.187 50.4966 16.987 51.179 16.5818C51.3805 16.455 51.5739 16.3155 51.7579 16.1644V16.9993H54.2193V6.00781H51.7516V12.2612Z" fill="white"/>
<path d="M64.2204 6.61282C63.3772 6.09335 62.4029 5.82747 61.4134 5.8468C60.5954 5.82654 59.7852 6.0109 59.0561 6.38322C58.7943 6.52461 58.5468 6.69097 58.3169 6.87998V2H55.8555V16.9906H58.3169V16.1202C59.19 16.829 60.2907 17.1948 61.4134 17.1492C62.3803 17.1742 63.3341 16.9203 64.1613 16.4178C64.9886 15.9154 65.6545 15.1854 66.08 14.3148C66.5183 13.4395 66.7418 12.472 66.7318 11.4928C66.7442 10.5093 66.5206 9.53719 66.08 8.65832C65.6558 7.82068 65.0132 7.11383 64.2204 6.61282ZM64.2725 11.4991C64.2777 12.0816 64.1502 12.6577 63.8998 13.1835C63.6655 13.6937 63.2848 14.1223 62.8063 14.4145C62.3278 14.7067 61.7732 14.8493 61.2135 14.824C60.6441 14.8442 60.0821 14.6906 59.6017 14.3836C59.1581 14.0915 58.8076 13.6778 58.5917 13.1918C58.3569 12.6571 58.2356 12.0792 58.2356 11.4949C58.2356 10.9106 58.3569 10.3327 58.5917 9.79796C58.815 9.29428 59.1846 8.86984 59.6524 8.58012C60.1201 8.2904 60.6642 8.14888 61.2135 8.17408C61.7723 8.14837 62.3261 8.28983 62.8044 8.58049C63.2827 8.87114 63.664 9.29784 63.8998 9.80631C64.1524 10.3342 64.28 10.9136 64.2725 11.4991Z" fill="white"/>
<path d="M76.115 6.61282C75.2717 6.09356 74.2974 5.82771 73.3079 5.8468C72.4899 5.82628 71.6796 6.01065 70.9506 6.38322C70.6882 6.5246 70.44 6.69095 70.2093 6.87998V2H67.75V16.9906H70.2093V16.1202C71.0838 16.828 72.1848 17.1936 73.3079 17.1492C74.2749 17.1742 75.2286 16.9203 76.0559 16.4178C76.8831 15.9154 77.549 15.1854 77.9745 14.3148C78.4128 13.4395 78.6363 12.472 78.6263 11.4928C78.6387 10.5093 78.4152 9.53719 77.9745 8.65832C77.5503 7.82068 76.9077 7.11383 76.115 6.61282ZM76.167 11.4991C76.1712 12.0815 76.0438 12.6574 75.7943 13.1835C75.56 13.6937 75.1793 14.1223 74.7008 14.4145C74.2223 14.7067 73.6678 14.8493 73.108 14.824C72.5386 14.8445 71.9765 14.6909 71.4962 14.3836C71.055 14.0906 70.7067 13.677 70.4925 13.1918C70.2533 12.66 70.1318 12.0825 70.1364 11.4991C70.1282 10.9126 70.2498 10.3316 70.4925 9.79796C70.7157 9.29428 71.0854 8.86984 71.5531 8.58012C72.0209 8.2904 72.565 8.14888 73.1142 8.17408C73.673 8.14837 74.2268 8.28983 74.7052 8.58049C75.1835 8.87114 75.5648 9.29784 75.8005 9.80631C76.0511 10.3348 76.1765 10.9141 76.167 11.4991Z" fill="white"/>
<path d="M82.1038 2H79.6445V16.9906H82.1038V2Z" fill="white"/>
<path d="M93.9993 11.5C94.0116 10.5165 93.7881 9.54437 93.3475 8.6655C92.9224 7.82166 92.274 7.11117 91.4733 6.61165C90.5893 6.11084 89.5911 5.84766 88.5757 5.84766C87.5602 5.84766 86.5621 6.11084 85.678 6.61165C84.8687 7.10701 84.2126 7.81809 83.7831 8.6655C83.3434 9.5447 83.1199 10.5166 83.1313 11.5C83.123 12.4868 83.3599 13.4602 83.8205 14.3324C84.2694 15.1827 84.9411 15.8943 85.7634 16.3904C86.6464 16.909 87.6556 17.172 88.6788 17.1502C89.9657 17.1502 91.0402 16.8308 91.8752 16.2025C92.6927 15.5882 93.3201 14.7546 93.6848 13.798L93.9368 13.1426H91.2943L91.1568 13.3952C90.9318 13.8201 90.6011 14.1796 90.1968 14.4388C89.7406 14.7153 89.2136 14.8517 88.6808 14.8312C88.1473 14.8429 87.62 14.7133 87.1524 14.4555C86.7251 14.2206 86.3662 13.8782 86.1112 13.462C85.9426 13.1882 85.8123 12.8925 85.7239 12.5833H93.9889L93.9993 11.5ZM85.7738 10.2163C85.9349 9.71423 86.215 9.25873 86.5901 8.88883C87.0816 8.4025 87.725 8.16664 88.5621 8.16664C89.3993 8.16664 90.0469 8.4025 90.5446 8.89092C90.9205 9.25531 91.1996 9.70802 91.3567 10.208L85.7738 10.2163Z" fill="white"/>
<defs>
<linearGradient id="paint0_linear_1268_18451" x1="-3.81471" y1="21.4146" x2="19.4256" y2="-12.6687" gradientUnits="userSpaceOnUse">
<stop stop-color="#FF00FF"/>
<stop offset="0.462607" stop-color="#7A84FF"/>
<stop offset="1" stop-color="#05FAFF"/>
</linearGradient>
</defs>
</svg>
