<svg width="44" height="42" viewBox="0 0 44 42" fill="none" xmlns="http://www.w3.org/2000/svg">
<path d="M18.4359 7.56986L18.9189 7.44045L18.7894 6.95749L18.3065 7.08689L18.4359 7.56986ZM35.2833 17.2967L35.7663 17.1673L35.6369 16.6844L35.1539 16.8138L35.2833 17.2967ZM5.27816 11.6131L18.5653 8.05282L18.3065 7.08689L5.01934 10.6472L5.27816 11.6131ZM17.9529 7.69927L21.5132 20.9864L22.4791 20.7276L18.9189 7.44045L17.9529 7.69927ZM34.8004 17.4261L38.3606 30.7133L39.3266 30.4545L35.7663 17.1673L34.8004 17.4261ZM35.1539 16.8138L21.8668 20.374L22.1256 21.34L35.4127 17.7797L35.1539 16.8138ZM21.8668 20.374C14.7952 22.2689 7.52653 18.0723 5.63171 11.0007L4.66578 11.2595C6.70354 18.8646 14.5206 23.3777 22.1256 21.34L21.8668 20.374ZM21.5132 20.9864C23.551 28.5914 31.368 33.1046 38.973 31.0668L38.7142 30.1009C31.6426 31.9957 24.374 27.7991 22.4791 20.7276L21.5132 20.9864Z" fill="url(#paint0_radial_836_1121)"/>
<path d="M31.293 11L31.6527 11.3473L31.988 11L31.6527 10.6527L31.293 11ZM31.293 31L31.6527 31.3473L31.988 31L31.6527 30.6527L31.293 31ZM21.2781 1.3473L30.9333 11.3473L31.6527 10.6527L21.9975 0.652702L21.2781 1.3473ZM30.9333 10.6527L21.2781 20.6527L21.9975 21.3473L31.6527 11.3473L30.9333 10.6527ZM30.9333 30.6527L21.2781 40.6527L21.9975 41.3473L31.6527 31.3473L30.9333 30.6527ZM31.6527 30.6527L21.9975 20.6527L21.2781 21.3473L30.9333 31.3473L31.6527 30.6527ZM21.9975 20.6527C16.7982 15.2677 16.7982 6.73225 21.9975 1.3473L21.2781 0.652702C15.7047 6.42515 15.7047 15.5749 21.2781 21.3473L21.9975 20.6527ZM21.2781 20.6527C15.7047 26.4251 15.7047 35.5749 21.2781 41.3473L21.9975 40.6527C16.7982 35.2678 16.7982 26.7322 21.9975 21.3473L21.2781 20.6527Z" fill="url(#paint1_radial_836_1121)"/>
<path d="M35.2829 24.4156L35.1534 24.8985L35.6364 25.0279L35.7658 24.545L35.2829 24.4156ZM18.4354 34.1424L18.306 34.6254L18.789 34.7548L18.9184 34.2718L18.4354 34.1424ZM38.3602 10.999L34.7999 24.2862L35.7658 24.545L39.3261 11.2578L38.3602 10.999ZM35.4123 23.9326L22.1251 20.3723L21.8663 21.3382L35.1534 24.8985L35.4123 23.9326ZM18.5648 33.6595L5.2777 30.0992L5.01888 31.0651L18.306 34.6254L18.5648 33.6595ZM18.9184 34.2718L22.4787 20.9847L21.5127 20.7259L17.9525 34.013L18.9184 34.2718ZM22.4787 20.9847C24.3735 13.9131 31.6422 9.71656 38.7137 11.6114L38.9725 10.6455C31.3675 8.60769 23.5505 13.1209 21.5127 20.7259L22.4787 20.9847ZM22.1251 20.3723C14.5201 18.3346 6.70308 22.8477 4.66532 30.4527L5.63125 30.7116C7.52607 23.64 14.7947 19.4434 21.8663 21.3382L22.1251 20.3723Z" fill="url(#paint2_radial_836_1121)"/>
<path d="M25.5563 34.143L25.0733 34.2724L25.2027 34.7554L25.6857 34.626L25.5563 34.143ZM8.70887 24.4162L8.22591 24.5456L8.35532 25.0285L8.83828 24.8991L8.70887 24.4162ZM38.714 30.0998L25.4269 33.6601L25.6857 34.626L38.9728 31.0657L38.714 30.0998ZM26.0393 34.0136L22.479 20.7265L21.5131 20.9853L25.0733 34.2724L26.0393 34.0136ZM9.19183 24.2868L5.63155 10.9996L4.66563 11.2584L8.22591 24.5456L9.19183 24.2868ZM8.83828 24.8991L22.1254 21.3389L21.8666 20.3729L8.57946 23.9332L8.83828 24.8991ZM22.1254 21.3389C29.197 19.444 36.4657 23.6406 38.3605 30.7122L39.3264 30.4533C37.2886 22.8483 29.4716 18.3352 21.8666 20.3729L22.1254 21.3389ZM22.479 20.7265C20.4412 13.1215 12.6242 8.6083 5.01918 10.6461L5.278 11.612C12.3496 9.71717 19.6182 13.9137 21.5131 20.9853L22.479 20.7265Z" fill="url(#paint3_radial_836_1121)"/>
<path d="M11.9883 31L11.6286 30.6527L11.2933 31L11.6286 31.3473L11.9883 31ZM11.9883 11L11.6286 10.6527L11.2933 11L11.6286 11.3473L11.9883 11ZM22.0032 40.6527L12.348 30.6527L11.6286 31.3473L21.2838 41.3473L22.0032 40.6527ZM12.348 31.3473L22.0032 21.3473L21.2838 20.6527L11.6286 30.6527L12.348 31.3473ZM12.348 11.3473L22.0032 1.3473L21.2838 0.652703L11.6286 10.6527L12.348 11.3473ZM11.6286 11.3473L21.2838 21.3473L22.0032 20.6527L12.348 10.6527L11.6286 11.3473ZM21.2838 21.3473C26.483 26.7323 26.483 35.2677 21.2838 40.6527L22.0032 41.3473C27.5765 35.5749 27.5765 26.4251 22.0032 20.6527L21.2838 21.3473ZM22.0032 21.3473C27.5765 15.5749 27.5765 6.42515 22.0032 0.652703L21.2838 1.3473C26.483 6.73225 26.483 15.2678 21.2838 20.6527L22.0032 21.3473Z" fill="url(#paint4_radial_836_1121)"/>
<path d="M8.71714 17.2954L8.84655 16.8124L8.36359 16.683L8.23418 17.166L8.71714 17.2954ZM25.5646 7.56851L25.694 7.08555L25.211 6.95614L25.0816 7.4391L25.5646 7.56851ZM5.63983 30.7119L9.20011 17.4248L8.23418 17.166L4.6739 30.4531L5.63983 30.7119ZM8.58773 17.7783L21.8749 21.3386L22.1337 20.3727L8.84655 16.8124L8.58773 17.7783ZM25.4352 8.05147L38.7223 11.6118L38.9811 10.6458L25.694 7.08555L25.4352 8.05147ZM25.0816 7.4391L21.5213 20.7262L22.4873 20.9851L26.0475 7.69792L25.0816 7.4391ZM21.5213 20.7262C19.6265 27.7978 12.3578 31.9944 5.28627 30.0996L5.02745 31.0655C12.6325 33.1032 20.4495 28.5901 22.4873 20.9851L21.5213 20.7262ZM21.8749 21.3386C29.4799 23.3764 37.2969 18.8632 39.3347 11.2582L38.3688 10.9994C36.4739 18.0709 29.2053 22.2675 22.1337 20.3727L21.8749 21.3386Z" fill="url(#paint5_radial_836_1121)"/>
<defs>
<radialGradient id="paint0_radial_836_1121" cx="0" cy="0" r="1" gradientUnits="userSpaceOnUse" gradientTransform="translate(17.8873 27.1459) rotate(-144.651) scale(108.503 12.5848)">
<stop stop-color="#5C12D5"/>
<stop offset="1" stop-color="#356EFF"/>
</radialGradient>
<radialGradient id="paint1_radial_836_1121" cx="0" cy="0" r="1" gradientUnits="userSpaceOnUse" gradientTransform="translate(14.1923 20.5745) rotate(-84.8349) scale(111.517 12.4957)">
<stop stop-color="#5C12D5"/>
<stop offset="1" stop-color="#356EFF"/>
</radialGradient>
<radialGradient id="paint2_radial_836_1121" cx="0" cy="0" r="1" gradientUnits="userSpaceOnUse" gradientTransform="translate(18.6038 14.1524) rotate(-24.6514) scale(108.503 12.5848)">
<stop stop-color="#5C12D5"/>
<stop offset="1" stop-color="#356EFF"/>
</radialGradient>
<radialGradient id="paint3_radial_836_1121" cx="0" cy="0" r="1" gradientUnits="userSpaceOnUse" gradientTransform="translate(26.1049 14.5669) rotate(35.3486) scale(108.503 12.5848)">
<stop stop-color="#5C12D5"/>
<stop offset="1" stop-color="#356EFF"/>
</radialGradient>
<radialGradient id="paint4_radial_836_1121" cx="0" cy="0" r="1" gradientUnits="userSpaceOnUse" gradientTransform="translate(29.089 21.4255) rotate(95.1651) scale(111.517 12.4957)">
<stop stop-color="#5C12D5"/>
<stop offset="1" stop-color="#356EFF"/>
</radialGradient>
<radialGradient id="paint5_radial_836_1121" cx="0" cy="0" r="1" gradientUnits="userSpaceOnUse" gradientTransform="translate(25.3962 27.5585) rotate(155.349) scale(108.503 12.5848)">
<stop stop-color="#5C12D5"/>
<stop offset="1" stop-color="#356EFF"/>
</radialGradient>
</defs>
</svg>
