<?xml version="1.0" encoding="utf-8"?>
<!-- Generator: Adobe Illustrator 26.3.1, SVG Export Plug-In . SVG Version: 6.00 Build 0)  -->
<svg version="1.1" id="Warstwa_1" xmlns:serif="http://www.serif.com/"
	 xmlns="http://www.w3.org/2000/svg" xmlns:xlink="http://www.w3.org/1999/xlink" x="0px" y="0px" viewBox="0 0 757.7 113.9"
	 style="enable-background:new 0 0 757.7 113.9;" xml:space="preserve">
<style type="text/css">
	.st0{fill:#FFFFFF;}
	.st1{fill-rule:evenodd;clip-rule:evenodd;fill:#FFFFFF;}
	.st2{fill-rule:evenodd;clip-rule:evenodd;fill:url(#SVGID_1_);}
</style>
<g id="invariant_horizontal_color" transform="matrix(1,0,0,1,-1083.91,1084.78)">
	<g transform="matrix(2.72231,0,0,2.72231,735.042,-102.654)">
		<g transform="matrix(2.32702,0,0,2.32702,519.64,-530.151)">
			<rect x="-133.6" y="74.3" class="st0" width="2.2" height="14.7"/>
			<path class="st0" d="M-118.8,83.5V89h-2.2v-5.5c0-0.6-0.1-1.1-0.4-1.6c-0.2-0.5-0.6-0.9-1-1.2c-0.4-0.3-0.9-0.4-1.5-0.4
				c-0.5,0-1,0.1-1.4,0.4s-0.7,0.7-1,1.2c-0.2,0.5-0.3,1-0.3,1.6V89h-2.2V78.5h2.2v1.4c0.4-0.5,0.8-1,1.3-1.3s1.1-0.5,1.8-0.5
				c0.9,0,1.8,0.2,2.5,0.7s1.2,1.1,1.6,1.9C-119,81.6-118.8,82.5-118.8,83.5z"/>
			<path class="st0" d="M-110.9,89h-2.8l-3.8-10.5h2.3l2.9,8l2.9-8h2.3L-110.9,89z"/>
			<path class="st0" d="M-97.6,78.5h2.2V89h-2.2l-0.1-1.5c-0.3,0.5-0.7,1-1.2,1.3s-1.1,0.5-1.9,0.5s-1.5-0.1-2.2-0.4
				s-1.3-0.7-1.8-1.2s-0.9-1.1-1.2-1.8c-0.3-0.7-0.4-1.4-0.4-2.2c0-0.8,0.1-1.5,0.4-2.1c0.3-0.7,0.7-1.2,1.2-1.7s1.1-0.9,1.7-1.2
				c0.7-0.3,1.4-0.4,2.1-0.4c0.8,0,1.4,0.2,2,0.5s1.1,0.8,1.4,1.3V78.5z M-100.8,87.2c0.6,0,1.2-0.2,1.6-0.5c0.5-0.3,0.8-0.7,1-1.3
				c0.2-0.5,0.3-1.1,0.3-1.8c0-0.6-0.2-1.2-0.5-1.7s-0.7-0.9-1.1-1.2c-0.5-0.3-1-0.4-1.6-0.4s-1.2,0.2-1.7,0.5s-0.9,0.7-1.2,1.3
				c-0.3,0.5-0.4,1.1-0.4,1.8c0,0.6,0.2,1.2,0.6,1.7c0.3,0.5,0.7,0.9,1.3,1.2C-101.9,87-101.4,87.2-100.8,87.2z"/>
			<path class="st0" d="M-86.7,80.7c-0.2-0.1-0.4-0.2-0.6-0.3c-0.2-0.1-0.4-0.1-0.7-0.1c-0.5,0-1,0.1-1.4,0.4s-0.7,0.7-1,1.2
				c-0.2,0.5-0.3,1-0.3,1.6V89h-2.2V78.5h2.2v1.4c0.4-0.5,0.8-0.9,1.3-1.2c0.5-0.3,1.1-0.5,1.8-0.5c0.2,0,0.5,0,0.7,0
				s0.4,0.1,0.6,0.1L-86.7,80.7z"/>
			<rect x="-84.8" y="78.5" class="st0" width="2.2" height="10.5"/>
			<path class="st0" d="M-71,78.5h2.2V89H-71l-0.1-1.5c-0.3,0.5-0.7,1-1.2,1.3s-1.1,0.5-1.9,0.5s-1.5-0.1-2.2-0.4s-1.3-0.7-1.8-1.2
				s-0.9-1.1-1.2-1.8c-0.3-0.7-0.4-1.4-0.4-2.2c0-0.8,0.1-1.5,0.4-2.1c0.3-0.7,0.7-1.2,1.2-1.7s1.1-0.9,1.7-1.2
				c0.7-0.3,1.4-0.4,2.1-0.4c0.8,0,1.4,0.2,2,0.5s1.1,0.8,1.4,1.3V78.5z M-74.1,87.2c0.6,0,1.2-0.2,1.6-0.5c0.5-0.3,0.8-0.7,1-1.3
				c0.2-0.5,0.3-1.1,0.3-1.8c0-0.6-0.2-1.2-0.5-1.7s-0.7-0.9-1.1-1.2c-0.5-0.3-1-0.4-1.6-0.4s-1.2,0.2-1.7,0.5s-0.9,0.7-1.2,1.3
				c-0.3,0.5-0.4,1.1-0.4,1.8c0,0.6,0.2,1.2,0.6,1.7c0.3,0.5,0.7,0.9,1.3,1.2C-75.3,87-74.7,87.2-74.1,87.2z"/>
			<path class="st0" d="M-56.5,83.5V89h-2.2v-5.5c0-0.6-0.1-1.1-0.4-1.6c-0.2-0.5-0.6-0.9-1-1.2c-0.4-0.3-0.9-0.4-1.5-0.4
				c-0.5,0-1,0.1-1.4,0.4s-0.7,0.7-1,1.2c-0.2,0.5-0.3,1-0.3,1.6V89h-2.2V78.5h2.2v1.4c0.4-0.5,0.8-1,1.3-1.3s1.1-0.5,1.8-0.5
				c0.9,0,1.8,0.2,2.5,0.7s1.2,1.1,1.6,1.9C-56.7,81.6-56.5,82.5-56.5,83.5z"/>
			<path class="st0" d="M-48.6,80.7h-2.2V89H-53v-8.3h-1.7v-2.2h1.7v-3.3h2.2v3.3h2.2V80.7z"/>
		</g>
		<g transform="matrix(1.06217,0,0,1.06217,-43.2582,-279.63)">
			<g transform="matrix(1.12525,0,0,1.12525,-5284.37,246.576)">
				<path class="st1" d="M4852.7-267.2h20.2l-10.1,15.2L4852.7-267.2z"/>
			</g>
			<g transform="matrix(1.12525,0,0,1.12525,-5284.37,246.576)">
				<g>
					<path class="st1" d="M4867.1-272l-9.9-15h-17.5l9.9,15H4867.1z"/>
				</g>
			</g>
			<g transform="matrix(1.12525,0,0,1.12525,-5284.37,246.576)">
				
					<linearGradient id="SVGID_1_" gradientUnits="userSpaceOnUse" x1="6549.8188" y1="-86.304" x2="6550.8188" y2="-86.304" gradientTransform="matrix(-403.1357 434.4333 434.4333 403.1357 2682838 -2810954.5)">
					<stop  offset="0" style="stop-color:#FFFFFF"/>
					<stop  offset="9.400483e-02" style="stop-color:#FFFFFF;stop-opacity:0"/>
				</linearGradient>
				<path class="st2" d="M4867.1-287l-3,4.5l6.9,10.4h5.1l9.9-15h-18.9V-287z"/>
			</g>
		</g>
	</g>
</g>
</svg>
