<svg width="243" height="68" viewBox="0 0 243 68" fill="none" xmlns="http://www.w3.org/2000/svg">
<path d="M27.02 32.9912L13.1159 8.92782L16.0049 3.95131C17.4404 1.43471 19.9379 0 22.826 0H37.7363H52.6277C55.5356 0 58.0142 1.43471 59.4677 3.95131L67.8917 18.546H60.3992L54.3422 8.07094C53.7275 6.98995 52.5719 6.43102 51.4163 6.50482H23.8322C22.1177 6.50482 20.72 7.90263 20.7011 9.61726C20.7011 10.214 20.8874 10.7919 21.1853 11.3139L34.1201 33.6996L23.8133 51.5192C20.4023 45.6102 16.9922 39.7022 13.5812 33.7932L16.9364 27.9778L23.4227 39.2359L27.02 32.9912ZM74.36 29.7483L71.471 24.7718H43.6817L40.0844 18.5271L53.075 18.546L49.7198 12.7306C42.8987 12.7306 36.0578 12.7306 29.2367 12.7306L39.5246 30.5682H65.6282C66.1385 30.6087 66.6398 30.7221 67.0718 30.9787C68.5631 31.8544 69.0851 33.7563 68.2085 35.2657L54.416 59.1428C53.9129 60.1869 52.85 60.8952 51.6017 60.8952H39.5057L35.7599 67.3821H52.6097C55.5176 67.3821 57.9962 65.9473 59.4497 63.4487L66.9053 50.5318L74.3609 37.6329C75.7955 35.1163 75.7955 32.246 74.36 29.7483ZM49.6649 43.2989L43.1606 54.5569H49.8701C53.2811 48.648 56.6912 42.7399 60.1022 36.812H39.5255L26.5907 59.1977C26.3108 59.7198 25.9013 60.1671 25.3793 60.465C23.888 61.3228 21.9683 60.8007 21.1115 59.3093L7.31903 35.4322C6.66653 34.4628 6.59184 33.1766 7.20744 32.1146L13.2464 21.6395L9.50061 15.1347L1.07663 29.7294C-0.358875 32.246 -0.358875 35.1163 1.07663 37.6329L8.53222 50.5318L15.9878 63.4487C17.4413 65.9464 19.9208 67.3821 22.8089 67.3821H28.568L42.4532 43.3187L49.6649 43.2989Z" fill="url(#paint0_linear_1611_4952)"/>
<path fill-rule="evenodd" clip-rule="evenodd" d="M243.001 9.22266V16.7409H240.96V12.5565L238.851 14.5636H238.647L236.538 12.5565V16.7409H234.497V9.22266H235.313H236.538L238.784 11.6717L240.961 9.22266H242.186H243.001ZM225.244 11.264H227.625V16.7409H229.666V11.264H232.048V9.22266H225.245L225.244 11.264Z" fill="white"/>
<path d="M147.128 23.5449H133.794C130.086 23.5449 127.841 25.2461 127.092 28.6141C126.991 29.1245 126.922 29.6006 126.922 30.0425V45.1476C126.922 48.1754 128.079 50.3184 130.324 51.5434C131.277 52.0538 132.672 52.3256 134.508 52.3256H153.694V45.3852H135.461C134.542 45.3852 134.066 44.603 134.066 43.3438V40.7246H153.728V40.2827V34.533V30.2127C153.728 29.7023 153.728 29.3279 153.694 29.056C153.183 25.3811 151.006 23.5449 147.128 23.5449ZM146.585 34.533H134.067V32.254C134.067 31.9138 134.135 31.6762 134.237 31.5061C134.611 30.7914 135.325 30.4512 136.312 30.4512H144.919C145.055 30.4512 145.191 30.4854 145.293 30.4854C146.008 30.6555 146.586 30.9615 146.586 31.5403V34.533H146.585Z" fill="white"/>
<path d="M103.327 30.5397H118.106V23.502H102C98.6708 23.502 95.9224 26.129 95.9224 29.4156V35.595C95.9224 38.8816 98.6708 41.5087 102 41.5087H111.467C111.669 41.5087 111.743 41.6459 111.743 41.7246V45.2733C111.743 45.3523 111.669 45.4892 111.467 45.4892H95.923V52.502H112.845C116.164 52.502 118.922 49.9096 118.922 46.6382V40.4095C118.922 37.1376 116.164 34.5451 112.845 34.5451H103.327C103.303 34.5451 103.253 34.5343 103.197 34.4746C103.141 34.4152 103.103 34.3284 103.103 34.2301V30.7806C103.103 30.6958 103.134 30.6376 103.169 30.6014C103.204 30.5658 103.255 30.5397 103.327 30.5397Z" fill="white"/>
<path d="M223.135 26.8108V22.0477C223.135 18.3394 220.107 15.3115 216.399 15.3115H195.207V22.2178H214.597C215.549 22.2178 216.298 22.9325 216.298 23.919V26.6065C216.298 28.6821 214.562 30.4507 212.488 30.4507H202.725V37.2544H212.488C214.597 37.2544 216.298 38.9555 216.298 41.0302V43.7853C216.298 44.7043 215.55 45.4522 214.597 45.4522H195.207V52.3243H216.399C220.107 52.3243 223.135 49.3307 223.135 45.6566V40.8259C223.135 37.0834 220.176 34.1581 216.399 34.1581V33.5461C220.108 33.547 223.135 30.5191 223.135 26.8108Z" fill="white"/>
<path d="M161.728 30.1109V45.1475C161.728 49.944 164.177 52.3256 169.076 52.3256H187.207V45.4536H170.709C169.62 45.4536 168.736 44.5688 168.736 43.5148V32.3566C168.736 31.2 169.654 30.4511 170.879 30.4511H187.207V23.5449H167.579C163.667 23.5458 161.728 25.7231 161.728 30.1109Z" fill="white"/>
<defs>
<linearGradient id="paint0_linear_1611_4952" x1="54.7344" y1="4.20405" x2="17.0559" y2="69.4601" gradientUnits="userSpaceOnUse">
<stop stop-color="#35FFE7"/>
<stop offset="1" stop-color="#7D2EFF"/>
</linearGradient>
</defs>
</svg>
