<svg width="432" height="98" viewBox="0 0 432 98" fill="none" xmlns="http://www.w3.org/2000/svg">
<path d="M120.212 12.8837H142.005V54.3755C142.005 63.5061 145.247 67.0805 154.18 67.0805H175.777C184.716 67.0805 187.953 63.5061 187.953 54.3755V12.8837H209.751V59.1413C209.751 77.0074 200.616 85.5452 180.589 85.5452H149.369C129.341 85.5452 120.212 77.0074 120.212 59.1413V12.8837Z" fill="white"/>
<path d="M336.005 13.2851H401.785C423.577 13.2851 431.234 20.5268 431.234 38.2766V60.1181C431.234 77.8853 423.577 85.1096 401.785 85.1096H336.005V13.2851ZM357.797 66.6856H396.479C405.809 66.6856 409.442 64.0063 409.442 53.783V44.0537C409.442 33.8305 405.809 31.1512 396.479 31.1512H357.797V66.6856Z" fill="white"/>
<path d="M326.474 13.2789H297.369L272.599 38.3227L247.823 13.2789H217.23L252.957 49.4003L217.603 85.1497H248.197L272.599 60.4779L296.996 85.1497H326.106L290.747 49.4003L326.474 13.2789Z" fill="white"/>
<path d="M48.4943 0.178772C38.9021 0.179907 29.5257 3.0203 21.5507 8.34081C13.5757 13.6613 7.36018 21.223 3.69021 30.0696C0.0202435 38.9162 -0.939395 48.6505 0.932637 58.0416C2.80467 67.4326 7.4243 76.0586 14.2074 82.8289C20.9904 89.5992 29.6323 94.2096 39.0402 96.0772C48.4482 97.9448 58.1996 96.9857 67.0615 93.3212C75.9234 89.6567 83.4977 83.4513 88.8267 75.4898C94.1557 67.5283 97 58.1681 97 48.5929C96.9848 35.7564 91.8693 23.45 82.7758 14.3737C73.6824 5.2974 61.3536 0.19244 48.4943 0.178772ZM94.5511 48.5929C94.5503 51.5242 94.2692 54.4486 93.7119 57.3266H78.1047L49.7187 28.9908V2.65198C61.7153 2.96755 73.1144 7.94598 81.4884 16.527C89.8623 25.108 94.5493 36.6134 94.5511 48.5929ZM47.2583 2.65198V28.9908L18.8723 57.3266H3.28241C2.01231 50.7758 2.18637 44.0275 3.7925 37.5506C5.39864 31.0738 8.39834 25.0237 12.5831 19.8208C16.7679 14.6179 22.0374 10.387 28.0255 7.42213C34.0135 4.45726 40.5765 2.82951 47.2583 2.65198ZM48.477 94.5683C38.2109 94.5658 28.2396 91.1408 20.1457 84.8368C12.0517 78.5328 6.29874 69.7109 3.79977 59.7711H19.8955L48.4885 31.223L77.0872 59.7711H93.183C90.6836 69.7128 84.9289 78.5361 76.8326 84.8403C68.7363 91.1446 58.7624 94.5684 48.4943 94.5683H48.477Z" fill="white"/>
</svg>
