<svg width="48" height="49" viewBox="0 0 48 49" fill="none" xmlns="http://www.w3.org/2000/svg">
<rect y="0.482422" width="48" height="48" rx="8" fill="black" fill-opacity="0.3"/>
<path d="M21.3246 27.0117L20.2371 28.2367C19.3993 29.073 18.3325 29.6423 17.1713 29.8724C16.0101 30.1026 14.8068 29.9834 13.7133 29.5299C12.6198 29.0765 11.6853 28.309 11.0279 27.3246C10.3704 26.3402 10.0195 25.183 10.0195 23.9992C10.0195 22.8155 10.3704 21.6582 11.0279 20.6738C11.6853 19.6894 12.6198 18.922 13.7133 18.4685C14.8068 18.015 16.0101 17.8958 17.1713 18.126C18.3325 18.3562 19.3993 18.9254 20.2371 19.7617L27.7621 28.2367C28.5999 29.073 29.6668 29.6423 30.828 29.8724C31.9892 30.1026 33.1925 29.9834 34.286 29.5299C35.3794 29.0765 36.3139 28.309 36.9714 27.3246C37.6288 26.3402 37.9797 25.183 37.9797 23.9992C37.9797 22.8155 37.6288 21.6582 36.9714 20.6738C36.3139 19.6894 35.3794 18.922 34.286 18.4685C33.1925 18.015 31.9892 17.8958 30.828 18.126C29.6668 18.3562 28.5999 18.9254 27.7621 19.7617L26.6746 20.9867" stroke="#4C71F3" stroke-width="2" stroke-linecap="round" stroke-linejoin="round"/>
</svg>
