<svg width="48" height="49" viewBox="0 0 48 49" fill="none" xmlns="http://www.w3.org/2000/svg">
<rect y="0.482422" width="48" height="48" rx="8" fill="black" fill-opacity="0.3"/>
<path fill-rule="evenodd" clip-rule="evenodd" d="M27 10C27.5523 10 28 10.4477 28 11V13H33C34.1046 13 35 13.8954 35 15V20H37C37.5523 20 38 20.4477 38 21C38 21.5523 37.5523 22 37 22H35V26H37C37.5523 26 38 26.4477 38 27C38 27.5523 37.5523 28 37 28H35V33C35 34.1046 34.1046 35 33 35H28V37C28 37.5523 27.5523 38 27 38C26.4477 38 26 37.5523 26 37V35H22V37C22 37.5523 21.5523 38 21 38C20.4477 38 20 37.5523 20 37V35H15C13.8954 35 13 34.1046 13 33V28H11C10.4477 28 10 27.5523 10 27C10 26.4477 10.4477 26 11 26H13V22H11C10.4477 22 10 21.5523 10 21C10 20.4477 10.4477 20 11 20H13V15C13 13.8954 13.8954 13 15 13H20V11C20 10.4477 20.4477 10 21 10C21.5523 10 22 10.4477 22 11V13H26V11C26 10.4477 26.4477 10 27 10ZM21 15H15V21V27V33H21H27H33V27V21V15H27H21ZM20.5 19.5C19.9477 19.5 19.5 19.9477 19.5 20.5V27.5C19.5 28.0523 19.9477 28.5 20.5 28.5H27.5C28.0523 28.5 28.5 28.0523 28.5 27.5V20.5C28.5 19.9477 28.0523 19.5 27.5 19.5H20.5ZM21.5 26.5V21.5H26.5V26.5H21.5Z" fill="#4C71F3"/>
</svg>
