<svg width="48" height="49" viewBox="0 0 48 49" fill="none" xmlns="http://www.w3.org/2000/svg">
<rect y="0.482422" width="48" height="48" rx="8" fill="black" fill-opacity="0.3"/>
<path d="M18.5 38C18.8944 38.0017 19.2853 37.9252 19.65 37.775C20.0147 37.6248 20.3461 37.4039 20.625 37.125C20.9039 36.8461 21.1248 36.5147 21.275 36.15C21.4252 35.7853 21.5017 35.3944 21.5 35V29" stroke="#4C71F3" stroke-width="2" stroke-linecap="round" stroke-linejoin="round"/>
<path d="M29.5 38C29.1056 38.0017 28.7147 37.9252 28.35 37.775C27.9853 37.6248 27.6539 37.4039 27.375 37.125C27.0961 36.8461 26.8752 36.5147 26.725 36.15C26.5748 35.7853 26.4984 35.3944 26.5 35V29" stroke="#4C71F3" stroke-width="2" stroke-linecap="round" stroke-linejoin="round"/>
<path d="M27 29H29C29.3944 28.9984 29.7853 29.0748 30.15 29.225C30.5147 29.3752 30.8461 29.5961 31.125 29.875C31.4039 30.1539 31.6248 30.4853 31.775 30.85C31.9252 31.2147 32.0017 31.6056 32 32V33C31.9983 33.3945 32.0748 33.7853 32.225 34.15C32.3752 34.5148 32.5961 34.8461 32.875 35.125C33.1539 35.4039 33.4853 35.6249 33.85 35.775C34.2147 35.9252 34.6056 36.0017 35 36" stroke="#4C71F3" stroke-width="2" stroke-linecap="round" stroke-linejoin="round"/>
<path d="M21 29H19C18.6056 28.9984 18.2147 29.0748 17.85 29.225C17.4853 29.3752 17.1539 29.5961 16.875 29.875C16.5961 30.1539 16.3752 30.4853 16.225 30.85C16.0748 31.2147 15.9983 31.6056 16 32V33C16.0017 33.3945 15.9252 33.7853 15.775 34.15C15.6248 34.5148 15.4039 34.8461 15.125 35.125C14.8461 35.4039 14.5147 35.6249 14.15 35.775C13.7853 35.9252 13.3944 36.0017 13 36" stroke="#4C71F3" stroke-width="2" stroke-linecap="round" stroke-linejoin="round"/>
<path d="M21.975 16C21.3875 15.0806 20.5781 14.3239 19.6212 13.7997C18.6644 13.2754 17.591 13.0004 16.5 13C16.0149 13.8397 15.7238 14.7774 15.6481 15.7442C15.5724 16.711 15.714 17.6825 16.0625 18.5875C15.379 19.5951 15.0093 20.7825 15 22V23C15 24.5913 15.6321 26.1174 16.7574 27.2426C17.8826 28.3679 19.4087 29 21 29H27C28.5913 29 30.1174 28.3679 31.2426 27.2426C32.3679 26.1174 33 24.5913 33 23V22C32.9907 20.7825 32.621 19.5951 31.9375 18.5875C32.286 17.6825 32.4276 16.711 32.3519 15.7442C32.2762 14.7774 31.9851 13.8397 31.5 13C30.409 13.0004 29.3356 13.2754 28.3787 13.7997C27.4219 14.3239 26.6125 15.0806 26.025 16H21.975Z" stroke="#4C71F3" stroke-width="2" stroke-linecap="round" stroke-linejoin="round"/>
</svg>
