<svg width="48" height="49" viewBox="0 0 48 49" fill="none" xmlns="http://www.w3.org/2000/svg">
<rect y="0.482422" width="48" height="48" rx="8" fill="black" fill-opacity="0.3"/>
<path fill-rule="evenodd" clip-rule="evenodd" d="M15.5858 11.5858C15.9609 11.2107 16.4696 11 17 11H31C31.5305 11 32.0392 11.2107 32.4142 11.5858C32.7893 11.9609 33 12.4696 33 13V16V17.45V17.4562L33 17.4562C32.9981 17.7644 32.9254 18.0681 32.7876 18.3438C32.6497 18.6195 32.4504 18.8598 32.2049 19.0463L32.2034 19.0475L25.6574 24L32.2034 28.9525L32.2049 28.9537C32.4504 29.1402 32.6497 29.3805 32.7876 29.6562C32.9254 29.9319 32.9981 30.2356 33 30.5438L33 30.55L33 35C33 35.5304 32.7893 36.0391 32.4142 36.4142C32.0392 36.7893 31.5304 37 31 37H17C16.4696 37 15.9609 36.7893 15.5858 36.4142C15.2107 36.0391 15 35.5304 15 35V30.5V30.4938L15 30.4938C15.0019 30.1856 15.0746 29.8819 15.2125 29.6062C15.3503 29.3305 15.5497 29.0902 15.7951 28.9037L15.8 28.9L15.8 28.9L22.3334 24L15.8 19.1L15.7951 19.0963L15.7951 19.0963C15.5496 18.9098 15.3503 18.6695 15.2125 18.3938C15.0746 18.1181 15.0019 17.8144 15 17.5062L15 17.5H15V16V13C15 12.4696 15.2107 11.9609 15.5858 11.5858ZM17 17V17.4945C17.0001 17.4962 17.0006 17.4978 17.0013 17.4994C17.0021 17.5009 17.0032 17.5022 17.0045 17.5033L23.9974 22.748L30.9951 17.4537L30.9953 17.4536L30.997 17.4519C30.9977 17.4511 30.9983 17.4503 30.9987 17.4493C30.9991 17.4485 30.9995 17.4476 30.9997 17.4467L31 17.4445V17H17ZM31 15H17V13H31V15ZM17 30.5055C17.0001 30.5038 17.0006 30.5022 17.0013 30.5007C17.0021 30.4991 17.0031 30.4978 17.0045 30.4967L23.9974 25.252L30.9951 30.5463L30.9953 30.5464C30.9967 30.5476 30.9979 30.549 30.9987 30.5507L30.9994 30.5523C30.9997 30.5533 31 30.5544 31 30.5555V35H17V30.5055Z" fill="#4C71F3"/>
</svg>
